%TF.GenerationSoftware,KiCad,Pcbnew,8.0.8*%
%TF.CreationDate,2025-02-23T09:58:19+01:00*%
%TF.ProjectId,fullsized keybored 3v3,66756c6c-7369-47a6-9564-206b6579626f,rev?*%
%TF.SameCoordinates,Original*%
%TF.FileFunction,Soldermask,Top*%
%TF.FilePolarity,Negative*%
%FSLAX46Y46*%
G04 Gerber Fmt 4.6, Leading zero omitted, Abs format (unit mm)*
G04 Created by KiCad (PCBNEW 8.0.8) date 2025-02-23 09:58:19*
%MOMM*%
%LPD*%
G01*
G04 APERTURE LIST*
%ADD10C,1.500000*%
%ADD11C,3.800000*%
%ADD12C,3.987800*%
%ADD13C,1.750000*%
%ADD14C,3.300000*%
%ADD15R,1.700000X1.700000*%
%ADD16O,1.700000X1.700000*%
%ADD17C,0.650000*%
%ADD18O,1.000000X1.600000*%
%ADD19O,1.000000X2.100000*%
G04 APERTURE END LIST*
D10*
%TO.C,J31*%
X299243750Y-106362500D03*
%TD*%
%TO.C,J29*%
X299243750Y-108743750D03*
%TD*%
%TO.C,J23*%
X299243750Y-115887500D03*
%TD*%
%TO.C,J21*%
X299243750Y-118268750D03*
%TD*%
%TO.C,J11*%
X353218750Y-113506250D03*
%TD*%
%TO.C,J14*%
X330357184Y-117008098D03*
%TD*%
D11*
%TO.C,H7*%
X283368750Y-145256250D03*
%TD*%
D10*
%TO.C,J10*%
X326231250Y-123825000D03*
%TD*%
%TO.C,J30*%
X301625000Y-107950000D03*
%TD*%
%TO.C,J32*%
X301625000Y-105568750D03*
%TD*%
%TO.C,J33*%
X299243750Y-103981250D03*
%TD*%
%TO.C,J28*%
X301625000Y-110331250D03*
%TD*%
D12*
%TO.C,S7*%
X427513750Y-131762500D03*
X427513750Y-155575000D03*
%TD*%
D10*
%TO.C,J25*%
X299243750Y-113506250D03*
%TD*%
D11*
%TO.C,H8*%
X426243750Y-145256250D03*
%TD*%
%TO.C,H3*%
X283368750Y-61912500D03*
%TD*%
D12*
%TO.C,S8*%
X427513750Y-93662500D03*
X427513750Y-117475000D03*
%TD*%
D10*
%TO.C,J16*%
X346868750Y-121443750D03*
%TD*%
D11*
%TO.C,H11*%
X367506250Y-105568750D03*
%TD*%
D10*
%TO.C,J20*%
X337343750Y-121443750D03*
%TD*%
%TO.C,J26*%
X301625000Y-112712500D03*
%TD*%
D11*
%TO.C,H1*%
X40481250Y-61912500D03*
%TD*%
D10*
%TO.C,J19*%
X339437500Y-123031250D03*
%TD*%
%TO.C,J24*%
X301625000Y-115093750D03*
%TD*%
%TO.C,J17*%
X344487500Y-123031250D03*
%TD*%
%TO.C,J4*%
X326231250Y-121443750D03*
%TD*%
D11*
%TO.C,H2*%
X174625000Y-61912500D03*
%TD*%
D12*
%TO.C,S2*%
X26193750Y-142398750D03*
X50006250Y-142398750D03*
%TD*%
D10*
%TO.C,J6*%
X355600000Y-109537500D03*
%TD*%
D11*
%TO.C,H4*%
X434181250Y-61912500D03*
%TD*%
%TO.C,H5*%
X40481250Y-145256250D03*
%TD*%
%TO.C,H6*%
X174625000Y-145256250D03*
%TD*%
D10*
%TO.C,J15*%
X349250000Y-123031250D03*
%TD*%
%TO.C,J27*%
X299243750Y-111125000D03*
%TD*%
%TO.C,J18*%
X342106250Y-121443750D03*
%TD*%
D12*
%TO.C,S3*%
X264318750Y-142398750D03*
X288131250Y-142398750D03*
%TD*%
D10*
%TO.C,J22*%
X301625000Y-117475000D03*
%TD*%
%TO.C,J13*%
X353218750Y-115887500D03*
%TD*%
%TO.C,J3*%
X310400000Y-120650000D03*
%TD*%
D12*
%TO.C,S1*%
X197643750Y-144938750D03*
X97631250Y-144938750D03*
%TD*%
%TO.C,S5*%
X271462500Y-85248750D03*
X295275000Y-85248750D03*
%TD*%
D11*
%TO.C,H10*%
X245268750Y-105568750D03*
%TD*%
D10*
%TO.C,J12*%
X355600000Y-114300000D03*
%TD*%
%TO.C,J8*%
X355600000Y-111918750D03*
%TD*%
%TO.C,J5*%
X353218750Y-108743750D03*
%TD*%
D12*
%TO.C,S6*%
X400050000Y-144938750D03*
X376237500Y-144938750D03*
%TD*%
D10*
%TO.C,J7*%
X353218750Y-111125000D03*
%TD*%
D12*
%TO.C,S4*%
X292893750Y-106838750D03*
X269081250Y-106838750D03*
%TD*%
D11*
%TO.C,H9*%
X111918750Y-105568750D03*
%TD*%
D10*
%TO.C,J9*%
X423068750Y-60325000D03*
%TD*%
D13*
%TO.C,MX45*%
X212248750Y-96043750D03*
D12*
X207168750Y-96043750D03*
D13*
X202088750Y-96043750D03*
D14*
X203358750Y-93503750D03*
X209708750Y-90963750D03*
%TD*%
D13*
%TO.C,MX98*%
X321786250Y-153193750D03*
D12*
X316706250Y-153193750D03*
D13*
X311626250Y-153193750D03*
D14*
X312896250Y-150653750D03*
X319246250Y-148113750D03*
%TD*%
D13*
%TO.C,MX57*%
X38417500Y-115093750D03*
D12*
X33337500Y-115093750D03*
D13*
X28257500Y-115093750D03*
D14*
X29527500Y-112553750D03*
X35877500Y-110013750D03*
%TD*%
D13*
%TO.C,MX27*%
X259873750Y-76993750D03*
D12*
X254793750Y-76993750D03*
D13*
X249713750Y-76993750D03*
D14*
X250983750Y-74453750D03*
X257333750Y-71913750D03*
%TD*%
D13*
%TO.C,MX40*%
X116998750Y-96043750D03*
D12*
X111918750Y-96043750D03*
D13*
X106838750Y-96043750D03*
D14*
X108108750Y-93503750D03*
X114458750Y-90963750D03*
%TD*%
D13*
%TO.C,MX60*%
X102711250Y-115093750D03*
D12*
X97631250Y-115093750D03*
D13*
X92551250Y-115093750D03*
D14*
X93821250Y-112553750D03*
X100171250Y-110013750D03*
%TD*%
D13*
%TO.C,MX17*%
X69373750Y-76993750D03*
D12*
X64293750Y-76993750D03*
D13*
X59213750Y-76993750D03*
D14*
X60483750Y-74453750D03*
X66833750Y-71913750D03*
%TD*%
D13*
%TO.C,MX84*%
X281305000Y-134143750D03*
D12*
X276225000Y-134143750D03*
D13*
X271145000Y-134143750D03*
D14*
X272415000Y-131603750D03*
X278765000Y-129063750D03*
%TD*%
D13*
%TO.C,MX33*%
X402748750Y-76993750D03*
D12*
X397668750Y-76993750D03*
D13*
X392588750Y-76993750D03*
D14*
X393858750Y-74453750D03*
X400208750Y-71913750D03*
%TD*%
D13*
%TO.C,MX7*%
X174148750Y-48418750D03*
D12*
X169068750Y-48418750D03*
D13*
X163988750Y-48418750D03*
D14*
X165258750Y-45878750D03*
X171608750Y-43338750D03*
%TD*%
D13*
%TO.C,MX8*%
X193198750Y-48418750D03*
D12*
X188118750Y-48418750D03*
D13*
X183038750Y-48418750D03*
D14*
X184308750Y-45878750D03*
X190658750Y-43338750D03*
%TD*%
D13*
%TO.C,MX18*%
X88423750Y-76993750D03*
D12*
X83343750Y-76993750D03*
D13*
X78263750Y-76993750D03*
D14*
X79533750Y-74453750D03*
X85883750Y-71913750D03*
%TD*%
D13*
%TO.C,MX65*%
X197961250Y-115093750D03*
D12*
X192881250Y-115093750D03*
D13*
X187801250Y-115093750D03*
D14*
X189071250Y-112553750D03*
X195421250Y-110013750D03*
%TD*%
D13*
%TO.C,MX80*%
X188436250Y-134143750D03*
D12*
X183356250Y-134143750D03*
D13*
X178276250Y-134143750D03*
D14*
X179546250Y-131603750D03*
X185896250Y-129063750D03*
%TD*%
D13*
%TO.C,MX88*%
X421798750Y-134143750D03*
D12*
X416718750Y-134143750D03*
D13*
X411638750Y-134143750D03*
D14*
X412908750Y-131603750D03*
X419258750Y-129063750D03*
%TD*%
D13*
%TO.C,MX38*%
X78898750Y-96043750D03*
D12*
X73818750Y-96043750D03*
D13*
X68738750Y-96043750D03*
D14*
X70008750Y-93503750D03*
X76358750Y-90963750D03*
%TD*%
D13*
%TO.C,MX74*%
X74136250Y-134143750D03*
D12*
X69056250Y-134143750D03*
D13*
X63976250Y-134143750D03*
D14*
X65246250Y-131603750D03*
X71596250Y-129063750D03*
%TD*%
D13*
%TO.C,MX66*%
X217011250Y-115093750D03*
D12*
X211931250Y-115093750D03*
D13*
X206851250Y-115093750D03*
D14*
X208121250Y-112553750D03*
X214471250Y-110013750D03*
%TD*%
D13*
%TO.C,MX71*%
X402748750Y-115093750D03*
D12*
X397668750Y-115093750D03*
D13*
X392588750Y-115093750D03*
D14*
X393858750Y-112553750D03*
X400208750Y-110013750D03*
%TD*%
D13*
%TO.C,MX75*%
X93186250Y-134143750D03*
D12*
X88106250Y-134143750D03*
D13*
X83026250Y-134143750D03*
D14*
X84296250Y-131603750D03*
X90646250Y-129063750D03*
%TD*%
D13*
%TO.C,MX39*%
X97948750Y-96043750D03*
D12*
X92868750Y-96043750D03*
D13*
X87788750Y-96043750D03*
D14*
X89058750Y-93503750D03*
X95408750Y-90963750D03*
%TD*%
D13*
%TO.C,MX83*%
X245586250Y-134143750D03*
D12*
X240506250Y-134143750D03*
D13*
X235426250Y-134143750D03*
D14*
X236696250Y-131603750D03*
X243046250Y-129063750D03*
%TD*%
D13*
%TO.C,MX76*%
X112236250Y-134143750D03*
D12*
X107156250Y-134143750D03*
D13*
X102076250Y-134143750D03*
D14*
X103346250Y-131603750D03*
X109696250Y-129063750D03*
%TD*%
D13*
%TO.C,MX78*%
X150336250Y-134143750D03*
D12*
X145256250Y-134143750D03*
D13*
X140176250Y-134143750D03*
D14*
X141446250Y-131603750D03*
X147796250Y-129063750D03*
%TD*%
D13*
%TO.C,MX87*%
X402748750Y-134143750D03*
D12*
X397668750Y-134143750D03*
D13*
X392588750Y-134143750D03*
D14*
X393858750Y-131603750D03*
X400208750Y-129063750D03*
%TD*%
D13*
%TO.C,MX79*%
X169386250Y-134143750D03*
D12*
X164306250Y-134143750D03*
D13*
X159226250Y-134143750D03*
D14*
X160496250Y-131603750D03*
X166846250Y-129063750D03*
%TD*%
D13*
%TO.C,MX95*%
X247967500Y-153193750D03*
D12*
X242887500Y-153193750D03*
D13*
X237807500Y-153193750D03*
D14*
X239077500Y-150653750D03*
X245427500Y-148113750D03*
%TD*%
D15*
%TO.C,J2*%
X423068750Y-55562500D03*
D16*
X423068750Y-53022500D03*
X423068750Y-50482500D03*
X423068750Y-47942500D03*
X423068750Y-45402500D03*
X423068750Y-42862500D03*
%TD*%
D13*
%TO.C,MX1*%
X31273750Y-48418750D03*
D12*
X26193750Y-48418750D03*
D13*
X21113750Y-48418750D03*
D14*
X22383750Y-45878750D03*
X28733750Y-43338750D03*
%TD*%
D13*
%TO.C,MX93*%
X152717500Y-153193750D03*
D12*
X147637500Y-153193750D03*
D13*
X142557500Y-153193750D03*
D14*
X143827500Y-150653750D03*
X150177500Y-148113750D03*
%TD*%
D13*
%TO.C,MX22*%
X164623750Y-76993750D03*
D12*
X159543750Y-76993750D03*
D13*
X154463750Y-76993750D03*
D14*
X155733750Y-74453750D03*
X162083750Y-71913750D03*
%TD*%
D13*
%TO.C,MX43*%
X174148750Y-96043750D03*
D12*
X169068750Y-96043750D03*
D13*
X163988750Y-96043750D03*
D14*
X165258750Y-93503750D03*
X171608750Y-90963750D03*
%TD*%
D13*
%TO.C,MX97*%
X295592500Y-153193750D03*
D12*
X290512500Y-153193750D03*
D13*
X285432500Y-153193750D03*
D14*
X286702500Y-150653750D03*
X293052500Y-148113750D03*
%TD*%
D13*
%TO.C,MX62*%
X140811250Y-115093750D03*
D12*
X135731250Y-115093750D03*
D13*
X130651250Y-115093750D03*
D14*
X131921250Y-112553750D03*
X138271250Y-110013750D03*
%TD*%
D13*
%TO.C,MX73*%
X43180000Y-134143750D03*
D12*
X38100000Y-134143750D03*
D13*
X33020000Y-134143750D03*
D14*
X34290000Y-131603750D03*
X40640000Y-129063750D03*
%TD*%
D13*
%TO.C,MX2*%
X69373750Y-48418750D03*
D12*
X64293750Y-48418750D03*
D13*
X59213750Y-48418750D03*
D14*
X60483750Y-45878750D03*
X66833750Y-43338750D03*
%TD*%
D13*
%TO.C,MX15*%
X31273750Y-76993750D03*
D12*
X26193750Y-76993750D03*
D13*
X21113750Y-76993750D03*
D14*
X22383750Y-74453750D03*
X28733750Y-71913750D03*
%TD*%
D13*
%TO.C,MX94*%
X224155000Y-153193750D03*
D12*
X219075000Y-153193750D03*
D13*
X213995000Y-153193750D03*
D14*
X215265000Y-150653750D03*
X221615000Y-148113750D03*
%TD*%
D13*
%TO.C,MX53*%
X383698750Y-96043750D03*
D12*
X378618750Y-96043750D03*
D13*
X373538750Y-96043750D03*
D14*
X374808750Y-93503750D03*
X381158750Y-90963750D03*
%TD*%
D13*
%TO.C,MX101*%
X393223750Y-153193750D03*
D12*
X388143750Y-153193750D03*
D13*
X383063750Y-153193750D03*
D14*
X384333750Y-150653750D03*
X390683750Y-148113750D03*
%TD*%
D13*
%TO.C,MX12*%
X278923750Y-48418750D03*
D12*
X273843750Y-48418750D03*
D13*
X268763750Y-48418750D03*
D14*
X270033750Y-45878750D03*
X276383750Y-43338750D03*
%TD*%
D13*
%TO.C,MX41*%
X136048750Y-96043750D03*
D12*
X130968750Y-96043750D03*
D13*
X125888750Y-96043750D03*
D14*
X127158750Y-93503750D03*
X133508750Y-90963750D03*
%TD*%
D13*
%TO.C,MX92*%
X81280000Y-153193750D03*
D12*
X76200000Y-153193750D03*
D13*
X71120000Y-153193750D03*
D14*
X72390000Y-150653750D03*
X78740000Y-148113750D03*
%TD*%
D13*
%TO.C,MX4*%
X107473750Y-48418750D03*
D12*
X102393750Y-48418750D03*
D13*
X97313750Y-48418750D03*
D14*
X98583750Y-45878750D03*
X104933750Y-43338750D03*
%TD*%
D13*
%TO.C,MX63*%
X159861250Y-115093750D03*
D12*
X154781250Y-115093750D03*
D13*
X149701250Y-115093750D03*
D14*
X150971250Y-112553750D03*
X157321250Y-110013750D03*
%TD*%
D13*
%TO.C,MX34*%
X421798750Y-76993750D03*
D12*
X416718750Y-76993750D03*
D13*
X411638750Y-76993750D03*
D14*
X412908750Y-74453750D03*
X419258750Y-71913750D03*
%TD*%
D13*
%TO.C,MX3*%
X88423750Y-48418750D03*
D12*
X83343750Y-48418750D03*
D13*
X78263750Y-48418750D03*
D14*
X79533750Y-45878750D03*
X85883750Y-43338750D03*
%TD*%
D13*
%TO.C,MX21*%
X145573750Y-76993750D03*
D12*
X140493750Y-76993750D03*
D13*
X135413750Y-76993750D03*
D14*
X136683750Y-74453750D03*
X143033750Y-71913750D03*
%TD*%
D13*
%TO.C,MX96*%
X271780000Y-153193750D03*
D12*
X266700000Y-153193750D03*
D13*
X261620000Y-153193750D03*
D14*
X262890000Y-150653750D03*
X269240000Y-148113750D03*
%TD*%
D13*
%TO.C,MX25*%
X221773750Y-76993750D03*
D12*
X216693750Y-76993750D03*
D13*
X211613750Y-76993750D03*
D14*
X212883750Y-74453750D03*
X219233750Y-71913750D03*
%TD*%
D13*
%TO.C,MX47*%
X250348750Y-96043750D03*
D12*
X245268750Y-96043750D03*
D13*
X240188750Y-96043750D03*
D14*
X241458750Y-93503750D03*
X247808750Y-90963750D03*
%TD*%
D13*
%TO.C,MX26*%
X240823750Y-76993750D03*
D12*
X235743750Y-76993750D03*
D13*
X230663750Y-76993750D03*
D14*
X231933750Y-74453750D03*
X238283750Y-71913750D03*
%TD*%
D13*
%TO.C,MX50*%
X321786250Y-96043750D03*
D12*
X316706250Y-96043750D03*
D13*
X311626250Y-96043750D03*
D14*
X312896250Y-93503750D03*
X319246250Y-90963750D03*
%TD*%
D13*
%TO.C,MX11*%
X259873750Y-48418750D03*
D12*
X254793750Y-48418750D03*
D13*
X249713750Y-48418750D03*
D14*
X250983750Y-45878750D03*
X257333750Y-43338750D03*
%TD*%
D13*
%TO.C,MX91*%
X57467500Y-153193750D03*
D12*
X52387500Y-153193750D03*
D13*
X47307500Y-153193750D03*
D14*
X48577500Y-150653750D03*
X54927500Y-148113750D03*
%TD*%
D13*
%TO.C,MX67*%
X236061250Y-115093750D03*
D12*
X230981250Y-115093750D03*
D13*
X225901250Y-115093750D03*
D14*
X227171250Y-112553750D03*
X233521250Y-110013750D03*
%TD*%
D13*
%TO.C,MX30*%
X340836250Y-76993750D03*
D12*
X335756250Y-76993750D03*
D13*
X330676250Y-76993750D03*
D14*
X331946250Y-74453750D03*
X338296250Y-71913750D03*
%TD*%
D13*
%TO.C,MX9*%
X212248750Y-48418750D03*
D12*
X207168750Y-48418750D03*
D13*
X202088750Y-48418750D03*
D14*
X203358750Y-45878750D03*
X209708750Y-43338750D03*
%TD*%
D13*
%TO.C,MX68*%
X255111250Y-115093750D03*
D12*
X250031250Y-115093750D03*
D13*
X244951250Y-115093750D03*
D14*
X246221250Y-112553750D03*
X252571250Y-110013750D03*
%TD*%
D13*
%TO.C,MX72*%
X421798750Y-115093750D03*
D12*
X416718750Y-115093750D03*
D13*
X411638750Y-115093750D03*
D14*
X412908750Y-112553750D03*
X419258750Y-110013750D03*
%TD*%
D13*
%TO.C,MX48*%
X269398750Y-96043750D03*
D12*
X264318750Y-96043750D03*
D13*
X259238750Y-96043750D03*
D14*
X260508750Y-93503750D03*
X266858750Y-90963750D03*
%TD*%
D13*
%TO.C,MX52*%
X359886250Y-96043750D03*
D12*
X354806250Y-96043750D03*
D13*
X349726250Y-96043750D03*
D14*
X350996250Y-93503750D03*
X357346250Y-90963750D03*
%TD*%
D13*
%TO.C,MX20*%
X126523750Y-76993750D03*
D12*
X121443750Y-76993750D03*
D13*
X116363750Y-76993750D03*
D14*
X117633750Y-74453750D03*
X123983750Y-71913750D03*
%TD*%
D13*
%TO.C,MX32*%
X383698750Y-76993750D03*
D12*
X378618750Y-76993750D03*
D13*
X373538750Y-76993750D03*
D14*
X374808750Y-74453750D03*
X381158750Y-71913750D03*
%TD*%
D13*
%TO.C,MX51*%
X340836250Y-96043750D03*
D12*
X335756250Y-96043750D03*
D13*
X330676250Y-96043750D03*
D14*
X331946250Y-93503750D03*
X338296250Y-90963750D03*
%TD*%
D13*
%TO.C,MX36*%
X36036250Y-96043750D03*
D12*
X30956250Y-96043750D03*
D13*
X25876250Y-96043750D03*
D14*
X27146250Y-93503750D03*
X33496250Y-90963750D03*
%TD*%
D13*
%TO.C,MX102*%
X421798750Y-153193750D03*
D12*
X416718750Y-153193750D03*
D13*
X411638750Y-153193750D03*
D14*
X412908750Y-150653750D03*
X419258750Y-148113750D03*
%TD*%
D13*
%TO.C,MX64*%
X178911250Y-115093750D03*
D12*
X173831250Y-115093750D03*
D13*
X168751250Y-115093750D03*
D14*
X170021250Y-112553750D03*
X176371250Y-110013750D03*
%TD*%
D13*
%TO.C,MX69*%
X286067500Y-115093750D03*
D12*
X280987500Y-115093750D03*
D13*
X275907500Y-115093750D03*
D14*
X277177500Y-112553750D03*
X283527500Y-110013750D03*
%TD*%
D13*
%TO.C,MX35*%
X440848750Y-76993750D03*
D12*
X435768750Y-76993750D03*
D13*
X430688750Y-76993750D03*
D14*
X431958750Y-74453750D03*
X438308750Y-71913750D03*
%TD*%
D13*
%TO.C,MX82*%
X226536250Y-134143750D03*
D12*
X221456250Y-134143750D03*
D13*
X216376250Y-134143750D03*
D14*
X217646250Y-131603750D03*
X223996250Y-129063750D03*
%TD*%
D13*
%TO.C,MX44*%
X193198750Y-96043750D03*
D12*
X188118750Y-96043750D03*
D13*
X183038750Y-96043750D03*
D14*
X184308750Y-93503750D03*
X190658750Y-90963750D03*
%TD*%
D13*
%TO.C,MX89*%
X440848750Y-143668750D03*
D12*
X435768750Y-143668750D03*
D13*
X430688750Y-143668750D03*
D14*
X431958750Y-141128750D03*
X438308750Y-138588750D03*
%TD*%
D13*
%TO.C,MX55*%
X421798750Y-96043750D03*
D12*
X416718750Y-96043750D03*
D13*
X411638750Y-96043750D03*
D14*
X412908750Y-93503750D03*
X419258750Y-90963750D03*
%TD*%
D13*
%TO.C,MX23*%
X183673750Y-76993750D03*
D12*
X178593750Y-76993750D03*
D13*
X173513750Y-76993750D03*
D14*
X174783750Y-74453750D03*
X181133750Y-71913750D03*
%TD*%
D13*
%TO.C,MX61*%
X121761250Y-115093750D03*
D12*
X116681250Y-115093750D03*
D13*
X111601250Y-115093750D03*
D14*
X112871250Y-112553750D03*
X119221250Y-110013750D03*
%TD*%
D13*
%TO.C,MX58*%
X64611250Y-115093750D03*
D12*
X59531250Y-115093750D03*
D13*
X54451250Y-115093750D03*
D14*
X55721250Y-112553750D03*
X62071250Y-110013750D03*
%TD*%
D13*
%TO.C,MX46*%
X231298750Y-96043750D03*
D12*
X226218750Y-96043750D03*
D13*
X221138750Y-96043750D03*
D14*
X222408750Y-93503750D03*
X228758750Y-90963750D03*
%TD*%
D15*
%TO.C,SWD1*%
X312896250Y-123825000D03*
D16*
X310356250Y-123825000D03*
X307816250Y-123825000D03*
%TD*%
D13*
%TO.C,MX24*%
X202723750Y-76993750D03*
D12*
X197643750Y-76993750D03*
D13*
X192563750Y-76993750D03*
D14*
X193833750Y-74453750D03*
X200183750Y-71913750D03*
%TD*%
D13*
%TO.C,MX42*%
X155098750Y-96043750D03*
D12*
X150018750Y-96043750D03*
D13*
X144938750Y-96043750D03*
D14*
X146208750Y-93503750D03*
X152558750Y-90963750D03*
%TD*%
D13*
%TO.C,MX54*%
X402748750Y-96043750D03*
D12*
X397668750Y-96043750D03*
D13*
X392588750Y-96043750D03*
D14*
X393858750Y-93503750D03*
X400208750Y-90963750D03*
%TD*%
D13*
%TO.C,MX28*%
X288448750Y-76993750D03*
D12*
X283368750Y-76993750D03*
D13*
X278288750Y-76993750D03*
D14*
X279558750Y-74453750D03*
X285908750Y-71913750D03*
%TD*%
D13*
%TO.C,MX49*%
X293211250Y-96043750D03*
D12*
X288131250Y-96043750D03*
D13*
X283051250Y-96043750D03*
D14*
X284321250Y-93503750D03*
X290671250Y-90963750D03*
%TD*%
D13*
%TO.C,MX90*%
X33655000Y-153193750D03*
D12*
X28575000Y-153193750D03*
D13*
X23495000Y-153193750D03*
D14*
X24765000Y-150653750D03*
X31115000Y-148113750D03*
%TD*%
D13*
%TO.C,MX16*%
X50323750Y-76993750D03*
D12*
X45243750Y-76993750D03*
D13*
X40163750Y-76993750D03*
D14*
X41433750Y-74453750D03*
X47783750Y-71913750D03*
%TD*%
D13*
%TO.C,MX70*%
X383698750Y-115093750D03*
D12*
X378618750Y-115093750D03*
D13*
X373538750Y-115093750D03*
D14*
X374808750Y-112553750D03*
X381158750Y-110013750D03*
%TD*%
D13*
%TO.C,MX29*%
X321786250Y-76993750D03*
D12*
X316706250Y-76993750D03*
D13*
X311626250Y-76993750D03*
D14*
X312896250Y-74453750D03*
X319246250Y-71913750D03*
%TD*%
D17*
%TO.C,J1*%
X42353750Y-43575000D03*
X48133750Y-43575000D03*
D18*
X40923750Y-39925000D03*
D19*
X40923750Y-44105000D03*
D18*
X49563750Y-39925000D03*
D19*
X49563750Y-44105000D03*
%TD*%
D13*
%TO.C,MX13*%
X297973750Y-48418750D03*
D12*
X292893750Y-48418750D03*
D13*
X287813750Y-48418750D03*
D14*
X289083750Y-45878750D03*
X295433750Y-43338750D03*
%TD*%
D13*
%TO.C,MX56*%
X440848750Y-105568750D03*
D12*
X435768750Y-105568750D03*
D13*
X430688750Y-105568750D03*
D14*
X431958750Y-103028750D03*
X438308750Y-100488750D03*
%TD*%
D13*
%TO.C,MX31*%
X359886250Y-76993750D03*
D12*
X354806250Y-76993750D03*
D13*
X349726250Y-76993750D03*
D14*
X350996250Y-74453750D03*
X357346250Y-71913750D03*
%TD*%
D13*
%TO.C,MX99*%
X340836250Y-153193750D03*
D12*
X335756250Y-153193750D03*
D13*
X330676250Y-153193750D03*
D14*
X331946250Y-150653750D03*
X338296250Y-148113750D03*
%TD*%
D13*
%TO.C,MX85*%
X340836250Y-134143750D03*
D12*
X335756250Y-134143750D03*
D13*
X330676250Y-134143750D03*
D14*
X331946250Y-131603750D03*
X338296250Y-129063750D03*
%TD*%
D13*
%TO.C,MX86*%
X383698750Y-134143750D03*
D12*
X378618750Y-134143750D03*
D13*
X373538750Y-134143750D03*
D14*
X374808750Y-131603750D03*
X381158750Y-129063750D03*
%TD*%
D13*
%TO.C,MX37*%
X59848750Y-96043750D03*
D12*
X54768750Y-96043750D03*
D13*
X49688750Y-96043750D03*
D14*
X50958750Y-93503750D03*
X57308750Y-90963750D03*
%TD*%
D13*
%TO.C,MX14*%
X440848750Y-48418750D03*
D12*
X435768750Y-48418750D03*
D13*
X430688750Y-48418750D03*
D14*
X431958750Y-45878750D03*
X438308750Y-43338750D03*
%TD*%
D13*
%TO.C,MX6*%
X155098750Y-48418750D03*
D12*
X150018750Y-48418750D03*
D13*
X144938750Y-48418750D03*
D14*
X146208750Y-45878750D03*
X152558750Y-43338750D03*
%TD*%
D13*
%TO.C,MX81*%
X207486250Y-134143750D03*
D12*
X202406250Y-134143750D03*
D13*
X197326250Y-134143750D03*
D14*
X198596250Y-131603750D03*
X204946250Y-129063750D03*
%TD*%
D13*
%TO.C,MX19*%
X107473750Y-76993750D03*
D12*
X102393750Y-76993750D03*
D13*
X97313750Y-76993750D03*
D14*
X98583750Y-74453750D03*
X104933750Y-71913750D03*
%TD*%
D13*
%TO.C,MX5*%
X126523750Y-48418750D03*
D12*
X121443750Y-48418750D03*
D13*
X116363750Y-48418750D03*
D14*
X117633750Y-45878750D03*
X123983750Y-43338750D03*
%TD*%
D13*
%TO.C,MX10*%
X240823750Y-48418750D03*
D12*
X235743750Y-48418750D03*
D13*
X230663750Y-48418750D03*
D14*
X231933750Y-45878750D03*
X238283750Y-43338750D03*
%TD*%
D13*
%TO.C,MX100*%
X359886250Y-153193750D03*
D12*
X354806250Y-153193750D03*
D13*
X349726250Y-153193750D03*
D14*
X350996250Y-150653750D03*
X357346250Y-148113750D03*
%TD*%
D13*
%TO.C,MX77*%
X131286250Y-134143750D03*
D12*
X126206250Y-134143750D03*
D13*
X121126250Y-134143750D03*
D14*
X122396250Y-131603750D03*
X128746250Y-129063750D03*
%TD*%
D13*
%TO.C,MX59*%
X83661250Y-115093750D03*
D12*
X78581250Y-115093750D03*
D13*
X73501250Y-115093750D03*
D14*
X74771250Y-112553750D03*
X81121250Y-110013750D03*
%TD*%
M02*
