%TF.GenerationSoftware,KiCad,Pcbnew,8.0.8*%
%TF.CreationDate,2025-02-23T09:58:19+01:00*%
%TF.ProjectId,fullsized keybored 3v3,66756c6c-7369-47a6-9564-206b6579626f,rev?*%
%TF.SameCoordinates,Original*%
%TF.FileFunction,Legend,Top*%
%TF.FilePolarity,Positive*%
%FSLAX46Y46*%
G04 Gerber Fmt 4.6, Leading zero omitted, Abs format (unit mm)*
G04 Created by KiCad (PCBNEW 8.0.8) date 2025-02-23 09:58:19*
%MOMM*%
%LPD*%
G01*
G04 APERTURE LIST*
%ADD10C,0.800000*%
%ADD11C,2.431250*%
%ADD12C,0.100000*%
%ADD13C,0.937500*%
%ADD14C,4.000000*%
%ADD15C,0.120000*%
%ADD16C,0.000000*%
G04 APERTURE END LIST*
D10*
X419100000Y-60325000D02*
X410300000Y-60325000D01*
X407100000Y-60325000D02*
X398300000Y-60325000D01*
X395100000Y-60325000D02*
X386300000Y-60325000D01*
X383100000Y-60325000D02*
X374300000Y-60325000D01*
X371100000Y-60325000D02*
X362300000Y-60325000D01*
X359100000Y-60325000D02*
X350300000Y-60325000D01*
X347100000Y-60325000D02*
X338300000Y-60325000D01*
X335100000Y-60325000D02*
X326300000Y-60325000D01*
X323100000Y-60325000D02*
X314300000Y-60325000D01*
X420687500Y-58737500D02*
G75*
G02*
X419100000Y-60325000I-1587500J0D01*
G01*
X309562500Y-40481250D02*
X309562500Y-49281250D01*
X309562500Y-52481250D02*
X309562500Y-58737500D01*
X420687500Y-40481250D02*
X420687500Y-49281250D01*
X420687500Y-52481250D02*
X420687500Y-58737500D01*
X445293750Y-161131250D02*
G75*
G02*
X443706250Y-162718750I-1587500J0D01*
G01*
X443706250Y-38893750D02*
G75*
G02*
X445293750Y-40481250I0J-1587500D01*
G01*
X420687500Y-40481250D02*
G75*
G02*
X422275000Y-38893750I1587500J0D01*
G01*
X311150000Y-60325000D02*
G75*
G02*
X309562500Y-58737500I0J1587500D01*
G01*
X307975000Y-38893750D02*
G75*
G02*
X309562500Y-40481250I0J-1587500D01*
G01*
X16668750Y-40481250D02*
G75*
G02*
X18256250Y-38893750I1587500J0D01*
G01*
X18256250Y-162718750D02*
G75*
G02*
X16668750Y-161131250I0J1587500D01*
G01*
X16668750Y-161131250D02*
X16668750Y-152331250D01*
X16668750Y-149131250D02*
X16668750Y-140331250D01*
X16668750Y-137131250D02*
X16668750Y-128331250D01*
X16668750Y-125131250D02*
X16668750Y-116331250D01*
X16668750Y-113131250D02*
X16668750Y-104331250D01*
X16668750Y-101131250D02*
X16668750Y-92331250D01*
X16668750Y-89131250D02*
X16668750Y-80331250D01*
X16668750Y-77131250D02*
X16668750Y-68331250D01*
X16668750Y-65131250D02*
X16668750Y-56331250D01*
X16668750Y-53131250D02*
X16668750Y-44331250D01*
X16668750Y-41131250D02*
X16668750Y-40481250D01*
X445293750Y-161131250D02*
X445293750Y-152331250D01*
X445293750Y-149131250D02*
X445293750Y-140331250D01*
X445293750Y-137131250D02*
X445293750Y-128331250D01*
X445293750Y-125131250D02*
X445293750Y-116331250D01*
X445293750Y-113131250D02*
X445293750Y-104331250D01*
X445293750Y-101131250D02*
X445293750Y-92331250D01*
X445293750Y-89131250D02*
X445293750Y-80331250D01*
X445293750Y-77131250D02*
X445293750Y-68331250D01*
X445293750Y-65131250D02*
X445293750Y-56331250D01*
X445293750Y-53131250D02*
X445293750Y-44331250D01*
X445293750Y-41131250D02*
X445293750Y-40481250D01*
X422275000Y-38893750D02*
X431075000Y-38893750D01*
X434275000Y-38893750D02*
X443075000Y-38893750D01*
X18256250Y-38893750D02*
X27056250Y-38893750D01*
X30256250Y-38893750D02*
X39056250Y-38893750D01*
X42256250Y-38893750D02*
X51056250Y-38893750D01*
X54256250Y-38893750D02*
X63056250Y-38893750D01*
X66256250Y-38893750D02*
X75056250Y-38893750D01*
X78256250Y-38893750D02*
X87056250Y-38893750D01*
X90256250Y-38893750D02*
X99056250Y-38893750D01*
X102256250Y-38893750D02*
X111056250Y-38893750D01*
X114256250Y-38893750D02*
X123056250Y-38893750D01*
X126256250Y-38893750D02*
X135056250Y-38893750D01*
X138256250Y-38893750D02*
X147056250Y-38893750D01*
X150256250Y-38893750D02*
X159056250Y-38893750D01*
X162256250Y-38893750D02*
X171056250Y-38893750D01*
X174256250Y-38893750D02*
X183056250Y-38893750D01*
X186256250Y-38893750D02*
X195056250Y-38893750D01*
X198256250Y-38893750D02*
X207056250Y-38893750D01*
X210256250Y-38893750D02*
X219056250Y-38893750D01*
X222256250Y-38893750D02*
X231056250Y-38893750D01*
X234256250Y-38893750D02*
X243056250Y-38893750D01*
X246256250Y-38893750D02*
X255056250Y-38893750D01*
X258256250Y-38893750D02*
X267056250Y-38893750D01*
X270256250Y-38893750D02*
X279056250Y-38893750D01*
X282256250Y-38893750D02*
X291056250Y-38893750D01*
X294256250Y-38893750D02*
X303056250Y-38893750D01*
X306256250Y-38893750D02*
X307975000Y-38893750D01*
X18256250Y-162718750D02*
X27056250Y-162718750D01*
X30256250Y-162718750D02*
X39056250Y-162718750D01*
X42256250Y-162718750D02*
X51056250Y-162718750D01*
X54256250Y-162718750D02*
X63056250Y-162718750D01*
X66256250Y-162718750D02*
X75056250Y-162718750D01*
X78256250Y-162718750D02*
X87056250Y-162718750D01*
X90256250Y-162718750D02*
X99056250Y-162718750D01*
X102256250Y-162718750D02*
X111056250Y-162718750D01*
X114256250Y-162718750D02*
X123056250Y-162718750D01*
X126256250Y-162718750D02*
X135056250Y-162718750D01*
X138256250Y-162718750D02*
X147056250Y-162718750D01*
X150256250Y-162718750D02*
X159056250Y-162718750D01*
X162256250Y-162718750D02*
X171056250Y-162718750D01*
X174256250Y-162718750D02*
X183056250Y-162718750D01*
X186256250Y-162718750D02*
X195056250Y-162718750D01*
X198256250Y-162718750D02*
X207056250Y-162718750D01*
X210256250Y-162718750D02*
X219056250Y-162718750D01*
X222256250Y-162718750D02*
X231056250Y-162718750D01*
X234256250Y-162718750D02*
X243056250Y-162718750D01*
X246256250Y-162718750D02*
X255056250Y-162718750D01*
X258256250Y-162718750D02*
X267056250Y-162718750D01*
X270256250Y-162718750D02*
X279056250Y-162718750D01*
X282256250Y-162718750D02*
X291056250Y-162718750D01*
X294256250Y-162718750D02*
X303056250Y-162718750D01*
X306256250Y-162718750D02*
X315056250Y-162718750D01*
X318256250Y-162718750D02*
X327056250Y-162718750D01*
X330256250Y-162718750D02*
X339056250Y-162718750D01*
X342256250Y-162718750D02*
X351056250Y-162718750D01*
X354256250Y-162718750D02*
X363056250Y-162718750D01*
X366256250Y-162718750D02*
X375056250Y-162718750D01*
X378256250Y-162718750D02*
X387056250Y-162718750D01*
X390256250Y-162718750D02*
X399056250Y-162718750D01*
X402256250Y-162718750D02*
X411056250Y-162718750D01*
X414256250Y-162718750D02*
X423056250Y-162718750D01*
X426256250Y-162718750D02*
X435056250Y-162718750D01*
X438256250Y-162718750D02*
X443706250Y-162718750D01*
D11*
X175840625Y-61912500D02*
G75*
G02*
X173409375Y-61912500I-1215625J0D01*
G01*
X173409375Y-61912500D02*
G75*
G02*
X175840625Y-61912500I1215625J0D01*
G01*
D12*
X426631250Y-61118750D02*
X425043750Y-61118750D01*
D11*
X246484375Y-105568750D02*
G75*
G02*
X244053125Y-105568750I-1215625J0D01*
G01*
X244053125Y-105568750D02*
G75*
G02*
X246484375Y-105568750I1215625J0D01*
G01*
X435396875Y-61912500D02*
G75*
G02*
X432965625Y-61912500I-1215625J0D01*
G01*
X432965625Y-61912500D02*
G75*
G02*
X435396875Y-61912500I1215625J0D01*
G01*
X284584375Y-61912500D02*
G75*
G02*
X282153125Y-61912500I-1215625J0D01*
G01*
X282153125Y-61912500D02*
G75*
G02*
X284584375Y-61912500I1215625J0D01*
G01*
X41696875Y-61912500D02*
G75*
G02*
X39265625Y-61912500I-1215625J0D01*
G01*
X39265625Y-61912500D02*
G75*
G02*
X41696875Y-61912500I1215625J0D01*
G01*
X175840625Y-145256250D02*
G75*
G02*
X173409375Y-145256250I-1215625J0D01*
G01*
X173409375Y-145256250D02*
G75*
G02*
X175840625Y-145256250I1215625J0D01*
G01*
X284584375Y-145256250D02*
G75*
G02*
X282153125Y-145256250I-1215625J0D01*
G01*
X282153125Y-145256250D02*
G75*
G02*
X284584375Y-145256250I1215625J0D01*
G01*
X41696875Y-145256250D02*
G75*
G02*
X39265625Y-145256250I-1215625J0D01*
G01*
X39265625Y-145256250D02*
G75*
G02*
X41696875Y-145256250I1215625J0D01*
G01*
X368721875Y-105568750D02*
G75*
G02*
X366290625Y-105568750I-1215625J0D01*
G01*
X366290625Y-105568750D02*
G75*
G02*
X368721875Y-105568750I1215625J0D01*
G01*
X427459375Y-145256250D02*
G75*
G02*
X425028125Y-145256250I-1215625J0D01*
G01*
X425028125Y-145256250D02*
G75*
G02*
X427459375Y-145256250I1215625J0D01*
G01*
X113134375Y-105568750D02*
G75*
G02*
X110703125Y-105568750I-1215625J0D01*
G01*
X110703125Y-105568750D02*
G75*
G02*
X113134375Y-105568750I1215625J0D01*
G01*
D12*
X425272321Y-55189978D02*
X425200893Y-55154264D01*
X425200893Y-55154264D02*
X425093750Y-55154264D01*
X425093750Y-55154264D02*
X424986607Y-55189978D01*
X424986607Y-55189978D02*
X424915178Y-55261407D01*
X424915178Y-55261407D02*
X424879464Y-55332835D01*
X424879464Y-55332835D02*
X424843750Y-55475692D01*
X424843750Y-55475692D02*
X424843750Y-55582835D01*
X424843750Y-55582835D02*
X424879464Y-55725692D01*
X424879464Y-55725692D02*
X424915178Y-55797121D01*
X424915178Y-55797121D02*
X424986607Y-55868550D01*
X424986607Y-55868550D02*
X425093750Y-55904264D01*
X425093750Y-55904264D02*
X425165178Y-55904264D01*
X425165178Y-55904264D02*
X425272321Y-55868550D01*
X425272321Y-55868550D02*
X425308035Y-55832835D01*
X425308035Y-55832835D02*
X425308035Y-55582835D01*
X425308035Y-55582835D02*
X425165178Y-55582835D01*
X425629464Y-55904264D02*
X425629464Y-55154264D01*
X425629464Y-55154264D02*
X426058035Y-55904264D01*
X426058035Y-55904264D02*
X426058035Y-55154264D01*
X426415178Y-55904264D02*
X426415178Y-55154264D01*
X426415178Y-55154264D02*
X426593749Y-55154264D01*
X426593749Y-55154264D02*
X426700892Y-55189978D01*
X426700892Y-55189978D02*
X426772321Y-55261407D01*
X426772321Y-55261407D02*
X426808035Y-55332835D01*
X426808035Y-55332835D02*
X426843749Y-55475692D01*
X426843749Y-55475692D02*
X426843749Y-55582835D01*
X426843749Y-55582835D02*
X426808035Y-55725692D01*
X426808035Y-55725692D02*
X426772321Y-55797121D01*
X426772321Y-55797121D02*
X426700892Y-55868550D01*
X426700892Y-55868550D02*
X426593749Y-55904264D01*
X426593749Y-55904264D02*
X426415178Y-55904264D01*
X424950892Y-52773014D02*
X425415178Y-52773014D01*
X425415178Y-52773014D02*
X425165178Y-53058728D01*
X425165178Y-53058728D02*
X425272321Y-53058728D01*
X425272321Y-53058728D02*
X425343750Y-53094442D01*
X425343750Y-53094442D02*
X425379464Y-53130157D01*
X425379464Y-53130157D02*
X425415178Y-53201585D01*
X425415178Y-53201585D02*
X425415178Y-53380157D01*
X425415178Y-53380157D02*
X425379464Y-53451585D01*
X425379464Y-53451585D02*
X425343750Y-53487300D01*
X425343750Y-53487300D02*
X425272321Y-53523014D01*
X425272321Y-53523014D02*
X425058035Y-53523014D01*
X425058035Y-53523014D02*
X424986607Y-53487300D01*
X424986607Y-53487300D02*
X424950892Y-53451585D01*
X425665178Y-53023014D02*
X425843750Y-53523014D01*
X425843750Y-53523014D02*
X426022321Y-53023014D01*
X426236607Y-52773014D02*
X426700893Y-52773014D01*
X426700893Y-52773014D02*
X426450893Y-53058728D01*
X426450893Y-53058728D02*
X426558036Y-53058728D01*
X426558036Y-53058728D02*
X426629465Y-53094442D01*
X426629465Y-53094442D02*
X426665179Y-53130157D01*
X426665179Y-53130157D02*
X426700893Y-53201585D01*
X426700893Y-53201585D02*
X426700893Y-53380157D01*
X426700893Y-53380157D02*
X426665179Y-53451585D01*
X426665179Y-53451585D02*
X426629465Y-53487300D01*
X426629465Y-53487300D02*
X426558036Y-53523014D01*
X426558036Y-53523014D02*
X426343750Y-53523014D01*
X426343750Y-53523014D02*
X426272322Y-53487300D01*
X426272322Y-53487300D02*
X426236607Y-53451585D01*
X425397321Y-45714085D02*
X425361607Y-45749800D01*
X425361607Y-45749800D02*
X425254464Y-45785514D01*
X425254464Y-45785514D02*
X425183036Y-45785514D01*
X425183036Y-45785514D02*
X425075893Y-45749800D01*
X425075893Y-45749800D02*
X425004464Y-45678371D01*
X425004464Y-45678371D02*
X424968750Y-45606942D01*
X424968750Y-45606942D02*
X424933036Y-45464085D01*
X424933036Y-45464085D02*
X424933036Y-45356942D01*
X424933036Y-45356942D02*
X424968750Y-45214085D01*
X424968750Y-45214085D02*
X425004464Y-45142657D01*
X425004464Y-45142657D02*
X425075893Y-45071228D01*
X425075893Y-45071228D02*
X425183036Y-45035514D01*
X425183036Y-45035514D02*
X425254464Y-45035514D01*
X425254464Y-45035514D02*
X425361607Y-45071228D01*
X425361607Y-45071228D02*
X425397321Y-45106942D01*
X426075893Y-45785514D02*
X425718750Y-45785514D01*
X425718750Y-45785514D02*
X425718750Y-45035514D01*
X426325893Y-45785514D02*
X426325893Y-45035514D01*
X426754464Y-45785514D02*
X426433036Y-45356942D01*
X426754464Y-45035514D02*
X426325893Y-45464085D01*
X425694643Y-59916764D02*
X425337500Y-59916764D01*
X425337500Y-59916764D02*
X425301786Y-60273907D01*
X425301786Y-60273907D02*
X425337500Y-60238192D01*
X425337500Y-60238192D02*
X425408929Y-60202478D01*
X425408929Y-60202478D02*
X425587500Y-60202478D01*
X425587500Y-60202478D02*
X425658929Y-60238192D01*
X425658929Y-60238192D02*
X425694643Y-60273907D01*
X425694643Y-60273907D02*
X425730357Y-60345335D01*
X425730357Y-60345335D02*
X425730357Y-60523907D01*
X425730357Y-60523907D02*
X425694643Y-60595335D01*
X425694643Y-60595335D02*
X425658929Y-60631050D01*
X425658929Y-60631050D02*
X425587500Y-60666764D01*
X425587500Y-60666764D02*
X425408929Y-60666764D01*
X425408929Y-60666764D02*
X425337500Y-60631050D01*
X425337500Y-60631050D02*
X425301786Y-60595335D01*
X425944643Y-59916764D02*
X426194643Y-60666764D01*
X426194643Y-60666764D02*
X426444643Y-59916764D01*
X425433035Y-50941764D02*
X425183035Y-50584621D01*
X425004464Y-50941764D02*
X425004464Y-50191764D01*
X425004464Y-50191764D02*
X425290178Y-50191764D01*
X425290178Y-50191764D02*
X425361607Y-50227478D01*
X425361607Y-50227478D02*
X425397321Y-50263192D01*
X425397321Y-50263192D02*
X425433035Y-50334621D01*
X425433035Y-50334621D02*
X425433035Y-50441764D01*
X425433035Y-50441764D02*
X425397321Y-50513192D01*
X425397321Y-50513192D02*
X425361607Y-50548907D01*
X425361607Y-50548907D02*
X425290178Y-50584621D01*
X425290178Y-50584621D02*
X425004464Y-50584621D01*
X425718750Y-50906050D02*
X425825893Y-50941764D01*
X425825893Y-50941764D02*
X426004464Y-50941764D01*
X426004464Y-50941764D02*
X426075893Y-50906050D01*
X426075893Y-50906050D02*
X426111607Y-50870335D01*
X426111607Y-50870335D02*
X426147321Y-50798907D01*
X426147321Y-50798907D02*
X426147321Y-50727478D01*
X426147321Y-50727478D02*
X426111607Y-50656050D01*
X426111607Y-50656050D02*
X426075893Y-50620335D01*
X426075893Y-50620335D02*
X426004464Y-50584621D01*
X426004464Y-50584621D02*
X425861607Y-50548907D01*
X425861607Y-50548907D02*
X425790178Y-50513192D01*
X425790178Y-50513192D02*
X425754464Y-50477478D01*
X425754464Y-50477478D02*
X425718750Y-50406050D01*
X425718750Y-50406050D02*
X425718750Y-50334621D01*
X425718750Y-50334621D02*
X425754464Y-50263192D01*
X425754464Y-50263192D02*
X425790178Y-50227478D01*
X425790178Y-50227478D02*
X425861607Y-50191764D01*
X425861607Y-50191764D02*
X426040178Y-50191764D01*
X426040178Y-50191764D02*
X426147321Y-50227478D01*
X426361607Y-50191764D02*
X426790179Y-50191764D01*
X426575893Y-50941764D02*
X426575893Y-50191764D01*
D13*
G36*
X147349306Y-119302166D02*
G01*
X147208216Y-119632992D01*
X147079868Y-119959973D01*
X146964263Y-120283106D01*
X146845496Y-120655233D01*
X146744072Y-121022124D01*
X146661466Y-121381722D01*
X146599149Y-121733466D01*
X146557121Y-122077356D01*
X146533933Y-122460756D01*
X146532070Y-122601886D01*
X146532070Y-122690791D01*
X146532070Y-122788244D01*
X146521811Y-122892535D01*
X146521811Y-122986569D01*
X146526940Y-123256701D01*
X146550876Y-123518286D01*
X146601633Y-123882699D01*
X146679104Y-124251453D01*
X146771668Y-124587043D01*
X146807331Y-124699688D01*
X146929693Y-125044280D01*
X147058215Y-125362391D01*
X147205329Y-125691615D01*
X147349306Y-125988802D01*
X146590199Y-126590616D01*
X146516682Y-126506841D01*
X146453423Y-126433324D01*
X146224764Y-126170182D01*
X146073870Y-125969995D01*
X145876179Y-125678779D01*
X145733640Y-125448537D01*
X145548992Y-125142928D01*
X145388280Y-124838174D01*
X145247751Y-124522013D01*
X145172858Y-124315006D01*
X145079332Y-123966147D01*
X145015566Y-123685836D01*
X144953519Y-123336944D01*
X144916403Y-123025892D01*
X144901016Y-122808760D01*
X144897596Y-122591628D01*
X144901016Y-122381335D01*
X144916403Y-122167623D01*
X144963901Y-121825509D01*
X145037578Y-121487322D01*
X145063437Y-121391419D01*
X145172270Y-121062348D01*
X145317929Y-120726477D01*
X145350667Y-120661377D01*
X145442991Y-120469891D01*
X145537024Y-120278404D01*
X145713856Y-119966132D01*
X145908183Y-119654424D01*
X146003772Y-119510749D01*
X146208856Y-119227767D01*
X146431732Y-118955844D01*
X146590199Y-118780707D01*
X147349306Y-119302166D01*
G37*
G36*
X148291351Y-118686674D02*
G01*
X150813158Y-118686674D01*
X150813158Y-119857818D01*
X150649027Y-119989465D01*
X150596026Y-120179242D01*
X150596026Y-120199758D01*
X150596026Y-120218565D01*
X150596026Y-120244210D01*
X150596026Y-120276694D01*
X150609704Y-120355341D01*
X150625091Y-120433987D01*
X150635349Y-120533149D01*
X150645608Y-120611796D01*
X151049097Y-123084022D01*
X151403005Y-120611796D01*
X151408134Y-120533149D01*
X151423521Y-120433987D01*
X151437199Y-120355341D01*
X151442328Y-120276694D01*
X151442328Y-120244210D01*
X151442328Y-120218565D01*
X151442328Y-120199758D01*
X151442328Y-120179242D01*
X151387617Y-119989465D01*
X151225196Y-119857818D01*
X151225196Y-118686674D01*
X153451225Y-118686674D01*
X153451225Y-119859528D01*
X153271778Y-120151187D01*
X153268287Y-120162145D01*
X153178154Y-120500425D01*
X153165705Y-120553666D01*
X152288629Y-125142501D01*
X149512077Y-125142501D01*
X148645259Y-120789604D01*
X148585332Y-120440625D01*
X148517031Y-120218565D01*
X148341480Y-119912348D01*
X148291351Y-119861237D01*
X148291351Y-118686674D01*
G37*
G36*
X156161848Y-120345403D02*
G01*
X156526548Y-120397656D01*
X156872228Y-120484744D01*
X157198887Y-120606667D01*
X157506333Y-120805079D01*
X157713160Y-121086798D01*
X157819368Y-121451826D01*
X157834896Y-121690616D01*
X157834896Y-123172926D01*
X155432767Y-123172926D01*
X155432767Y-123636255D01*
X155505784Y-123976642D01*
X155521672Y-123998711D01*
X155718287Y-124109842D01*
X155742223Y-124109842D01*
X155767869Y-124109842D01*
X155935419Y-124005550D01*
X156014065Y-123803805D01*
X156014065Y-123400316D01*
X157834896Y-123400316D01*
X157834896Y-124573170D01*
X157771637Y-124626171D01*
X157698120Y-124670623D01*
X157373041Y-124824576D01*
X157026346Y-124939767D01*
X156998852Y-124947595D01*
X156659771Y-125030301D01*
X156306745Y-125093774D01*
X156063647Y-125125404D01*
X155860192Y-125139081D01*
X155658448Y-125142501D01*
X155309228Y-125117296D01*
X154942828Y-125061453D01*
X154578181Y-124962772D01*
X154236926Y-124807306D01*
X154171009Y-124766367D01*
X153901431Y-124507875D01*
X153744177Y-124195005D01*
X153672289Y-123853091D01*
X153659809Y-123608900D01*
X153659809Y-122119751D01*
X155432767Y-122119751D01*
X156132035Y-122119751D01*
X156109131Y-121770735D01*
X156067066Y-121600002D01*
X155778127Y-121422193D01*
X155496026Y-121600002D01*
X155437771Y-121939702D01*
X155432767Y-122119751D01*
X153659809Y-122119751D01*
X153659809Y-121882103D01*
X153686152Y-121495390D01*
X153780773Y-121130369D01*
X153969478Y-120817815D01*
X154210332Y-120627183D01*
X154557613Y-120482551D01*
X154927843Y-120393727D01*
X155299304Y-120346685D01*
X155652991Y-120329154D01*
X155778127Y-120327985D01*
X156161848Y-120345403D01*
G37*
G36*
X158216159Y-120437406D02*
G01*
X160156668Y-120437406D01*
X160156668Y-120733184D01*
X160194282Y-120683603D01*
X160235314Y-120634022D01*
X160471253Y-120413470D01*
X160803923Y-120310808D01*
X160866194Y-120309179D01*
X160939711Y-120309179D01*
X161023486Y-120309179D01*
X161091874Y-120319437D01*
X161151714Y-120329695D01*
X161151714Y-121998362D01*
X161086745Y-121984685D01*
X161023486Y-121979556D01*
X160958518Y-121969297D01*
X160895259Y-121969297D01*
X160552385Y-122039983D01*
X160387478Y-122133429D01*
X160179208Y-122418100D01*
X160156668Y-122586499D01*
X160156668Y-123490930D01*
X160211973Y-123832570D01*
X160240444Y-123889290D01*
X160452446Y-124077357D01*
X160452446Y-125142501D01*
X158216159Y-125142501D01*
X158216159Y-124089325D01*
X158423033Y-123814064D01*
X158452097Y-123508027D01*
X158452097Y-122032556D01*
X158378580Y-121723101D01*
X158216159Y-121511098D01*
X158216159Y-120437406D01*
G37*
G36*
X161288490Y-120437406D02*
G01*
X163632488Y-120437406D01*
X163632488Y-121511098D01*
X163509390Y-121576066D01*
X163446131Y-121687197D01*
X163446131Y-121712842D01*
X163446131Y-121736778D01*
X163464938Y-121895780D01*
X163514519Y-122071879D01*
X163533326Y-122150526D01*
X163553842Y-122220623D01*
X163569229Y-122275334D01*
X163574358Y-122328334D01*
X163810297Y-123085731D01*
X163986396Y-122328334D01*
X163991525Y-122275334D01*
X164006913Y-122220623D01*
X164022300Y-122155655D01*
X164035977Y-122092396D01*
X164075301Y-121904329D01*
X164095817Y-121736778D01*
X164095817Y-121712842D01*
X164095817Y-121687197D01*
X164046236Y-121576066D01*
X163928266Y-121511098D01*
X163928266Y-120437406D01*
X165926906Y-120437406D01*
X165926906Y-121500840D01*
X165725161Y-121776101D01*
X165606978Y-122104845D01*
X165591804Y-122155655D01*
X165591804Y-122176171D01*
X165581546Y-122184720D01*
X165552481Y-122302689D01*
X165513158Y-122418949D01*
X164567694Y-125328858D01*
X164461706Y-125662750D01*
X164454854Y-125682766D01*
X164350562Y-125976834D01*
X164198000Y-126290076D01*
X164051365Y-126486325D01*
X163771919Y-126690106D01*
X163572649Y-126780393D01*
X163346968Y-126847071D01*
X163080255Y-126882975D01*
X162982802Y-126893233D01*
X162883640Y-126893233D01*
X162823800Y-126893233D01*
X162775929Y-126893233D01*
X162427776Y-126847928D01*
X162367310Y-126833394D01*
X162047596Y-126735941D01*
X162047596Y-125646862D01*
X162389982Y-125583448D01*
X162548538Y-125481021D01*
X162735163Y-125188182D01*
X162746864Y-125142501D01*
X161869788Y-122711307D01*
X161757789Y-122376700D01*
X161736431Y-122307818D01*
X161623591Y-121979556D01*
X161485105Y-121687197D01*
X161298748Y-121500840D01*
X161288490Y-120437406D01*
G37*
G36*
X170620032Y-118686674D02*
G01*
X175318287Y-118686674D01*
X175318287Y-120984510D01*
X173553877Y-120984510D01*
X173553877Y-120604957D01*
X173441304Y-120275466D01*
X173406843Y-120256178D01*
X173082000Y-120170693D01*
X173066612Y-120162145D01*
X173061483Y-120162145D01*
X172987966Y-120157016D01*
X172914449Y-120141628D01*
X172914449Y-121276869D01*
X174155691Y-121276869D01*
X174155691Y-122516401D01*
X172914449Y-122516401D01*
X172914449Y-123364413D01*
X172938385Y-123675578D01*
X173092258Y-123954259D01*
X173092258Y-125142501D01*
X170679871Y-125142501D01*
X170679871Y-123983324D01*
X170866229Y-123764482D01*
X170915810Y-123466995D01*
X170915810Y-120437406D01*
X170842002Y-120095593D01*
X170837164Y-120088628D01*
X170620032Y-119936464D01*
X170620032Y-118686674D01*
G37*
G36*
X175448224Y-120437406D02*
G01*
X177339153Y-120437406D01*
X177462251Y-120688732D01*
X177506703Y-121028962D01*
X177506703Y-123027602D01*
X177521236Y-123384074D01*
X177564833Y-123687546D01*
X177778604Y-123960388D01*
X177812739Y-123962808D01*
X177915321Y-123938872D01*
X178048678Y-123873903D01*
X178072614Y-123868774D01*
X178098259Y-123855096D01*
X178098259Y-121914587D01*
X178053807Y-121654713D01*
X177901644Y-121482033D01*
X177881127Y-121466646D01*
X177862321Y-121451258D01*
X177862321Y-120437406D01*
X179920799Y-120437406D01*
X179920799Y-123508027D01*
X179965726Y-123854913D01*
X179968671Y-123863645D01*
X180146480Y-124089325D01*
X180146480Y-125142501D01*
X178098259Y-125142501D01*
X178098259Y-124906562D01*
X178048678Y-124945885D01*
X177970032Y-124995466D01*
X177646899Y-125108600D01*
X177587059Y-125123694D01*
X177233737Y-125174955D01*
X177024568Y-125181824D01*
X176666706Y-125160025D01*
X176306834Y-125071468D01*
X176003256Y-124875280D01*
X175966264Y-124833045D01*
X175795400Y-124514399D01*
X175713255Y-124163644D01*
X175686147Y-123781726D01*
X175685873Y-123735417D01*
X175685873Y-121972717D01*
X175641421Y-121658132D01*
X175478999Y-121471775D01*
X175463612Y-121456387D01*
X175448224Y-121451258D01*
X175448224Y-120437406D01*
G37*
G36*
X180602970Y-123625997D02*
G01*
X180602970Y-121974427D01*
X180628188Y-121612504D01*
X180716845Y-121263841D01*
X180890219Y-120949082D01*
X181006459Y-120820379D01*
X181295767Y-120635251D01*
X181657609Y-120521556D01*
X182055039Y-120461342D01*
X182455730Y-120438902D01*
X182601609Y-120437406D01*
X182654610Y-120437406D01*
X182709320Y-120437406D01*
X183068791Y-120452600D01*
X183420582Y-120487495D01*
X183764692Y-120542092D01*
X183832593Y-120555376D01*
X184174897Y-120654441D01*
X184479197Y-120816890D01*
X184660088Y-120975962D01*
X184660088Y-122181300D01*
X183015356Y-122181300D01*
X183015356Y-121885522D01*
X182981162Y-121565808D01*
X182719578Y-121422193D01*
X182434058Y-121577776D01*
X182366739Y-121928211D01*
X182365670Y-121991524D01*
X182365670Y-123441349D01*
X182387790Y-123783716D01*
X182404993Y-123882452D01*
X182661448Y-124070519D01*
X182950388Y-123911517D01*
X183014341Y-123560894D01*
X183015356Y-123499479D01*
X183015356Y-123084022D01*
X184660088Y-123084022D01*
X184660088Y-124523589D01*
X184373579Y-124741042D01*
X184162565Y-124848432D01*
X183838991Y-124971532D01*
X183547073Y-125055306D01*
X183198037Y-125107356D01*
X183102551Y-125118565D01*
X182754360Y-125142127D01*
X182709320Y-125142501D01*
X182483640Y-125152759D01*
X182350283Y-125133952D01*
X182216926Y-125123694D01*
X181850877Y-125066893D01*
X181502860Y-124967016D01*
X181172874Y-124824062D01*
X181109041Y-124790302D01*
X180842167Y-124557589D01*
X180686491Y-124246222D01*
X180615325Y-123888387D01*
X180602970Y-123625997D01*
G37*
G36*
X185109739Y-118686674D02*
G01*
X187168217Y-118686674D01*
X187168217Y-121736778D01*
X187415431Y-121490892D01*
X187580255Y-121264901D01*
X187688046Y-120930307D01*
X187689676Y-120909283D01*
X187699934Y-120827218D01*
X187699934Y-120733184D01*
X187699934Y-120437406D01*
X189698573Y-120437406D01*
X189698573Y-121451258D01*
X189536152Y-121545292D01*
X189394247Y-121676939D01*
X189339536Y-121736778D01*
X189284826Y-121796618D01*
X188823207Y-122436046D01*
X189402795Y-123675578D01*
X189491700Y-123829451D01*
X189609669Y-123942291D01*
X189683186Y-123991872D01*
X189748155Y-124029486D01*
X189748155Y-125142501D01*
X188103423Y-125142501D01*
X187168217Y-123084022D01*
X187168217Y-123615738D01*
X187221218Y-123843129D01*
X187404156Y-124029486D01*
X187404156Y-125142501D01*
X185109739Y-125142501D01*
X185109739Y-124029486D01*
X185316612Y-123803805D01*
X185345677Y-123449898D01*
X185345677Y-120437406D01*
X185340548Y-120295501D01*
X185326871Y-120133080D01*
X185256773Y-119926206D01*
X185109739Y-119779172D01*
X185109739Y-118686674D01*
G37*
G36*
X190165321Y-120437406D02*
G01*
X192163961Y-120437406D01*
X192163961Y-123508027D01*
X192204681Y-123848221D01*
X192213542Y-123877323D01*
X192389641Y-124029486D01*
X192389641Y-125142501D01*
X190165321Y-125142501D01*
X190165321Y-124089325D01*
X190307227Y-123950840D01*
X190341421Y-123764482D01*
X190341421Y-122032556D01*
X190312356Y-121765843D01*
X190223451Y-121618809D01*
X190194386Y-121594873D01*
X190165321Y-121569228D01*
X190165321Y-120437406D01*
G37*
G36*
X190223451Y-119355166D02*
G01*
X190297277Y-119018422D01*
X190485035Y-118804643D01*
X190799333Y-118644218D01*
X191071462Y-118587511D01*
X191134721Y-118577253D01*
X191208238Y-118577253D01*
X191223626Y-118577253D01*
X191239013Y-118577253D01*
X191589183Y-118637852D01*
X191873312Y-118773868D01*
X192100097Y-119030741D01*
X192163961Y-119355166D01*
X192096716Y-119694218D01*
X191857924Y-119960400D01*
X191530944Y-120104015D01*
X191183252Y-120151699D01*
X191158657Y-120151886D01*
X190816675Y-120100044D01*
X190510693Y-119930464D01*
X190493584Y-119915948D01*
X190282807Y-119639320D01*
X190223451Y-119355166D01*
G37*
G36*
X192791421Y-120437406D02*
G01*
X194849899Y-120437406D01*
X194849899Y-120615215D01*
X194928545Y-120567343D01*
X194996933Y-120516052D01*
X195326184Y-120389161D01*
X195521811Y-120355341D01*
X195865327Y-120332200D01*
X196010786Y-120329695D01*
X196361979Y-120354746D01*
X196709609Y-120459091D01*
X196841700Y-120541698D01*
X197092885Y-120790479D01*
X197212705Y-120998188D01*
X197296480Y-121319611D01*
X197311867Y-121569228D01*
X197311867Y-123449898D01*
X197346856Y-123794402D01*
X197364868Y-123853387D01*
X197547806Y-124089325D01*
X197547806Y-125142501D01*
X195547457Y-125142501D01*
X195523857Y-124798029D01*
X195504821Y-124451354D01*
X195497876Y-124270554D01*
X195490963Y-123912438D01*
X195489327Y-123665320D01*
X195489327Y-122186429D01*
X195489327Y-122171042D01*
X195489327Y-122157364D01*
X195387446Y-121825576D01*
X195374777Y-121805166D01*
X195096096Y-121641035D01*
X194976417Y-121661551D01*
X194849899Y-121711133D01*
X194849899Y-123496059D01*
X194897771Y-123798676D01*
X195075580Y-124020937D01*
X195075580Y-125142501D01*
X192791421Y-125142501D01*
X192791421Y-124029486D01*
X192982907Y-123803805D01*
X193017101Y-123499479D01*
X193017101Y-123473833D01*
X193017101Y-123449898D01*
X193017101Y-122032556D01*
X192972649Y-121731649D01*
X192791421Y-121569228D01*
X192791421Y-120437406D01*
G37*
G36*
X199843933Y-120408341D02*
G01*
X200175621Y-120493192D01*
X200197841Y-120502375D01*
X200490590Y-120686076D01*
X200543200Y-120733184D01*
X200543200Y-120437406D01*
X202541839Y-120437406D01*
X202541839Y-121488872D01*
X202358901Y-121695745D01*
X202305901Y-122000072D01*
X202305901Y-125210888D01*
X202288229Y-125606450D01*
X202222943Y-125993338D01*
X202089427Y-126337122D01*
X201864117Y-126598450D01*
X201803249Y-126638488D01*
X201486292Y-126784577D01*
X201147103Y-126880374D01*
X200805960Y-126937899D01*
X200423419Y-126970881D01*
X200365391Y-126973589D01*
X200179034Y-126983847D01*
X199867869Y-126958202D01*
X199537896Y-126915459D01*
X199182412Y-126833227D01*
X198840018Y-126724160D01*
X198744596Y-126688069D01*
X198416761Y-126535906D01*
X198188943Y-126373484D01*
X198188943Y-125270728D01*
X199893514Y-125270728D01*
X199928075Y-125620749D01*
X199932837Y-125640023D01*
X200187582Y-125793896D01*
X200478231Y-125684475D01*
X200543200Y-125409214D01*
X200543200Y-124807399D01*
X200241672Y-124979361D01*
X200098678Y-125039919D01*
X199749028Y-125125570D01*
X199469508Y-125142501D01*
X199108313Y-125114641D01*
X198768844Y-125018337D01*
X198470636Y-124832951D01*
X198424882Y-124790302D01*
X198209219Y-124491532D01*
X198098969Y-124156832D01*
X198070974Y-123839709D01*
X198070974Y-122131719D01*
X199893514Y-122131719D01*
X199893514Y-123191733D01*
X199911367Y-123540483D01*
X199956773Y-123757644D01*
X200218357Y-123942291D01*
X200315810Y-123926904D01*
X200433779Y-123892710D01*
X200449167Y-123887581D01*
X200464554Y-123882452D01*
X200502167Y-123872193D01*
X200543200Y-123861935D01*
X200543200Y-121711133D01*
X200478231Y-121690616D01*
X200414973Y-121671810D01*
X200320939Y-121646164D01*
X200247422Y-121641035D01*
X199990967Y-121760714D01*
X199893895Y-122100817D01*
X199893514Y-122131719D01*
X198070974Y-122131719D01*
X198070974Y-121998362D01*
X198089637Y-121626573D01*
X198154151Y-121257251D01*
X198278342Y-120904221D01*
X198306913Y-120846025D01*
X198543668Y-120585155D01*
X198888279Y-120441968D01*
X199252685Y-120391852D01*
X199409669Y-120387825D01*
X199626801Y-120387825D01*
X199843933Y-120408341D01*
G37*
G36*
X210762077Y-118696932D02*
G01*
X211071532Y-118727706D01*
X211418414Y-118808650D01*
X211745261Y-118951036D01*
X212052072Y-119154864D01*
X212111030Y-119203003D01*
X212337482Y-119473693D01*
X212476555Y-119797414D01*
X212550209Y-120144834D01*
X212577658Y-120490287D01*
X212579488Y-120615215D01*
X212579488Y-123143861D01*
X212579488Y-123278928D01*
X212569229Y-123410574D01*
X212518169Y-123767503D01*
X212409225Y-124107391D01*
X212242399Y-124430239D01*
X212124707Y-124602235D01*
X211873168Y-124838601D01*
X211522038Y-125007434D01*
X211133105Y-125099765D01*
X210739046Y-125137752D01*
X210521009Y-125142501D01*
X207467485Y-125142501D01*
X207467485Y-123971356D01*
X207671600Y-123795257D01*
X209821742Y-123795257D01*
X209864484Y-123800386D01*
X209919194Y-123805515D01*
X209963647Y-123820902D01*
X210008099Y-123824322D01*
X210342192Y-123713125D01*
X210362007Y-123697804D01*
X210513400Y-123382662D01*
X210521009Y-123253282D01*
X210521009Y-120615215D01*
X210420991Y-120284068D01*
X210343200Y-120230533D01*
X210001926Y-120158107D01*
X209821742Y-120151886D01*
X209821742Y-123795257D01*
X207671600Y-123795257D01*
X207729069Y-123745676D01*
X207763229Y-123403552D01*
X207763263Y-123390058D01*
X207763263Y-120437406D01*
X207758134Y-120341663D01*
X207734198Y-120225404D01*
X207643584Y-120023659D01*
X207467485Y-119900561D01*
X207467485Y-118686674D01*
X210461169Y-118686674D01*
X210762077Y-118696932D01*
G37*
G36*
X212788071Y-120437406D02*
G01*
X214678999Y-120437406D01*
X214802097Y-120688732D01*
X214846550Y-121028962D01*
X214846550Y-123027602D01*
X214861082Y-123384074D01*
X214904679Y-123687546D01*
X215118450Y-123960388D01*
X215152586Y-123962808D01*
X215255168Y-123938872D01*
X215388525Y-123873903D01*
X215412460Y-123868774D01*
X215438106Y-123855096D01*
X215438106Y-121914587D01*
X215393654Y-121654713D01*
X215241490Y-121482033D01*
X215220974Y-121466646D01*
X215202167Y-121451258D01*
X215202167Y-120437406D01*
X217260646Y-120437406D01*
X217260646Y-123508027D01*
X217305572Y-123854913D01*
X217308518Y-123863645D01*
X217486326Y-124089325D01*
X217486326Y-125142501D01*
X215438106Y-125142501D01*
X215438106Y-124906562D01*
X215388525Y-124945885D01*
X215309878Y-124995466D01*
X214986745Y-125108600D01*
X214926906Y-125123694D01*
X214573584Y-125174955D01*
X214364414Y-125181824D01*
X214006553Y-125160025D01*
X213646681Y-125071468D01*
X213343102Y-124875280D01*
X213306110Y-124833045D01*
X213135247Y-124514399D01*
X213053101Y-124163644D01*
X213025993Y-123781726D01*
X213025719Y-123735417D01*
X213025719Y-121972717D01*
X212981267Y-121658132D01*
X212818846Y-121471775D01*
X212803458Y-121456387D01*
X212788071Y-121451258D01*
X212788071Y-120437406D01*
G37*
G36*
X217882977Y-120437406D02*
G01*
X219881616Y-120437406D01*
X219881616Y-120673345D01*
X220018392Y-120565634D01*
X220156878Y-120476729D01*
X220480326Y-120336350D01*
X220541560Y-120319437D01*
X220885295Y-120272228D01*
X220994631Y-120269856D01*
X221342782Y-120290172D01*
X221408378Y-120300630D01*
X221733221Y-120437406D01*
X221890513Y-120560505D01*
X222058064Y-120733184D01*
X222076871Y-120717797D01*
X222097387Y-120704119D01*
X222395095Y-120526444D01*
X222639362Y-120403212D01*
X222984706Y-120299158D01*
X223332149Y-120269986D01*
X223359146Y-120269856D01*
X223716580Y-120298239D01*
X224054219Y-120395028D01*
X224333675Y-120560505D01*
X224555588Y-120838598D01*
X224669035Y-121199121D01*
X224697841Y-121569228D01*
X224697841Y-123449898D01*
X224730190Y-123794718D01*
X224750841Y-123872193D01*
X224933779Y-124089325D01*
X224933779Y-125142501D01*
X222994980Y-125142501D01*
X222966135Y-124779583D01*
X222946794Y-124424927D01*
X222945398Y-124385103D01*
X222936583Y-124029940D01*
X222935140Y-123853387D01*
X222935140Y-122123170D01*
X222930011Y-122039395D01*
X222916333Y-121945362D01*
X222817171Y-121735069D01*
X222570974Y-121641035D01*
X222442746Y-121651293D01*
X222295712Y-121680358D01*
X222295712Y-123569577D01*
X222343584Y-123868774D01*
X222521393Y-124089325D01*
X222521393Y-125142501D01*
X220580883Y-125142501D01*
X220552039Y-124779583D01*
X220532698Y-124424927D01*
X220531302Y-124385103D01*
X220522486Y-124029139D01*
X220521044Y-123853387D01*
X220521044Y-122208655D01*
X220521044Y-122095815D01*
X220502237Y-121972717D01*
X220408204Y-121726520D01*
X220156878Y-121617099D01*
X220033779Y-121637616D01*
X219881616Y-121676939D01*
X219881616Y-123567867D01*
X219936326Y-123911517D01*
X220119264Y-124089325D01*
X220119264Y-125142501D01*
X217882977Y-125142501D01*
X217882977Y-124089325D01*
X218089850Y-123814064D01*
X218118915Y-123508027D01*
X218118915Y-122208655D01*
X218079412Y-121867884D01*
X218059076Y-121796618D01*
X217824847Y-121569228D01*
X217882977Y-120437406D01*
G37*
G36*
X227258971Y-120663087D02*
G01*
X227580249Y-120536696D01*
X227691525Y-120505794D01*
X228035370Y-120448693D01*
X228301888Y-120437406D01*
X228469439Y-120437406D01*
X228821624Y-120472963D01*
X229143154Y-120592855D01*
X229341386Y-120738313D01*
X229536211Y-121020975D01*
X229635810Y-121380194D01*
X229661100Y-121745327D01*
X229661100Y-123624287D01*
X229635656Y-123966938D01*
X229528170Y-124332958D01*
X229310083Y-124641305D01*
X229129383Y-124776625D01*
X228822448Y-124929867D01*
X228463011Y-125051282D01*
X228122957Y-125116588D01*
X227966787Y-125132242D01*
X227814624Y-125137371D01*
X227662460Y-125142501D01*
X227494910Y-125142501D01*
X227327359Y-125132242D01*
X226970569Y-125101160D01*
X226605879Y-125038476D01*
X226434896Y-124998886D01*
X226080507Y-124879554D01*
X225766817Y-124729054D01*
X225470221Y-124553918D01*
X225436431Y-124532138D01*
X225436431Y-121740198D01*
X227258971Y-121740198D01*
X227258971Y-122497595D01*
X227258971Y-123856806D01*
X227282907Y-123872193D01*
X227308552Y-123877323D01*
X227460716Y-123926904D01*
X227573556Y-123945711D01*
X227819753Y-123793547D01*
X227895634Y-123444702D01*
X227898399Y-123335348D01*
X227898399Y-122094106D01*
X227815752Y-121758710D01*
X227804365Y-121745327D01*
X227594072Y-121641035D01*
X227474393Y-121661551D01*
X227327359Y-121711133D01*
X227293165Y-121721391D01*
X227258971Y-121740198D01*
X225436431Y-121740198D01*
X225436431Y-120437406D01*
X225398470Y-120094451D01*
X225386850Y-120057853D01*
X225200492Y-119874915D01*
X225200492Y-118686674D01*
X227258971Y-118686674D01*
X227258971Y-120663087D01*
G37*
G36*
X237535350Y-118695209D02*
G01*
X237893786Y-118720814D01*
X238235151Y-118763490D01*
X238611836Y-118834853D01*
X238965287Y-118929451D01*
X239270398Y-119084590D01*
X239500570Y-119337575D01*
X239655802Y-119688407D01*
X239729212Y-120066999D01*
X239748329Y-120437406D01*
X239719844Y-120801400D01*
X239623793Y-121154707D01*
X239507261Y-121389709D01*
X239256936Y-121659808D01*
X238929194Y-121818971D01*
X238695154Y-121871845D01*
X239059133Y-121954157D01*
X239374660Y-122123766D01*
X239601295Y-122376206D01*
X239763823Y-122708556D01*
X239851339Y-123064467D01*
X239868008Y-123314831D01*
X239868008Y-123487511D01*
X239816542Y-123851953D01*
X239706381Y-124187453D01*
X239537527Y-124494012D01*
X239418357Y-124651817D01*
X239116562Y-124889012D01*
X238782349Y-125019830D01*
X238426598Y-125094582D01*
X238081285Y-125130521D01*
X237691560Y-125142501D01*
X234697876Y-125142501D01*
X234697876Y-124000421D01*
X234952728Y-123770814D01*
X234953888Y-123766192D01*
X236932453Y-123766192D01*
X237286231Y-123742525D01*
X237558204Y-123658481D01*
X237737722Y-123351056D01*
X237749690Y-123184894D01*
X237749690Y-122998537D01*
X237671720Y-122657166D01*
X237542816Y-122501014D01*
X237212984Y-122410286D01*
X237120520Y-122406981D01*
X236932453Y-122406981D01*
X236932453Y-123766192D01*
X234953888Y-123766192D01*
X234957750Y-123750805D01*
X234991810Y-123402487D01*
X234991944Y-123376380D01*
X234991944Y-121225578D01*
X236932453Y-121225578D01*
X237280377Y-121213610D01*
X237537687Y-121177706D01*
X237749690Y-120919542D01*
X237749690Y-120782766D01*
X237664482Y-120448548D01*
X237517171Y-120295501D01*
X237178961Y-120212579D01*
X236932453Y-120201468D01*
X236932453Y-121225578D01*
X234991944Y-121225578D01*
X234991944Y-120782766D01*
X234991944Y-120698990D01*
X234991944Y-120615215D01*
X234928685Y-120280114D01*
X234697876Y-120083498D01*
X234697876Y-118686674D01*
X237159843Y-118686674D01*
X237535350Y-118695209D01*
G37*
G36*
X240389467Y-120437406D02*
G01*
X242388106Y-120437406D01*
X242388106Y-123508027D01*
X242428826Y-123848221D01*
X242437687Y-123877323D01*
X242613786Y-124029486D01*
X242613786Y-125142501D01*
X240389467Y-125142501D01*
X240389467Y-124089325D01*
X240531372Y-123950840D01*
X240565566Y-123764482D01*
X240565566Y-122032556D01*
X240536501Y-121765843D01*
X240447596Y-121618809D01*
X240418531Y-121594873D01*
X240389467Y-121569228D01*
X240389467Y-120437406D01*
G37*
G36*
X240447596Y-119355166D02*
G01*
X240521422Y-119018422D01*
X240709180Y-118804643D01*
X241023478Y-118644218D01*
X241295608Y-118587511D01*
X241358866Y-118577253D01*
X241432384Y-118577253D01*
X241447771Y-118577253D01*
X241463158Y-118577253D01*
X241813328Y-118637852D01*
X242097457Y-118773868D01*
X242324243Y-119030741D01*
X242388106Y-119355166D01*
X242320862Y-119694218D01*
X242082070Y-119960400D01*
X241755089Y-120104015D01*
X241407398Y-120151699D01*
X241382802Y-120151886D01*
X241040821Y-120100044D01*
X240734838Y-119930464D01*
X240717729Y-119915948D01*
X240506952Y-119639320D01*
X240447596Y-119355166D01*
G37*
G36*
X244856913Y-120408341D02*
G01*
X245188601Y-120493192D01*
X245210820Y-120502375D01*
X245503570Y-120686076D01*
X245556180Y-120733184D01*
X245556180Y-120437406D01*
X247554819Y-120437406D01*
X247554819Y-121488872D01*
X247371881Y-121695745D01*
X247318880Y-122000072D01*
X247318880Y-125210888D01*
X247301209Y-125606450D01*
X247235923Y-125993338D01*
X247102406Y-126337122D01*
X246877097Y-126598450D01*
X246816229Y-126638488D01*
X246499271Y-126784577D01*
X246160083Y-126880374D01*
X245818939Y-126937899D01*
X245436399Y-126970881D01*
X245378371Y-126973589D01*
X245192014Y-126983847D01*
X244880848Y-126958202D01*
X244550876Y-126915459D01*
X244195392Y-126833227D01*
X243852998Y-126724160D01*
X243757575Y-126688069D01*
X243429740Y-126535906D01*
X243201923Y-126373484D01*
X243201923Y-125270728D01*
X244906494Y-125270728D01*
X244941055Y-125620749D01*
X244945817Y-125640023D01*
X245200562Y-125793896D01*
X245491211Y-125684475D01*
X245556180Y-125409214D01*
X245556180Y-124807399D01*
X245254651Y-124979361D01*
X245111658Y-125039919D01*
X244762007Y-125125570D01*
X244482488Y-125142501D01*
X244121292Y-125114641D01*
X243781823Y-125018337D01*
X243483616Y-124832951D01*
X243437862Y-124790302D01*
X243222199Y-124491532D01*
X243111948Y-124156832D01*
X243083954Y-123839709D01*
X243083954Y-122131719D01*
X244906494Y-122131719D01*
X244906494Y-123191733D01*
X244924347Y-123540483D01*
X244969753Y-123757644D01*
X245231337Y-123942291D01*
X245328790Y-123926904D01*
X245446759Y-123892710D01*
X245462146Y-123887581D01*
X245477534Y-123882452D01*
X245515147Y-123872193D01*
X245556180Y-123861935D01*
X245556180Y-121711133D01*
X245491211Y-121690616D01*
X245427952Y-121671810D01*
X245333919Y-121646164D01*
X245260402Y-121641035D01*
X245003947Y-121760714D01*
X244906874Y-122100817D01*
X244906494Y-122131719D01*
X243083954Y-122131719D01*
X243083954Y-121998362D01*
X243102617Y-121626573D01*
X243167131Y-121257251D01*
X243291322Y-120904221D01*
X243319892Y-120846025D01*
X243556647Y-120585155D01*
X243901259Y-120441968D01*
X244265665Y-120391852D01*
X244422649Y-120387825D01*
X244639781Y-120387825D01*
X244856913Y-120408341D01*
G37*
G36*
X257238559Y-123378090D02*
G01*
X257348555Y-123710420D01*
X257375335Y-123764482D01*
X257592467Y-124022647D01*
X257592467Y-125142501D01*
X255070660Y-125142501D01*
X255070660Y-123991872D01*
X255267275Y-123708062D01*
X255298050Y-123391768D01*
X254303005Y-123391768D01*
X254332070Y-123708062D01*
X254538943Y-123991872D01*
X254538943Y-125142501D01*
X252362495Y-125142501D01*
X252362495Y-123962808D01*
X252415496Y-123908097D01*
X252461658Y-123853387D01*
X252579627Y-123641384D01*
X252658273Y-123318251D01*
X252864317Y-122150526D01*
X254479104Y-122150526D01*
X255070660Y-122150526D01*
X254774882Y-120437406D01*
X254479104Y-122150526D01*
X252864317Y-122150526D01*
X253475510Y-118686674D01*
X256361483Y-118686674D01*
X257238559Y-123378090D01*
G37*
G36*
X257949795Y-123272089D02*
G01*
X259662914Y-123272089D01*
X259662914Y-123617448D01*
X259765496Y-123926904D01*
X259998015Y-124039744D01*
X260011693Y-124039744D01*
X260027080Y-124039744D01*
X260051016Y-124039744D01*
X260076661Y-124039744D01*
X260273277Y-123937162D01*
X260362181Y-123725159D01*
X260362181Y-123617448D01*
X260155094Y-123343682D01*
X260027080Y-123282347D01*
X259693428Y-123176319D01*
X259416717Y-123114796D01*
X259297038Y-123090861D01*
X259180779Y-123065215D01*
X258845677Y-123001956D01*
X258589222Y-122907923D01*
X258278396Y-122727027D01*
X258035458Y-122460367D01*
X258023312Y-122441175D01*
X257877132Y-122121888D01*
X257821567Y-121786360D01*
X257821567Y-121762424D01*
X257821567Y-121736778D01*
X257826696Y-121653003D01*
X257831825Y-121569228D01*
X257911754Y-121232844D01*
X258072893Y-120910993D01*
X258302848Y-120634449D01*
X258589222Y-120437406D01*
X258924582Y-120325504D01*
X259076487Y-120290372D01*
X259418492Y-120237395D01*
X259662914Y-120221984D01*
X259760367Y-120211726D01*
X259859529Y-120211726D01*
X259912530Y-120211726D01*
X259958692Y-120211726D01*
X260263019Y-120237371D01*
X260529732Y-120269856D01*
X260849446Y-120343373D01*
X261174063Y-120452274D01*
X261268322Y-120492117D01*
X261582800Y-120646606D01*
X261641037Y-120681893D01*
X261908496Y-120908510D01*
X261947073Y-120957155D01*
X261947073Y-122112912D01*
X260302342Y-122112912D01*
X260302342Y-121817134D01*
X260203179Y-121547002D01*
X259987757Y-121432452D01*
X259953563Y-121422193D01*
X259919369Y-121422193D01*
X259702237Y-121495711D01*
X259603074Y-121692326D01*
X259744980Y-121996653D01*
X260067662Y-122132524D01*
X260145049Y-122153945D01*
X260247631Y-122184720D01*
X260362181Y-122212075D01*
X260377568Y-122212075D01*
X260382698Y-122212075D01*
X260627185Y-122261656D01*
X260893898Y-122318076D01*
X261221472Y-122428873D01*
X261533993Y-122590720D01*
X261620520Y-122646339D01*
X261875586Y-122909492D01*
X262019201Y-123232465D01*
X262065042Y-123427671D01*
X262070171Y-123499479D01*
X262075301Y-123581544D01*
X262075301Y-123673868D01*
X262075301Y-123754224D01*
X262036512Y-124107063D01*
X261900145Y-124436057D01*
X261665594Y-124693103D01*
X261454679Y-124824496D01*
X261136462Y-124959776D01*
X260802429Y-125057870D01*
X260452582Y-125118778D01*
X260086919Y-125142501D01*
X260071532Y-125142501D01*
X260056145Y-125142501D01*
X259977499Y-125142501D01*
X259898852Y-125142501D01*
X259549753Y-125113649D01*
X259435524Y-125098048D01*
X259094377Y-125041490D01*
X259002970Y-125024531D01*
X258809774Y-124980079D01*
X258609739Y-124906562D01*
X258392607Y-124803980D01*
X258195991Y-124699688D01*
X258042118Y-124586848D01*
X257949795Y-124492815D01*
X257949795Y-123272089D01*
G37*
G36*
X262545468Y-123272089D02*
G01*
X264258587Y-123272089D01*
X264258587Y-123617448D01*
X264361169Y-123926904D01*
X264593689Y-124039744D01*
X264607366Y-124039744D01*
X264622753Y-124039744D01*
X264646689Y-124039744D01*
X264672335Y-124039744D01*
X264868950Y-123937162D01*
X264957855Y-123725159D01*
X264957855Y-123617448D01*
X264750767Y-123343682D01*
X264622753Y-123282347D01*
X264289101Y-123176319D01*
X264012391Y-123114796D01*
X263892712Y-123090861D01*
X263776452Y-123065215D01*
X263441351Y-123001956D01*
X263184896Y-122907923D01*
X262874069Y-122727027D01*
X262631132Y-122460367D01*
X262618985Y-122441175D01*
X262472806Y-122121888D01*
X262417240Y-121786360D01*
X262417240Y-121762424D01*
X262417240Y-121736778D01*
X262422370Y-121653003D01*
X262427499Y-121569228D01*
X262507427Y-121232844D01*
X262668566Y-120910993D01*
X262898521Y-120634449D01*
X263184896Y-120437406D01*
X263520256Y-120325504D01*
X263672160Y-120290372D01*
X264014165Y-120237395D01*
X264258587Y-120221984D01*
X264356040Y-120211726D01*
X264455203Y-120211726D01*
X264508204Y-120211726D01*
X264554365Y-120211726D01*
X264858692Y-120237371D01*
X265125405Y-120269856D01*
X265445119Y-120343373D01*
X265769737Y-120452274D01*
X265863996Y-120492117D01*
X266178473Y-120646606D01*
X266236710Y-120681893D01*
X266504170Y-120908510D01*
X266542746Y-120957155D01*
X266542746Y-122112912D01*
X264898015Y-122112912D01*
X264898015Y-121817134D01*
X264798852Y-121547002D01*
X264583430Y-121432452D01*
X264549236Y-121422193D01*
X264515042Y-121422193D01*
X264297910Y-121495711D01*
X264198748Y-121692326D01*
X264340653Y-121996653D01*
X264663335Y-122132524D01*
X264740723Y-122153945D01*
X264843305Y-122184720D01*
X264957855Y-122212075D01*
X264973242Y-122212075D01*
X264978371Y-122212075D01*
X265222858Y-122261656D01*
X265489571Y-122318076D01*
X265817146Y-122428873D01*
X266129667Y-122590720D01*
X266216194Y-122646339D01*
X266471260Y-122909492D01*
X266614874Y-123232465D01*
X266660716Y-123427671D01*
X266665845Y-123499479D01*
X266670974Y-123581544D01*
X266670974Y-123673868D01*
X266670974Y-123754224D01*
X266632185Y-124107063D01*
X266495818Y-124436057D01*
X266261267Y-124693103D01*
X266050353Y-124824496D01*
X265732135Y-124959776D01*
X265398102Y-125057870D01*
X265048255Y-125118778D01*
X264682593Y-125142501D01*
X264667206Y-125142501D01*
X264651818Y-125142501D01*
X264573172Y-125142501D01*
X264494526Y-125142501D01*
X264145427Y-125113649D01*
X264031197Y-125098048D01*
X263690050Y-125041490D01*
X263598643Y-125024531D01*
X263405447Y-124980079D01*
X263205412Y-124906562D01*
X262988280Y-124803980D01*
X262791665Y-124699688D01*
X262637792Y-124586848D01*
X262545468Y-124492815D01*
X262545468Y-123272089D01*
G37*
G36*
X274546934Y-118695209D02*
G01*
X274905370Y-118720814D01*
X275246735Y-118763490D01*
X275623420Y-118834853D01*
X275976871Y-118929451D01*
X276281982Y-119084590D01*
X276512154Y-119337575D01*
X276667386Y-119688407D01*
X276740796Y-120066999D01*
X276759913Y-120437406D01*
X276731428Y-120801400D01*
X276635377Y-121154707D01*
X276518846Y-121389709D01*
X276268520Y-121659808D01*
X275940778Y-121818971D01*
X275706738Y-121871845D01*
X276070717Y-121954157D01*
X276386244Y-122123766D01*
X276612879Y-122376206D01*
X276775407Y-122708556D01*
X276862923Y-123064467D01*
X276879592Y-123314831D01*
X276879592Y-123487511D01*
X276828126Y-123851953D01*
X276717965Y-124187453D01*
X276549111Y-124494012D01*
X276429941Y-124651817D01*
X276128146Y-124889012D01*
X275793933Y-125019830D01*
X275438182Y-125094582D01*
X275092869Y-125130521D01*
X274703144Y-125142501D01*
X271709460Y-125142501D01*
X271709460Y-124000421D01*
X271964312Y-123770814D01*
X271965472Y-123766192D01*
X273944037Y-123766192D01*
X274297815Y-123742525D01*
X274569788Y-123658481D01*
X274749306Y-123351056D01*
X274761274Y-123184894D01*
X274761274Y-122998537D01*
X274683304Y-122657166D01*
X274554400Y-122501014D01*
X274224568Y-122410286D01*
X274132104Y-122406981D01*
X273944037Y-122406981D01*
X273944037Y-123766192D01*
X271965472Y-123766192D01*
X271969334Y-123750805D01*
X272003394Y-123402487D01*
X272003528Y-123376380D01*
X272003528Y-121225578D01*
X273944037Y-121225578D01*
X274291961Y-121213610D01*
X274549271Y-121177706D01*
X274761274Y-120919542D01*
X274761274Y-120782766D01*
X274676066Y-120448548D01*
X274528755Y-120295501D01*
X274190545Y-120212579D01*
X273944037Y-120201468D01*
X273944037Y-121225578D01*
X272003528Y-121225578D01*
X272003528Y-120782766D01*
X272003528Y-120698990D01*
X272003528Y-120615215D01*
X271940269Y-120280114D01*
X271709460Y-120083498D01*
X271709460Y-118686674D01*
X274171428Y-118686674D01*
X274546934Y-118695209D01*
G37*
G36*
X279795963Y-120445003D02*
G01*
X280176478Y-120474175D01*
X280554472Y-120535861D01*
X280899511Y-120642824D01*
X281097422Y-120748572D01*
X281339051Y-120995577D01*
X281480001Y-121309529D01*
X281544435Y-121661486D01*
X281555622Y-121916297D01*
X281555622Y-123624287D01*
X281536928Y-123967816D01*
X281467867Y-124305091D01*
X281304302Y-124638233D01*
X281023905Y-124875787D01*
X280683566Y-125004716D01*
X280311786Y-125083897D01*
X279933009Y-125125831D01*
X279568623Y-125141459D01*
X279439013Y-125142501D01*
X279059099Y-125131802D01*
X278716932Y-125099705D01*
X278365445Y-125035213D01*
X278026657Y-124925846D01*
X277848992Y-124838174D01*
X277571299Y-124577946D01*
X277409312Y-124225826D01*
X277340917Y-123874725D01*
X277322404Y-123519995D01*
X277322404Y-121916297D01*
X277324873Y-121883812D01*
X279093654Y-121883812D01*
X279093654Y-123646513D01*
X279176120Y-123980492D01*
X279201365Y-124012389D01*
X279439013Y-124130358D01*
X279683500Y-124012389D01*
X279792493Y-123676793D01*
X279792921Y-123646513D01*
X279792921Y-121825683D01*
X279683500Y-121526485D01*
X279439013Y-121422193D01*
X279201365Y-121535034D01*
X279093759Y-121869186D01*
X279093654Y-121883812D01*
X277324873Y-121883812D01*
X277351256Y-121536743D01*
X277452686Y-121183316D01*
X277651038Y-120881982D01*
X277784023Y-120767378D01*
X278102258Y-120607870D01*
X278481865Y-120509910D01*
X278826316Y-120463508D01*
X279221978Y-120440306D01*
X279439013Y-120437406D01*
X279795963Y-120445003D01*
G37*
G36*
X284506564Y-120333115D02*
G01*
X284713437Y-120348502D01*
X285062557Y-120420697D01*
X285393978Y-120538973D01*
X285707701Y-120703331D01*
X285768322Y-120741733D01*
X286022573Y-120973911D01*
X286182657Y-121277216D01*
X286248574Y-121651647D01*
X286250458Y-121735069D01*
X286250458Y-123615738D01*
X286300039Y-123877323D01*
X286418008Y-124020937D01*
X286452202Y-124055131D01*
X286486396Y-124089325D01*
X286486396Y-125142501D01*
X284547596Y-125142501D01*
X284547596Y-124788593D01*
X284492886Y-124824496D01*
X284439885Y-124856981D01*
X284374917Y-124903143D01*
X284311658Y-124956143D01*
X284003271Y-125118758D01*
X283921846Y-125152759D01*
X283577235Y-125229161D01*
X283306354Y-125241663D01*
X282959606Y-125205905D01*
X282610827Y-125085331D01*
X282369439Y-124939046D01*
X282128992Y-124673016D01*
X281984736Y-124330542D01*
X281920302Y-123987560D01*
X281907820Y-123843129D01*
X281927746Y-123665320D01*
X283728650Y-123665320D01*
X283802167Y-123902968D01*
X283966298Y-123971356D01*
X284029557Y-123966227D01*
X284094526Y-123950840D01*
X284221044Y-123892710D01*
X284330465Y-123822612D01*
X284393723Y-123769611D01*
X284427917Y-123725159D01*
X284427917Y-123183184D01*
X284320206Y-123208830D01*
X284084268Y-123290895D01*
X283836361Y-123444768D01*
X283728650Y-123665320D01*
X281927746Y-123665320D01*
X281946528Y-123497716D01*
X282089535Y-123161586D01*
X282183081Y-123039570D01*
X282435389Y-122800726D01*
X282731139Y-122612367D01*
X282793444Y-122583080D01*
X282966124Y-122519821D01*
X283128545Y-122473659D01*
X284429627Y-122066750D01*
X284429627Y-121829102D01*
X284390304Y-121567518D01*
X284191979Y-121422193D01*
X284113333Y-121422193D01*
X283867136Y-121605131D01*
X283792253Y-121946737D01*
X283788490Y-122063331D01*
X282143758Y-122063331D01*
X282143758Y-120909283D01*
X282450222Y-120715660D01*
X282778057Y-120569053D01*
X283122134Y-120462197D01*
X283473905Y-120387825D01*
X283821709Y-120349103D01*
X283901330Y-120343373D01*
X284248130Y-120328361D01*
X284309948Y-120327985D01*
X284506564Y-120333115D01*
G37*
G36*
X286737722Y-120437406D02*
G01*
X288678231Y-120437406D01*
X288678231Y-120733184D01*
X288715845Y-120683603D01*
X288756878Y-120634022D01*
X288992816Y-120413470D01*
X289325486Y-120310808D01*
X289387757Y-120309179D01*
X289461274Y-120309179D01*
X289545049Y-120309179D01*
X289613437Y-120319437D01*
X289673277Y-120329695D01*
X289673277Y-121998362D01*
X289608308Y-121984685D01*
X289545049Y-121979556D01*
X289480081Y-121969297D01*
X289416822Y-121969297D01*
X289073948Y-122039983D01*
X288909041Y-122133429D01*
X288700771Y-122418100D01*
X288678231Y-122586499D01*
X288678231Y-123490930D01*
X288733536Y-123832570D01*
X288762007Y-123889290D01*
X288974010Y-124077357D01*
X288974010Y-125142501D01*
X286737722Y-125142501D01*
X286737722Y-124089325D01*
X286944596Y-123814064D01*
X286973661Y-123508027D01*
X286973661Y-122032556D01*
X286900143Y-121723101D01*
X286737722Y-121511098D01*
X286737722Y-120437406D01*
G37*
G36*
X294144142Y-123237895D02*
G01*
X294154389Y-123580566D01*
X294173207Y-123774741D01*
X294349420Y-124069163D01*
X294369822Y-124080777D01*
X294369822Y-125142501D01*
X292371183Y-125142501D01*
X292371183Y-124964692D01*
X292071710Y-125130770D01*
X292030953Y-125142501D01*
X291690509Y-125209179D01*
X291572753Y-125221147D01*
X291376138Y-125236534D01*
X291189781Y-125241663D01*
X290841563Y-125199829D01*
X290522677Y-125074326D01*
X290326382Y-124944175D01*
X290096134Y-124660232D01*
X289985437Y-124330680D01*
X289948907Y-123961851D01*
X289948538Y-123916646D01*
X289953668Y-123877323D01*
X289958797Y-123829451D01*
X289962216Y-123790128D01*
X289967345Y-123750805D01*
X289967345Y-122143687D01*
X291730046Y-122143687D01*
X291730046Y-123078893D01*
X291750990Y-123423397D01*
X291813821Y-123670449D01*
X292085663Y-123867064D01*
X292172858Y-123851677D01*
X292282279Y-123817483D01*
X292326731Y-123802096D01*
X292371183Y-123788418D01*
X292371183Y-121729939D01*
X292316473Y-121711133D01*
X292263472Y-121690616D01*
X292138664Y-121651293D01*
X292025824Y-121641035D01*
X291813821Y-121753875D01*
X291730782Y-122093197D01*
X291730046Y-122143687D01*
X289967345Y-122143687D01*
X289967345Y-121830812D01*
X289972474Y-121670100D01*
X289987862Y-121499130D01*
X290077668Y-121163328D01*
X290245358Y-120853050D01*
X290307575Y-120769088D01*
X290579368Y-120554337D01*
X290935439Y-120453278D01*
X291189781Y-120437406D01*
X291307750Y-120437406D01*
X291652410Y-120451847D01*
X291661658Y-120452794D01*
X291936919Y-120516052D01*
X292138664Y-120594699D01*
X292371183Y-120722926D01*
X292371183Y-120437406D01*
X292337150Y-120094451D01*
X292326731Y-120057853D01*
X292193374Y-119874915D01*
X292193374Y-118686674D01*
X294144142Y-118686674D01*
X294144142Y-123237895D01*
G37*
G36*
X295113542Y-119302166D02*
G01*
X295872649Y-118780707D01*
X295983779Y-118895257D01*
X296088071Y-118997839D01*
X296317810Y-119259517D01*
X296534795Y-119541296D01*
X296674498Y-119750107D01*
X296860748Y-120061132D01*
X297025441Y-120367501D01*
X297054051Y-120425438D01*
X297197661Y-120743943D01*
X297330898Y-121091493D01*
X297436418Y-121432365D01*
X297462670Y-121533324D01*
X297538594Y-121900587D01*
X297583003Y-122264214D01*
X297596026Y-122591628D01*
X297580639Y-122943933D01*
X297534477Y-123305855D01*
X297486605Y-123552480D01*
X297400837Y-123900789D01*
X297302529Y-124228304D01*
X297184853Y-124566170D01*
X297172021Y-124600526D01*
X297038985Y-124923979D01*
X296968566Y-125063854D01*
X296803153Y-125366899D01*
X296624010Y-125664201D01*
X296611239Y-125684475D01*
X296412914Y-125969568D01*
X296392398Y-125999060D01*
X296188746Y-126277132D01*
X296166717Y-126305096D01*
X296019683Y-126481196D01*
X295872649Y-126640198D01*
X295053702Y-125999060D01*
X295237954Y-125678521D01*
X295401753Y-125345220D01*
X295545099Y-124999156D01*
X295667992Y-124640330D01*
X295729034Y-124429556D01*
X295818968Y-124054261D01*
X295886814Y-123674877D01*
X295932570Y-123291401D01*
X295956237Y-122903835D01*
X295959843Y-122680533D01*
X295949685Y-122328822D01*
X295944456Y-122247979D01*
X295918844Y-121895139D01*
X295911972Y-121813715D01*
X295857575Y-121449484D01*
X295784786Y-121087687D01*
X295693604Y-120728324D01*
X295635000Y-120529730D01*
X295514261Y-120175492D01*
X295373236Y-119828286D01*
X295211925Y-119488112D01*
X295113542Y-119302166D01*
G37*
D12*
X425718749Y-48489085D02*
X425683035Y-48524800D01*
X425683035Y-48524800D02*
X425575892Y-48560514D01*
X425575892Y-48560514D02*
X425504464Y-48560514D01*
X425504464Y-48560514D02*
X425397321Y-48524800D01*
X425397321Y-48524800D02*
X425325892Y-48453371D01*
X425325892Y-48453371D02*
X425290178Y-48381942D01*
X425290178Y-48381942D02*
X425254464Y-48239085D01*
X425254464Y-48239085D02*
X425254464Y-48131942D01*
X425254464Y-48131942D02*
X425290178Y-47989085D01*
X425290178Y-47989085D02*
X425325892Y-47917657D01*
X425325892Y-47917657D02*
X425397321Y-47846228D01*
X425397321Y-47846228D02*
X425504464Y-47810514D01*
X425504464Y-47810514D02*
X425575892Y-47810514D01*
X425575892Y-47810514D02*
X425683035Y-47846228D01*
X425683035Y-47846228D02*
X425718749Y-47881942D01*
X426004464Y-48524800D02*
X426111607Y-48560514D01*
X426111607Y-48560514D02*
X426290178Y-48560514D01*
X426290178Y-48560514D02*
X426361607Y-48524800D01*
X426361607Y-48524800D02*
X426397321Y-48489085D01*
X426397321Y-48489085D02*
X426433035Y-48417657D01*
X426433035Y-48417657D02*
X426433035Y-48346228D01*
X426433035Y-48346228D02*
X426397321Y-48274800D01*
X426397321Y-48274800D02*
X426361607Y-48239085D01*
X426361607Y-48239085D02*
X426290178Y-48203371D01*
X426290178Y-48203371D02*
X426147321Y-48167657D01*
X426147321Y-48167657D02*
X426075892Y-48131942D01*
X426075892Y-48131942D02*
X426040178Y-48096228D01*
X426040178Y-48096228D02*
X426004464Y-48024800D01*
X426004464Y-48024800D02*
X426004464Y-47953371D01*
X426004464Y-47953371D02*
X426040178Y-47881942D01*
X426040178Y-47881942D02*
X426075892Y-47846228D01*
X426075892Y-47846228D02*
X426147321Y-47810514D01*
X426147321Y-47810514D02*
X426325892Y-47810514D01*
X426325892Y-47810514D02*
X426433035Y-47846228D01*
X425075893Y-43204264D02*
X425075893Y-42454264D01*
X425075893Y-42454264D02*
X425254464Y-42454264D01*
X425254464Y-42454264D02*
X425361607Y-42489978D01*
X425361607Y-42489978D02*
X425433036Y-42561407D01*
X425433036Y-42561407D02*
X425468750Y-42632835D01*
X425468750Y-42632835D02*
X425504464Y-42775692D01*
X425504464Y-42775692D02*
X425504464Y-42882835D01*
X425504464Y-42882835D02*
X425468750Y-43025692D01*
X425468750Y-43025692D02*
X425433036Y-43097121D01*
X425433036Y-43097121D02*
X425361607Y-43168550D01*
X425361607Y-43168550D02*
X425254464Y-43204264D01*
X425254464Y-43204264D02*
X425075893Y-43204264D01*
X425825893Y-43204264D02*
X425825893Y-42454264D01*
X426183036Y-43204264D02*
X426183036Y-42454264D01*
X426183036Y-42454264D02*
X426611607Y-43204264D01*
X426611607Y-43204264D02*
X426611607Y-42454264D01*
D14*
G36*
X58377678Y-71244483D02*
G01*
X59573491Y-70224525D01*
X60848438Y-64087191D01*
X47052625Y-64087191D01*
X45786470Y-70189354D01*
X46569024Y-71200519D01*
X46331620Y-100665000D01*
X62123386Y-100665000D01*
X73158278Y-71200519D01*
X74362883Y-70189354D01*
X75629038Y-64087191D01*
X62818013Y-64087191D01*
X61543065Y-70224525D01*
X62325619Y-71244483D01*
X57577538Y-84547903D01*
X58377678Y-71244483D01*
G37*
G36*
X99404614Y-85471140D02*
G01*
X93487098Y-85471140D01*
X91807685Y-93560464D01*
X92572653Y-94580422D01*
X91306498Y-100665000D01*
X78504265Y-100665000D01*
X79779213Y-94527665D01*
X80975026Y-93498914D01*
X85652765Y-71015872D01*
X84879003Y-69995914D01*
X86109987Y-64087191D01*
X110756045Y-64087191D01*
X108294077Y-75904637D01*
X98428620Y-75904637D01*
X99026526Y-73046995D01*
X98440126Y-71376203D01*
X96684351Y-70982719D01*
X96503009Y-70980701D01*
X95131341Y-77592843D01*
X101048857Y-77592843D01*
X99404614Y-85471140D01*
G37*
G36*
X138848479Y-64155197D02*
G01*
X140765580Y-64406443D01*
X142505127Y-64842817D01*
X144275765Y-65568218D01*
X145074119Y-66021594D01*
X146518017Y-67181257D01*
X147489375Y-68806420D01*
X147587984Y-70660161D01*
X147553672Y-70840017D01*
X142761627Y-93912173D01*
X142062158Y-95626586D01*
X140884952Y-97009511D01*
X139402963Y-98111489D01*
X138268536Y-98739389D01*
X136521597Y-99489700D01*
X134673678Y-100055724D01*
X132724780Y-100437462D01*
X130973926Y-100617988D01*
X129458208Y-100665000D01*
X113692821Y-100665000D01*
X114897426Y-94879375D01*
X115697566Y-94598007D01*
X116084447Y-93912173D01*
X127901893Y-93912173D01*
X129871467Y-93912173D01*
X131131645Y-92582958D01*
X131172793Y-92399822D01*
X135437273Y-71886353D01*
X134663512Y-70840017D01*
X132693937Y-70840017D01*
X127901893Y-93912173D01*
X116084447Y-93912173D01*
X120876491Y-70840017D01*
X120093937Y-69872815D01*
X121298543Y-64087191D01*
X137063930Y-64087191D01*
X138848479Y-64155197D01*
G37*
G36*
X197894931Y-64218884D02*
G01*
X199745391Y-64691906D01*
X201304591Y-65508945D01*
X202710546Y-66839319D01*
X203617847Y-68303860D01*
X204180059Y-70162984D01*
X204272245Y-72003553D01*
X204038250Y-73759207D01*
X203765907Y-74808249D01*
X203069975Y-76440195D01*
X201989541Y-77970931D01*
X201688020Y-78292184D01*
X200242095Y-79523649D01*
X198621920Y-80353764D01*
X199237541Y-80651120D01*
X200757999Y-81753236D01*
X201901613Y-83132271D01*
X202179847Y-83609938D01*
X202815947Y-85314906D01*
X203003823Y-87193324D01*
X202789680Y-89032201D01*
X202300859Y-90938749D01*
X201658714Y-92695065D01*
X200863245Y-94301149D01*
X199741415Y-95985037D01*
X198410895Y-97464441D01*
X197559922Y-98214572D01*
X195963610Y-99286634D01*
X194230976Y-100052393D01*
X192362020Y-100511848D01*
X190356742Y-100665000D01*
X171768885Y-100665000D01*
X173035040Y-94562836D01*
X174176797Y-93604427D01*
X186048299Y-93604427D01*
X187033086Y-93604427D01*
X187742147Y-93473515D01*
X189240064Y-92496542D01*
X190207266Y-91236981D01*
X190787587Y-89568558D01*
X190907113Y-88273965D01*
X190347950Y-86517477D01*
X190259095Y-86401419D01*
X188703707Y-85559068D01*
X187718920Y-85559068D01*
X186048299Y-93604427D01*
X174176797Y-93604427D01*
X174239645Y-93551671D01*
X177582696Y-77487330D01*
X189398334Y-77487330D01*
X190383121Y-77487330D01*
X190541081Y-77478907D01*
X192036156Y-76528921D01*
X192248805Y-76229204D01*
X192959394Y-74603311D01*
X192998034Y-74408024D01*
X193059858Y-72548153D01*
X191640483Y-71429131D01*
X190655696Y-71429131D01*
X189398334Y-77487330D01*
X177582696Y-77487330D01*
X178891006Y-71200519D01*
X178108452Y-70189354D01*
X179374607Y-64087191D01*
X196036854Y-64087191D01*
X197894931Y-64218884D01*
G37*
G36*
X240000567Y-93551671D02*
G01*
X240783121Y-94562836D01*
X239516966Y-100665000D01*
X225703567Y-100665000D01*
X226960930Y-94606800D01*
X228156742Y-93604427D01*
X228227084Y-92593262D01*
X224586889Y-92593262D01*
X224226387Y-93604427D01*
X224982562Y-94606800D01*
X223725200Y-100665000D01*
X210914174Y-100665000D01*
X212180329Y-94562836D01*
X213384935Y-93551671D01*
X215989334Y-86614197D01*
X226644391Y-86614197D01*
X228622758Y-86614197D01*
X228904126Y-80512034D01*
X226644391Y-86614197D01*
X215989334Y-86614197D01*
X224446205Y-64087191D01*
X240211592Y-64087191D01*
X240000567Y-93551671D01*
G37*
G36*
X276185510Y-64218884D02*
G01*
X278035970Y-64691906D01*
X279595171Y-65508945D01*
X281001125Y-66839319D01*
X281908426Y-68303860D01*
X282470638Y-70162984D01*
X282562824Y-72003553D01*
X282328829Y-73759207D01*
X282056486Y-74808249D01*
X281360554Y-76440195D01*
X280280120Y-77970931D01*
X279978599Y-78292184D01*
X278532674Y-79523649D01*
X276912500Y-80353764D01*
X277528120Y-80651120D01*
X279048578Y-81753236D01*
X280192193Y-83132271D01*
X280470426Y-83609938D01*
X281106526Y-85314906D01*
X281294402Y-87193324D01*
X281080260Y-89032201D01*
X280591438Y-90938749D01*
X279949293Y-92695065D01*
X279153825Y-94301149D01*
X278031994Y-95985037D01*
X276701474Y-97464441D01*
X275850501Y-98214572D01*
X274254189Y-99286634D01*
X272521555Y-100052393D01*
X270652599Y-100511848D01*
X268647322Y-100665000D01*
X250059464Y-100665000D01*
X251325619Y-94562836D01*
X252467377Y-93604427D01*
X264338878Y-93604427D01*
X265323665Y-93604427D01*
X266032726Y-93473515D01*
X267530643Y-92496542D01*
X268497845Y-91236981D01*
X269078166Y-89568558D01*
X269197692Y-88273965D01*
X268638529Y-86517477D01*
X268549674Y-86401419D01*
X266994286Y-85559068D01*
X266009499Y-85559068D01*
X264338878Y-93604427D01*
X252467377Y-93604427D01*
X252530225Y-93551671D01*
X255873276Y-77487330D01*
X267688913Y-77487330D01*
X268673700Y-77487330D01*
X268831660Y-77478907D01*
X270326736Y-76528921D01*
X270539384Y-76229204D01*
X271249973Y-74603311D01*
X271288613Y-74408024D01*
X271350437Y-72548153D01*
X269931062Y-71429131D01*
X268946275Y-71429131D01*
X267688913Y-77487330D01*
X255873276Y-77487330D01*
X257181585Y-71200519D01*
X256399031Y-70189354D01*
X257665186Y-64087191D01*
X274327433Y-64087191D01*
X276185510Y-64218884D01*
G37*
D15*
%TO.C,J31*%
X300193750Y-106362500D02*
G75*
G02*
X298293750Y-106362500I-950000J0D01*
G01*
X298293750Y-106362500D02*
G75*
G02*
X300193750Y-106362500I950000J0D01*
G01*
D16*
%TO.C,G\u002A\u002A\u002A*%
G36*
X423790011Y-79886044D02*
G01*
X423732020Y-79944035D01*
X423674030Y-79886044D01*
X423732020Y-79828054D01*
X423790011Y-79886044D01*
G37*
G36*
X393603687Y-93819863D02*
G01*
X394100679Y-93971846D01*
X394479354Y-94210634D01*
X394882903Y-94669556D01*
X395146605Y-95277433D01*
X395268458Y-95996658D01*
X395246457Y-96789622D01*
X395078600Y-97618715D01*
X394762884Y-98446330D01*
X394710619Y-98552357D01*
X394230976Y-99347016D01*
X393591957Y-100182490D01*
X392838735Y-101014705D01*
X392016480Y-101799589D01*
X391170363Y-102493068D01*
X390345555Y-103051070D01*
X389807363Y-103336407D01*
X389127946Y-103577515D01*
X388427227Y-103704790D01*
X387769774Y-103713465D01*
X387220158Y-103598774D01*
X387082051Y-103537573D01*
X386603542Y-103217309D01*
X386272428Y-102814499D01*
X386074383Y-102294866D01*
X385995082Y-101624129D01*
X386006967Y-100964972D01*
X386048899Y-100690540D01*
X387627195Y-100690540D01*
X387635146Y-101328703D01*
X387766912Y-101771150D01*
X388024552Y-102019158D01*
X388410125Y-102074006D01*
X388925692Y-101936972D01*
X389329311Y-101746772D01*
X389898583Y-101391370D01*
X390542674Y-100906355D01*
X391196986Y-100347505D01*
X391796921Y-99770600D01*
X392277882Y-99231418D01*
X392349987Y-99138499D01*
X392901780Y-98320399D01*
X393309026Y-97531754D01*
X393553317Y-96811807D01*
X393612640Y-96446653D01*
X393603498Y-95954906D01*
X393468612Y-95631631D01*
X393190936Y-95466585D01*
X392753424Y-95449527D01*
X392149392Y-95567501D01*
X391375201Y-95865826D01*
X390595368Y-96339003D01*
X389842473Y-96950125D01*
X389149092Y-97662286D01*
X388547804Y-98438579D01*
X388071187Y-99242097D01*
X387751819Y-100035934D01*
X387627195Y-100690540D01*
X386048899Y-100690540D01*
X386189824Y-99768229D01*
X386597539Y-98612349D01*
X387231809Y-97493676D01*
X388094335Y-96408556D01*
X388155112Y-96342573D01*
X389155082Y-95399863D01*
X390203287Y-94678208D01*
X391313868Y-94169221D01*
X392256950Y-93909472D01*
X393005266Y-93801261D01*
X393603687Y-93819863D01*
G37*
G36*
X403854039Y-104946783D02*
G01*
X404628969Y-105196345D01*
X405304246Y-105640492D01*
X405857804Y-106270325D01*
X406096981Y-106681767D01*
X406270900Y-107065509D01*
X406381205Y-107421520D01*
X406445844Y-107832376D01*
X406482763Y-108380648D01*
X406486843Y-108475542D01*
X406467195Y-109402522D01*
X406312485Y-110240218D01*
X406002205Y-111069756D01*
X405668723Y-111711441D01*
X405263140Y-112310455D01*
X404726371Y-112945198D01*
X404123896Y-113547932D01*
X403521195Y-114050918D01*
X403192282Y-114273299D01*
X402348281Y-114701648D01*
X401466980Y-115005787D01*
X400600141Y-115175070D01*
X399799527Y-115198852D01*
X399201133Y-115094116D01*
X398432941Y-114749289D01*
X397813448Y-114238232D01*
X397351781Y-113579992D01*
X397057070Y-112793618D01*
X396952712Y-112005856D01*
X398645601Y-112005856D01*
X398739446Y-112513480D01*
X398945418Y-112894545D01*
X399280413Y-113194938D01*
X399352491Y-113241962D01*
X399784122Y-113401470D01*
X400348276Y-113453917D01*
X400973602Y-113402880D01*
X401588747Y-113251938D01*
X401927454Y-113112849D01*
X402438395Y-112791186D01*
X403000792Y-112324076D01*
X403556644Y-111770587D01*
X404047953Y-111189788D01*
X404416718Y-110640745D01*
X404487939Y-110505223D01*
X404656617Y-110130476D01*
X404758394Y-109802298D01*
X404809521Y-109436861D01*
X404826253Y-108950335D01*
X404826998Y-108756468D01*
X404821568Y-108244585D01*
X404795485Y-107899042D01*
X404734056Y-107654292D01*
X404622586Y-107444790D01*
X404492759Y-107265395D01*
X404029750Y-106827298D01*
X403474475Y-106596246D01*
X402837591Y-106571399D01*
X402129752Y-106751921D01*
X401361613Y-107136975D01*
X400752469Y-107559390D01*
X399925787Y-108325684D01*
X399294659Y-109191107D01*
X398869444Y-110137133D01*
X398660499Y-111145230D01*
X398646989Y-111325785D01*
X398645601Y-112005856D01*
X396952712Y-112005856D01*
X396938444Y-111898154D01*
X397005031Y-110912650D01*
X397058175Y-110622851D01*
X397410802Y-109465335D01*
X397959740Y-108372751D01*
X398678155Y-107374705D01*
X399539215Y-106500802D01*
X400516089Y-105780649D01*
X401581945Y-105243850D01*
X402093482Y-105067016D01*
X403001521Y-104900706D01*
X403854039Y-104946783D01*
G37*
G36*
X403451212Y-75477204D02*
G01*
X404504938Y-75514734D01*
X405498017Y-75577744D01*
X406381961Y-75665826D01*
X406972660Y-75753127D01*
X408958759Y-76154948D01*
X410781411Y-76629659D01*
X412502996Y-77197152D01*
X414185894Y-77877322D01*
X415381335Y-78434578D01*
X416991050Y-79271615D01*
X418436385Y-80132847D01*
X419775977Y-81060260D01*
X421068463Y-82095841D01*
X422372479Y-83281576D01*
X422976253Y-83872916D01*
X423563229Y-84474046D01*
X424158083Y-85109370D01*
X424716195Y-85729389D01*
X425192944Y-86284602D01*
X425524618Y-86699971D01*
X425943268Y-87236520D01*
X426263458Y-87590974D01*
X426508645Y-87778582D01*
X426702286Y-87814588D01*
X426867838Y-87714241D01*
X426943937Y-87622498D01*
X427077834Y-87476659D01*
X427353509Y-87203387D01*
X427740703Y-86830847D01*
X428209157Y-86387202D01*
X428728613Y-85900618D01*
X429268811Y-85399258D01*
X429799492Y-84911287D01*
X430290397Y-84464868D01*
X430711268Y-84088166D01*
X431031846Y-83809345D01*
X431117677Y-83737697D01*
X431522137Y-83447307D01*
X432010478Y-83152665D01*
X432322772Y-82991704D01*
X432654272Y-82846573D01*
X432948026Y-82753039D01*
X433271117Y-82700222D01*
X433690631Y-82677244D01*
X434273653Y-82673223D01*
X434286358Y-82673258D01*
X434862051Y-82679235D01*
X435275404Y-82702075D01*
X435596012Y-82754983D01*
X435893472Y-82851166D01*
X436237376Y-83003828D01*
X436374030Y-83069389D01*
X437019440Y-83453667D01*
X437658127Y-83960619D01*
X438229742Y-84533138D01*
X438673934Y-85114115D01*
X438831919Y-85395177D01*
X438953883Y-85650850D01*
X439056473Y-85882752D01*
X439141241Y-86112675D01*
X439209741Y-86362411D01*
X439263525Y-86653751D01*
X439304146Y-87008487D01*
X439333158Y-87448411D01*
X439352114Y-87995315D01*
X439362567Y-88670990D01*
X439366070Y-89497229D01*
X439364176Y-90495822D01*
X439358438Y-91688563D01*
X439352670Y-92702026D01*
X439344120Y-94098652D01*
X439334483Y-95284178D01*
X439321737Y-96279468D01*
X439303861Y-97105383D01*
X439278833Y-97782786D01*
X439244633Y-98332540D01*
X439199238Y-98775506D01*
X439140627Y-99132548D01*
X439066780Y-99424528D01*
X438975674Y-99672308D01*
X438865288Y-99896750D01*
X438733602Y-100118717D01*
X438616394Y-100301105D01*
X438402061Y-100580310D01*
X438034975Y-101000256D01*
X437532170Y-101543636D01*
X436910676Y-102193139D01*
X436187527Y-102931458D01*
X435379755Y-103741282D01*
X434504393Y-104605302D01*
X433578472Y-105506210D01*
X432619025Y-106426697D01*
X432159295Y-106863107D01*
X430148213Y-108765497D01*
X430117789Y-111375086D01*
X430105084Y-112256534D01*
X430088123Y-112942999D01*
X430063964Y-113471461D01*
X430029667Y-113878895D01*
X429982291Y-114202280D01*
X429918894Y-114478593D01*
X429853902Y-114692919D01*
X429368019Y-115839867D01*
X428713844Y-116880683D01*
X427916289Y-117795942D01*
X427000268Y-118566221D01*
X425990695Y-119172096D01*
X424912481Y-119594141D01*
X423790541Y-119812934D01*
X423252239Y-119840038D01*
X422704813Y-119789347D01*
X422040960Y-119650971D01*
X421347273Y-119449428D01*
X420710345Y-119209234D01*
X420294512Y-119002602D01*
X419414026Y-118368094D01*
X418613517Y-117563060D01*
X417944633Y-116647201D01*
X417491943Y-115763051D01*
X417424884Y-115587623D01*
X417370260Y-115406370D01*
X417326349Y-115193178D01*
X417291430Y-114921934D01*
X417263782Y-114566524D01*
X417241685Y-114100834D01*
X417223418Y-113498752D01*
X417207259Y-112734163D01*
X417191488Y-111780953D01*
X417180467Y-111036674D01*
X417159282Y-109806326D01*
X417134431Y-108785785D01*
X417106105Y-107979442D01*
X417074495Y-107391692D01*
X417039789Y-107026928D01*
X417002181Y-106889543D01*
X417000625Y-106888841D01*
X416896631Y-106959000D01*
X416659452Y-107170554D01*
X416315581Y-107496641D01*
X415891512Y-107910399D01*
X415413737Y-108384968D01*
X414908750Y-108893486D01*
X414403042Y-109409092D01*
X413923107Y-109904923D01*
X413495439Y-110354119D01*
X413146529Y-110729818D01*
X412902871Y-111005159D01*
X412790958Y-111153279D01*
X412788049Y-111160013D01*
X412854232Y-111272320D01*
X413062523Y-111523968D01*
X413390747Y-111890540D01*
X413816724Y-112347617D01*
X414318276Y-112870783D01*
X414650820Y-113210880D01*
X415212983Y-113791677D01*
X415728315Y-114343037D01*
X416170383Y-114835193D01*
X416512749Y-115238382D01*
X416728976Y-115522835D01*
X416780180Y-115608419D01*
X416980703Y-116271364D01*
X416995334Y-116997787D01*
X416827304Y-117716858D01*
X416668005Y-118065835D01*
X416409947Y-118466416D01*
X416020188Y-118980590D01*
X415525174Y-119580609D01*
X414951349Y-120238720D01*
X414325161Y-120927174D01*
X413673056Y-121618220D01*
X413021478Y-122284107D01*
X412396875Y-122897085D01*
X411825691Y-123429404D01*
X411334374Y-123853312D01*
X410949368Y-124141060D01*
X410792434Y-124231265D01*
X410087594Y-124440804D01*
X409338744Y-124445310D01*
X408799136Y-124315544D01*
X408249257Y-124053153D01*
X407803075Y-123713565D01*
X407476135Y-123329502D01*
X407283982Y-122933684D01*
X407242161Y-122558833D01*
X407366218Y-122237669D01*
X407671699Y-122002913D01*
X407695513Y-121992552D01*
X407975524Y-121901366D01*
X408214258Y-121911964D01*
X408473110Y-122045526D01*
X408813476Y-122323230D01*
X408912762Y-122412453D01*
X409319919Y-122723044D01*
X409674008Y-122839564D01*
X410032694Y-122771767D01*
X410279162Y-122643596D01*
X410489496Y-122477576D01*
X410825293Y-122167958D01*
X411258119Y-121744708D01*
X411759542Y-121237789D01*
X412301129Y-120677165D01*
X412854445Y-120092799D01*
X413391060Y-119514657D01*
X413882539Y-118972701D01*
X414300450Y-118496896D01*
X414616360Y-118117206D01*
X414773592Y-117907162D01*
X415088548Y-117402251D01*
X415261074Y-117008719D01*
X415309546Y-116670766D01*
X415270320Y-116398786D01*
X415172196Y-116237757D01*
X414940797Y-115949597D01*
X414604653Y-115564016D01*
X414192295Y-115110726D01*
X413732254Y-114619438D01*
X413253061Y-114119863D01*
X412783246Y-113641714D01*
X412351340Y-113214700D01*
X411985875Y-112868534D01*
X411715380Y-112632926D01*
X411568387Y-112537589D01*
X411561881Y-112536906D01*
X411457436Y-112616743D01*
X411206607Y-112844166D01*
X410826443Y-113202287D01*
X410333992Y-113674216D01*
X409746305Y-114243066D01*
X409080430Y-114891946D01*
X408353417Y-115603969D01*
X407582315Y-116362244D01*
X406784172Y-117149883D01*
X405976039Y-117949998D01*
X405174965Y-118745698D01*
X404397998Y-119520096D01*
X403662188Y-120256302D01*
X402984584Y-120937428D01*
X402382236Y-121546583D01*
X401872192Y-122066880D01*
X401471502Y-122481430D01*
X401197216Y-122773343D01*
X401066381Y-122925731D01*
X401057591Y-122942452D01*
X401099203Y-123058689D01*
X401232476Y-123257163D01*
X401470066Y-123552560D01*
X401824628Y-123959561D01*
X402308818Y-124492849D01*
X402935293Y-125167109D01*
X403415239Y-125677792D01*
X403979482Y-126279181D01*
X404565644Y-126909048D01*
X405125433Y-127515155D01*
X405610557Y-128045263D01*
X405900707Y-128366410D01*
X406724002Y-129281748D01*
X407503247Y-130140123D01*
X408224038Y-130926190D01*
X408871973Y-131624603D01*
X409432649Y-132220018D01*
X409891664Y-132697088D01*
X410234614Y-133040470D01*
X410447097Y-133234817D01*
X410506553Y-133273643D01*
X410766534Y-133234787D01*
X411169151Y-133048177D01*
X411692666Y-132729729D01*
X412315342Y-132295360D01*
X413015440Y-131760988D01*
X413771223Y-131142530D01*
X414560954Y-130455903D01*
X415360188Y-129719592D01*
X415913855Y-129205630D01*
X416444352Y-128733623D01*
X416917101Y-128332791D01*
X417297525Y-128032351D01*
X417551047Y-127861521D01*
X417571463Y-127851039D01*
X418179802Y-127663273D01*
X418915695Y-127602917D01*
X419717283Y-127663482D01*
X420522709Y-127838477D01*
X421270114Y-128121410D01*
X421547331Y-128268226D01*
X422153672Y-128723503D01*
X422722168Y-129333648D01*
X423186271Y-130023348D01*
X423307153Y-130259795D01*
X423507327Y-130861279D01*
X423632484Y-131603442D01*
X423678156Y-132405987D01*
X423639880Y-133188619D01*
X423513188Y-133871041D01*
X423508839Y-133886158D01*
X423153045Y-134759321D01*
X422589965Y-135674158D01*
X421837175Y-136615365D01*
X420912244Y-137567639D01*
X419832747Y-138515676D01*
X418616256Y-139444173D01*
X417280342Y-140337826D01*
X415842580Y-141181332D01*
X414320541Y-141959387D01*
X414142148Y-142043392D01*
X411907434Y-142975027D01*
X409572428Y-143737444D01*
X407174160Y-144323813D01*
X404749658Y-144727305D01*
X402335952Y-144941090D01*
X399970071Y-144958338D01*
X398737956Y-144884593D01*
X397032012Y-144694791D01*
X395258366Y-144415475D01*
X393552785Y-144068523D01*
X393286815Y-144006171D01*
X392765960Y-143871760D01*
X392421688Y-143749600D01*
X392202170Y-143611503D01*
X392055576Y-143429281D01*
X391986818Y-143299125D01*
X391800714Y-143061708D01*
X391466913Y-142868710D01*
X391198060Y-142767382D01*
X388727589Y-141822999D01*
X386405948Y-140704611D01*
X384222192Y-139406377D01*
X382259318Y-137996407D01*
X381673359Y-137509518D01*
X380983642Y-136892240D01*
X380237149Y-136190490D01*
X379480863Y-135450186D01*
X378761765Y-134717245D01*
X378126838Y-134037586D01*
X377657243Y-133498602D01*
X377337103Y-133120866D01*
X377069707Y-132821534D01*
X376889969Y-132638785D01*
X376835996Y-132600574D01*
X376722452Y-132674949D01*
X376483747Y-132873138D01*
X376162647Y-133158929D01*
X376005536Y-133303789D01*
X375002495Y-134235701D01*
X374149303Y-135020657D01*
X373428185Y-135672042D01*
X372821366Y-136203242D01*
X372311071Y-136627643D01*
X371879526Y-136958630D01*
X371508955Y-137209587D01*
X371181585Y-137393902D01*
X370879639Y-137524959D01*
X370585345Y-137616144D01*
X370280925Y-137680842D01*
X370167972Y-137699822D01*
X369307969Y-137774101D01*
X368474474Y-137702926D01*
X367582796Y-137477314D01*
X367358510Y-137401913D01*
X366404752Y-136948843D01*
X365574720Y-136300208D01*
X364870428Y-135457914D01*
X364362679Y-134571433D01*
X364001427Y-133817551D01*
X363998103Y-133252864D01*
X365514281Y-133252864D01*
X365894450Y-134025097D01*
X366321697Y-134716874D01*
X366877104Y-135283964D01*
X367607459Y-135772124D01*
X367770833Y-135860234D01*
X368344339Y-136060166D01*
X369027310Y-136148025D01*
X369731402Y-136123586D01*
X370368272Y-135986624D01*
X370649774Y-135867581D01*
X370926889Y-135687415D01*
X371319475Y-135386371D01*
X371801063Y-134988975D01*
X372345186Y-134519755D01*
X372925378Y-134003236D01*
X373515170Y-133463945D01*
X374088097Y-132926409D01*
X374617690Y-132415155D01*
X375077482Y-131954709D01*
X375441007Y-131569598D01*
X375681796Y-131284348D01*
X375773384Y-131123486D01*
X375773573Y-131119455D01*
X375719718Y-130957300D01*
X375572371Y-130637122D01*
X375352860Y-130202450D01*
X375082516Y-129696813D01*
X375028019Y-129597858D01*
X374688550Y-128974790D01*
X374334685Y-128309344D01*
X374011145Y-127686447D01*
X373787829Y-127242576D01*
X373521759Y-126728383D01*
X373328470Y-126425323D01*
X373199777Y-126327153D01*
X373127497Y-126427630D01*
X373103446Y-126720511D01*
X373103446Y-126720515D01*
X372993461Y-127289211D01*
X372688394Y-127879065D01*
X372214387Y-128441471D01*
X372140247Y-128511387D01*
X371814177Y-128802133D01*
X371599415Y-128951839D01*
X371439699Y-128979859D01*
X371278766Y-128905552D01*
X371185466Y-128839879D01*
X371110048Y-128769933D01*
X371052737Y-128664276D01*
X371010427Y-128491818D01*
X370980007Y-128221471D01*
X370958369Y-127822145D01*
X370942405Y-127262753D01*
X370929005Y-126512204D01*
X370924853Y-126233582D01*
X370889375Y-123791716D01*
X371852707Y-122863847D01*
X372365788Y-122393034D01*
X372758155Y-122092419D01*
X373053079Y-121950335D01*
X373273834Y-121955117D01*
X373427562Y-122074401D01*
X373514382Y-122243386D01*
X373649033Y-122575933D01*
X373808971Y-123014570D01*
X373893883Y-123263213D01*
X374444011Y-124738222D01*
X375125129Y-126281568D01*
X375907853Y-127839773D01*
X376762797Y-129359356D01*
X377660579Y-130786838D01*
X378571811Y-132068739D01*
X379087594Y-132715725D01*
X379645954Y-133348001D01*
X380328362Y-134066429D01*
X381076742Y-134813503D01*
X381833014Y-135531717D01*
X382539101Y-136163568D01*
X382751998Y-136343992D01*
X383922885Y-137242927D01*
X385263064Y-138140035D01*
X386712231Y-139000426D01*
X388210083Y-139789207D01*
X389696319Y-140471486D01*
X390329281Y-140728275D01*
X390690071Y-140873789D01*
X390972146Y-140982870D01*
X391185091Y-141033727D01*
X391338492Y-141004567D01*
X391441935Y-140873600D01*
X391505006Y-140619032D01*
X391537292Y-140219073D01*
X391548379Y-139651931D01*
X391547851Y-138895813D01*
X391545313Y-137963898D01*
X391541766Y-137134732D01*
X391532673Y-136379768D01*
X391518888Y-135730668D01*
X391501264Y-135219097D01*
X391480654Y-134876719D01*
X391458327Y-134735773D01*
X391325889Y-134636500D01*
X391029736Y-134460773D01*
X390614575Y-134233954D01*
X390155308Y-133996594D01*
X388294479Y-132933021D01*
X386540418Y-131678647D01*
X384910302Y-130253343D01*
X383421306Y-128676981D01*
X382090605Y-126969430D01*
X380935377Y-125150561D01*
X380233760Y-123758148D01*
X382062039Y-123758148D01*
X382182137Y-124058171D01*
X382398684Y-124469931D01*
X382687963Y-124958326D01*
X383026257Y-125488252D01*
X383389847Y-126024603D01*
X383755017Y-126532277D01*
X384098049Y-126976169D01*
X384395225Y-127321175D01*
X384622828Y-127532192D01*
X384747133Y-127579044D01*
X384811423Y-127440396D01*
X384861326Y-127075038D01*
X384896340Y-126487807D01*
X384910510Y-126006965D01*
X384914413Y-125407541D01*
X384901328Y-124886200D01*
X384873582Y-124492372D01*
X384833503Y-124275487D01*
X384828489Y-124264642D01*
X384618593Y-124094835D01*
X384183057Y-123951797D01*
X383984246Y-123909241D01*
X383483963Y-123810080D01*
X382975632Y-123706117D01*
X382697221Y-123647306D01*
X382359214Y-123592059D01*
X382121076Y-123585778D01*
X382062108Y-123604967D01*
X382062039Y-123758148D01*
X380233760Y-123758148D01*
X379972795Y-123240244D01*
X379265102Y-121397661D01*
X379063440Y-120744100D01*
X378870176Y-120051077D01*
X378710184Y-119411355D01*
X378624328Y-119008173D01*
X378521987Y-118323719D01*
X378431773Y-117457057D01*
X378356136Y-116457742D01*
X378297527Y-115375328D01*
X378258396Y-114259370D01*
X378241193Y-113159422D01*
X378248368Y-112125037D01*
X378261239Y-111665040D01*
X378281432Y-110915415D01*
X378284136Y-110297754D01*
X378269887Y-109841185D01*
X378239222Y-109574834D01*
X378221801Y-109527029D01*
X378145504Y-109493326D01*
X377999339Y-109549520D01*
X377760972Y-109711535D01*
X377408074Y-109995293D01*
X376918311Y-110416717D01*
X376681390Y-110625358D01*
X375922187Y-111302363D01*
X375095961Y-112048870D01*
X374219791Y-112848700D01*
X373310759Y-113685678D01*
X372385945Y-114543625D01*
X371462430Y-115406365D01*
X370557294Y-116257721D01*
X369687618Y-117081515D01*
X368870483Y-117861572D01*
X368122969Y-118581713D01*
X367462157Y-119225761D01*
X366905128Y-119777540D01*
X366468962Y-120220873D01*
X366170739Y-120539582D01*
X366030187Y-120713105D01*
X365837826Y-121075115D01*
X365692842Y-121433720D01*
X365682199Y-121468854D01*
X365661080Y-121654099D01*
X365640107Y-122047286D01*
X365619815Y-122624396D01*
X365600741Y-123361406D01*
X365583420Y-124234297D01*
X365568390Y-125219049D01*
X365556185Y-126291640D01*
X365547342Y-127428049D01*
X365546684Y-127540626D01*
X365514281Y-133252864D01*
X363998103Y-133252864D01*
X363966954Y-127960474D01*
X363959940Y-126494056D01*
X363958097Y-125240504D01*
X363962335Y-124180760D01*
X363973565Y-123295765D01*
X363992698Y-122566461D01*
X364020644Y-121973789D01*
X364058316Y-121498692D01*
X364106623Y-121122109D01*
X364166476Y-120824984D01*
X364238788Y-120588257D01*
X364324467Y-120392871D01*
X364329087Y-120383907D01*
X364516288Y-120070572D01*
X364784037Y-119705551D01*
X365147656Y-119272172D01*
X365622465Y-118753765D01*
X366223788Y-118133659D01*
X366966946Y-117395183D01*
X367867261Y-116521668D01*
X367966769Y-116426014D01*
X368683629Y-115735147D01*
X369418845Y-115022516D01*
X370135205Y-114324478D01*
X370795500Y-113677391D01*
X371362520Y-113117614D01*
X371799055Y-112681505D01*
X371800200Y-112680350D01*
X373103995Y-111364578D01*
X373157283Y-109388658D01*
X373159301Y-109340906D01*
X374853423Y-109340906D01*
X374862651Y-109716470D01*
X374884341Y-109915759D01*
X374886693Y-109922792D01*
X374954565Y-109970705D01*
X375101598Y-109914298D01*
X375351967Y-109737518D01*
X375729847Y-109424313D01*
X376024092Y-109167533D01*
X376675892Y-108600342D01*
X377192046Y-108174617D01*
X377604074Y-107871007D01*
X377943497Y-107670158D01*
X378241835Y-107552719D01*
X378530607Y-107499338D01*
X378756881Y-107489697D01*
X379175051Y-107516551D01*
X379453988Y-107614993D01*
X379626744Y-107753699D01*
X379890925Y-108017701D01*
X379960413Y-113088859D01*
X379977908Y-114319780D01*
X379994454Y-115343023D01*
X380011343Y-116182864D01*
X380029868Y-116863579D01*
X380051324Y-117409442D01*
X380077003Y-117844729D01*
X380108198Y-118193715D01*
X380146202Y-118480675D01*
X380192309Y-118729885D01*
X380247813Y-118965620D01*
X380279990Y-119087871D01*
X380528959Y-119958207D01*
X380763642Y-120674206D01*
X380976133Y-121214628D01*
X381158524Y-121558234D01*
X381232509Y-121646523D01*
X381404952Y-121723389D01*
X381755210Y-121826479D01*
X382232103Y-121945013D01*
X382784451Y-122068214D01*
X383361077Y-122185300D01*
X383910800Y-122285494D01*
X384382442Y-122358015D01*
X384724823Y-122392085D01*
X384778397Y-122393350D01*
X384954513Y-122347282D01*
X385122473Y-122181091D01*
X385319884Y-121852797D01*
X385397853Y-121701827D01*
X385704749Y-121183573D01*
X385988442Y-120888193D01*
X386245705Y-120818326D01*
X386390642Y-120889522D01*
X386433896Y-120956032D01*
X386467537Y-121089966D01*
X386492015Y-121312966D01*
X386507782Y-121646675D01*
X386515287Y-122112734D01*
X386514984Y-122732786D01*
X386507323Y-123528473D01*
X386492754Y-124521437D01*
X386480910Y-125219556D01*
X386407293Y-129413578D01*
X387092488Y-129995490D01*
X387496281Y-130331819D01*
X387898726Y-130656292D01*
X388213314Y-130899175D01*
X388215675Y-130900919D01*
X388550711Y-131134090D01*
X388985489Y-131416490D01*
X389476991Y-131722576D01*
X389982200Y-132026806D01*
X390458098Y-132303635D01*
X390861666Y-132527522D01*
X391149887Y-132672923D01*
X391272047Y-132715725D01*
X391299127Y-132686377D01*
X391323059Y-132589857D01*
X391344025Y-132413453D01*
X391362207Y-132144452D01*
X391377789Y-131770141D01*
X391390952Y-131277809D01*
X391401879Y-130654742D01*
X391410754Y-129888227D01*
X391417758Y-128965553D01*
X391423073Y-127874006D01*
X391426883Y-126600874D01*
X391429371Y-125133444D01*
X391430718Y-123459004D01*
X391431107Y-121639469D01*
X391430410Y-120058327D01*
X391428744Y-118813026D01*
X393063494Y-118813026D01*
X393063585Y-120483377D01*
X393064918Y-122238090D01*
X393067529Y-124062405D01*
X393071453Y-125941561D01*
X393072800Y-126478511D01*
X393077692Y-128716930D01*
X393080839Y-130734912D01*
X393083309Y-132543965D01*
X393086167Y-134155599D01*
X393090480Y-135581323D01*
X393097315Y-136832645D01*
X393107738Y-137921075D01*
X393122816Y-138858122D01*
X393143615Y-139655295D01*
X393171201Y-140324102D01*
X393206641Y-140876054D01*
X393251002Y-141322659D01*
X393305350Y-141675425D01*
X393370752Y-141945863D01*
X393448273Y-142145480D01*
X393538981Y-142285787D01*
X393643942Y-142378292D01*
X393764222Y-142434504D01*
X393900889Y-142465933D01*
X394055007Y-142484086D01*
X394227645Y-142500474D01*
X394419868Y-142526605D01*
X394562614Y-142555885D01*
X396707465Y-142996237D01*
X398767121Y-143260773D01*
X400802458Y-143353868D01*
X402874351Y-143279901D01*
X403667180Y-143210588D01*
X404751036Y-143091595D01*
X405685514Y-142963326D01*
X406553134Y-142811051D01*
X407436417Y-142620043D01*
X408417884Y-142375571D01*
X408572001Y-142335138D01*
X410063479Y-141888503D01*
X411562947Y-141338743D01*
X413047672Y-140700392D01*
X414494919Y-139987982D01*
X415881956Y-139216046D01*
X417186049Y-138399117D01*
X418384465Y-137551729D01*
X419454469Y-136688415D01*
X420373330Y-135823707D01*
X421118312Y-134972139D01*
X421666684Y-134148243D01*
X421804981Y-133875542D01*
X422058986Y-133072044D01*
X422112379Y-132233916D01*
X421972462Y-131410933D01*
X421646540Y-130652873D01*
X421254648Y-130124316D01*
X420782591Y-129735905D01*
X420191063Y-129423708D01*
X419552173Y-129212737D01*
X418938029Y-129128006D01*
X418503871Y-129170170D01*
X418314267Y-129278043D01*
X417989435Y-129529809D01*
X417555725Y-129902924D01*
X417039485Y-130374846D01*
X416552953Y-130839277D01*
X415982670Y-131386110D01*
X415405731Y-131925998D01*
X414866185Y-132418659D01*
X414408085Y-132823809D01*
X414105536Y-133077378D01*
X412587488Y-134144020D01*
X410894160Y-135060667D01*
X409028259Y-135826076D01*
X406992492Y-136439005D01*
X406533237Y-136550666D01*
X405784976Y-136703908D01*
X405219644Y-136766679D01*
X404806505Y-136738810D01*
X404514823Y-136620132D01*
X404416957Y-136539017D01*
X404352374Y-136466500D01*
X404300922Y-136375547D01*
X404261237Y-136241253D01*
X404231954Y-136038708D01*
X404211710Y-135743006D01*
X404199139Y-135329240D01*
X404192878Y-134772501D01*
X404192285Y-134445845D01*
X405792936Y-134445845D01*
X405797653Y-134756207D01*
X405802885Y-134847215D01*
X405915034Y-134901914D01*
X406210691Y-134880800D01*
X406656467Y-134790299D01*
X407218977Y-134636841D01*
X407710248Y-134479957D01*
X408139339Y-134322147D01*
X408474214Y-134174859D01*
X408660716Y-134062835D01*
X408680942Y-134036454D01*
X408622546Y-133906635D01*
X408434332Y-133642673D01*
X408144123Y-133280591D01*
X407779745Y-132856411D01*
X407701899Y-132768948D01*
X407281962Y-132299395D01*
X406883052Y-131852516D01*
X406549122Y-131477598D01*
X406324121Y-131223929D01*
X406317350Y-131216255D01*
X406093359Y-130986099D01*
X405932817Y-130864647D01*
X405891813Y-130860288D01*
X405875818Y-130983195D01*
X405858795Y-131291718D01*
X405841777Y-131739519D01*
X405825797Y-132280259D01*
X405811890Y-132867600D01*
X405801088Y-133455203D01*
X405794425Y-133996731D01*
X405792936Y-134445845D01*
X404192285Y-134445845D01*
X404191563Y-134047882D01*
X404193829Y-133130476D01*
X404196213Y-132508652D01*
X404211538Y-128714355D01*
X401967669Y-126541228D01*
X401366408Y-125965299D01*
X400812252Y-125446590D01*
X400328803Y-125006233D01*
X399939663Y-124665357D01*
X399668433Y-124445093D01*
X399538715Y-124366571D01*
X399538657Y-124366570D01*
X399466316Y-124419234D01*
X399404187Y-124587184D01*
X399351662Y-124883430D01*
X399308133Y-125320985D01*
X399272994Y-125912860D01*
X399245638Y-126672065D01*
X399225456Y-127611613D01*
X399211842Y-128744514D01*
X399204188Y-130083781D01*
X399201883Y-131581742D01*
X399200710Y-132759397D01*
X399196026Y-133727154D01*
X399186090Y-134507070D01*
X399169156Y-135121204D01*
X399143483Y-135591612D01*
X399107326Y-135940355D01*
X399058941Y-136189488D01*
X398996586Y-136361072D01*
X398918517Y-136477162D01*
X398822990Y-136559818D01*
X398807580Y-136570342D01*
X398488681Y-136655365D01*
X398139452Y-136541609D01*
X397917306Y-136359699D01*
X397636130Y-136060293D01*
X397619980Y-127748055D01*
X397618393Y-126369675D01*
X397618987Y-125051510D01*
X397621622Y-123813115D01*
X397626158Y-122674044D01*
X397632454Y-121653854D01*
X397640369Y-120772097D01*
X397649765Y-120048330D01*
X397660500Y-119502108D01*
X397672433Y-119152984D01*
X397682521Y-119029880D01*
X397761916Y-118755126D01*
X397910847Y-118631994D01*
X398182533Y-118588487D01*
X398524131Y-118607067D01*
X398822043Y-118758845D01*
X398981749Y-118890682D01*
X399359646Y-119228332D01*
X399411341Y-120578878D01*
X399438413Y-121107487D01*
X399473536Y-121539081D01*
X399512097Y-121828175D01*
X399548263Y-121929423D01*
X399643627Y-121849970D01*
X399889005Y-121620986D01*
X400269962Y-121256538D01*
X400772063Y-120770692D01*
X401380874Y-120177514D01*
X402081960Y-119491070D01*
X402860885Y-118725425D01*
X403703216Y-117894647D01*
X404594517Y-117012800D01*
X404636491Y-116971204D01*
X409639491Y-112012985D01*
X409575972Y-99312985D01*
X409563787Y-97103781D01*
X409550269Y-95075946D01*
X409535491Y-93234739D01*
X409519525Y-91585421D01*
X409502446Y-90133249D01*
X409484327Y-88883482D01*
X409465239Y-87841380D01*
X409445258Y-87012202D01*
X409424456Y-86401206D01*
X409402905Y-86013652D01*
X409389195Y-85887855D01*
X409328465Y-85462428D01*
X409328234Y-85185096D01*
X409393622Y-84978698D01*
X409456628Y-84871693D01*
X409567699Y-84730745D01*
X409701067Y-84654657D01*
X409894279Y-84648747D01*
X410184883Y-84718335D01*
X410610427Y-84868739D01*
X411208461Y-85105280D01*
X411263984Y-85127721D01*
X412742918Y-85815426D01*
X414251073Y-86682668D01*
X415736563Y-87691664D01*
X417147504Y-88804629D01*
X418432011Y-89983778D01*
X419457316Y-91094366D01*
X419934853Y-91681916D01*
X420351736Y-92233405D01*
X420689212Y-92720397D01*
X420928531Y-93114456D01*
X421050938Y-93387145D01*
X421046668Y-93504467D01*
X420904299Y-93566025D01*
X420583085Y-93676789D01*
X420127237Y-93822305D01*
X419580965Y-93988119D01*
X419440696Y-94029511D01*
X418873861Y-94200994D01*
X418381814Y-94359486D01*
X418010589Y-94489456D01*
X417806218Y-94575378D01*
X417787956Y-94587035D01*
X417731818Y-94702873D01*
X417690679Y-94963214D01*
X417663112Y-95389980D01*
X417647689Y-96005091D01*
X417642979Y-96812918D01*
X417634856Y-97735232D01*
X417605743Y-98461099D01*
X417548527Y-99025619D01*
X417456093Y-99463893D01*
X417321327Y-99811024D01*
X417137116Y-100102110D01*
X416928107Y-100340141D01*
X416654453Y-100597907D01*
X416470662Y-100681819D01*
X416317628Y-100595830D01*
X416166886Y-100391045D01*
X416117533Y-100300390D01*
X416076424Y-100178401D01*
X416042649Y-100003919D01*
X416015300Y-99755783D01*
X415993468Y-99412836D01*
X415976245Y-98953917D01*
X415962722Y-98357867D01*
X415951990Y-97603527D01*
X415943140Y-96669737D01*
X415935265Y-95535338D01*
X415931550Y-94910908D01*
X415916331Y-92262984D01*
X417410819Y-92262984D01*
X417430433Y-92566583D01*
X417488045Y-92740393D01*
X417488337Y-92740687D01*
X417567896Y-92799762D01*
X417686420Y-92806600D01*
X417914390Y-92756328D01*
X418135902Y-92695928D01*
X418411719Y-92586765D01*
X418557853Y-92465228D01*
X418565143Y-92435616D01*
X418483682Y-92260167D01*
X418288139Y-92021761D01*
X418036378Y-91774715D01*
X417786261Y-91573346D01*
X417595650Y-91471969D01*
X417541849Y-91475039D01*
X417470339Y-91627054D01*
X417425392Y-91919755D01*
X417410819Y-92262984D01*
X415916331Y-92262984D01*
X415901856Y-89744492D01*
X415641596Y-89541875D01*
X415101091Y-89141403D01*
X414501358Y-88731067D01*
X413872970Y-88328078D01*
X413246503Y-87949648D01*
X412652532Y-87612991D01*
X412121631Y-87335317D01*
X411684377Y-87133840D01*
X411371342Y-87025771D01*
X411213104Y-87028323D01*
X411202914Y-87043112D01*
X411188968Y-87194472D01*
X411177436Y-87556587D01*
X411168215Y-88110253D01*
X411161202Y-88836267D01*
X411156294Y-89715423D01*
X411153387Y-90728517D01*
X411152378Y-91856346D01*
X411153164Y-93079705D01*
X411155641Y-94379390D01*
X411159707Y-95736197D01*
X411165256Y-97130922D01*
X411172188Y-98544359D01*
X411180397Y-99957306D01*
X411189780Y-101350558D01*
X411200235Y-102704911D01*
X411211659Y-104001160D01*
X411223946Y-105220102D01*
X411236995Y-106342532D01*
X411250702Y-107349246D01*
X411264964Y-108221039D01*
X411279677Y-108938709D01*
X411294737Y-109483049D01*
X411310043Y-109834857D01*
X411325490Y-109974928D01*
X411326314Y-109976080D01*
X411432772Y-109947747D01*
X411669209Y-109772675D01*
X412041254Y-109445755D01*
X412554534Y-108961878D01*
X413214679Y-108315935D01*
X413810547Y-107721048D01*
X414603234Y-106930849D01*
X415257979Y-106295468D01*
X415794969Y-105800007D01*
X416234387Y-105429570D01*
X416596420Y-105169258D01*
X416901251Y-105004175D01*
X417169065Y-104919422D01*
X417420048Y-104900103D01*
X417606844Y-104919179D01*
X417958206Y-105023846D01*
X418243321Y-105185488D01*
X418253280Y-105194101D01*
X418393795Y-105329914D01*
X418508133Y-105478383D01*
X418598980Y-105663630D01*
X418669022Y-105909779D01*
X418720945Y-106240952D01*
X418757435Y-106681274D01*
X418781178Y-107254867D01*
X418794861Y-107985854D01*
X418801169Y-108898359D01*
X418802789Y-110016504D01*
X418802797Y-110129185D01*
X418805008Y-111322406D01*
X418813588Y-112310101D01*
X418831457Y-113118681D01*
X418861536Y-113774555D01*
X418906743Y-114304136D01*
X418969999Y-114733834D01*
X419054224Y-115090061D01*
X419162338Y-115399226D01*
X419297261Y-115687743D01*
X419447096Y-115956822D01*
X419989426Y-116669247D01*
X420700696Y-117282574D01*
X421527368Y-117763355D01*
X422415904Y-118078143D01*
X423002473Y-118178010D01*
X423922157Y-118151605D01*
X424829708Y-117916138D01*
X425697431Y-117493990D01*
X426497629Y-116907538D01*
X427202606Y-116179162D01*
X427784665Y-115331242D01*
X428216109Y-114386156D01*
X428379018Y-113833682D01*
X428437303Y-113487708D01*
X428483640Y-113017960D01*
X428517012Y-112474528D01*
X428536399Y-111907502D01*
X428540782Y-111366970D01*
X428529144Y-110903024D01*
X428500465Y-110565753D01*
X428453726Y-110405246D01*
X428448821Y-110401317D01*
X428336088Y-110456364D01*
X428086919Y-110646959D01*
X427731828Y-110947607D01*
X427301328Y-111332812D01*
X427003509Y-111608952D01*
X426522592Y-112048391D01*
X426078586Y-112431384D01*
X425707712Y-112728370D01*
X425446191Y-112909788D01*
X425360225Y-112950083D01*
X424856199Y-112965144D01*
X424355530Y-112788858D01*
X423924031Y-112453276D01*
X423698373Y-112140739D01*
X423645167Y-112017611D01*
X423600877Y-111846033D01*
X423564049Y-111602175D01*
X423533231Y-111262206D01*
X423506970Y-110802295D01*
X423483813Y-110198612D01*
X423462306Y-109427327D01*
X423440998Y-108464608D01*
X423425415Y-107663670D01*
X423395325Y-106293346D01*
X423360170Y-105139389D01*
X423319175Y-104186244D01*
X423271566Y-103418355D01*
X423216565Y-102820166D01*
X423165261Y-102444492D01*
X423049533Y-101678513D01*
X422997112Y-101105522D01*
X423015169Y-100693440D01*
X423110875Y-100410185D01*
X423291400Y-100223678D01*
X423563916Y-100101838D01*
X423697188Y-100064794D01*
X423981484Y-100054958D01*
X424237631Y-100215573D01*
X424283790Y-100260147D01*
X424418514Y-100434678D01*
X424527022Y-100684392D01*
X424623683Y-101056340D01*
X424722866Y-101597568D01*
X424756517Y-101808013D01*
X424891355Y-102720768D01*
X424995473Y-103558035D01*
X425072427Y-104373150D01*
X425125772Y-105219447D01*
X425159065Y-106150259D01*
X425175862Y-107218921D01*
X425179782Y-108156592D01*
X425185034Y-109177123D01*
X425199320Y-109970051D01*
X425222824Y-110539566D01*
X425255727Y-110889860D01*
X425298212Y-111025124D01*
X425304859Y-111027140D01*
X425421610Y-110949596D01*
X425676569Y-110733113D01*
X426043062Y-110401910D01*
X426494416Y-109980210D01*
X427003959Y-109492234D01*
X427131571Y-109368313D01*
X427720156Y-108797852D01*
X428427219Y-108116784D01*
X429202299Y-107373458D01*
X429994937Y-106616219D01*
X430754671Y-105893417D01*
X431095997Y-105569911D01*
X432500273Y-104233568D01*
X433729442Y-103048210D01*
X434784032Y-102013300D01*
X435664569Y-101128298D01*
X436371581Y-100392666D01*
X436905596Y-99805866D01*
X437267140Y-99367359D01*
X437456742Y-99076607D01*
X437458265Y-99073399D01*
X437515119Y-98947271D01*
X437562610Y-98817252D01*
X437601581Y-98662383D01*
X437632874Y-98461703D01*
X437657330Y-98194252D01*
X437675792Y-97839072D01*
X437689100Y-97375202D01*
X437698098Y-96781683D01*
X437703627Y-96037554D01*
X437706529Y-95121857D01*
X437707645Y-94013631D01*
X437707820Y-92860431D01*
X437707651Y-91461328D01*
X437705308Y-90273783D01*
X437698031Y-89277392D01*
X437683063Y-88451752D01*
X437657645Y-87776459D01*
X437619019Y-87231109D01*
X437564426Y-86795297D01*
X437491108Y-86448620D01*
X437396308Y-86170674D01*
X437277266Y-85941054D01*
X437131225Y-85739356D01*
X436955426Y-85545177D01*
X436747111Y-85338113D01*
X436682384Y-85274855D01*
X436220206Y-84865156D01*
X435794140Y-84595592D01*
X435352006Y-84420933D01*
X434641327Y-84277864D01*
X433894846Y-84263197D01*
X433200267Y-84373617D01*
X432805055Y-84517155D01*
X432540333Y-84688003D01*
X432120747Y-85017910D01*
X431553792Y-85500262D01*
X430846965Y-86128448D01*
X430007761Y-86895857D01*
X429043675Y-87795876D01*
X428429281Y-88376954D01*
X427443436Y-89313319D01*
X427943315Y-90224796D01*
X428215621Y-90736589D01*
X428535497Y-91360864D01*
X428853124Y-91999576D01*
X429010523Y-92325086D01*
X429241121Y-92796873D01*
X429438778Y-93180037D01*
X429581180Y-93432697D01*
X429643841Y-93513898D01*
X429746708Y-93435574D01*
X429972691Y-93223967D01*
X430285306Y-92914130D01*
X430549212Y-92644035D01*
X431014716Y-92185302D01*
X431369377Y-91902781D01*
X431642086Y-91787534D01*
X431861733Y-91830619D01*
X432057206Y-92023094D01*
X432141967Y-92151113D01*
X432256245Y-92411936D01*
X432330107Y-92770652D01*
X432364627Y-93255108D01*
X432360878Y-93893153D01*
X432319934Y-94712632D01*
X432268266Y-95427597D01*
X432176908Y-96587414D01*
X431246876Y-97553504D01*
X430830075Y-97977804D01*
X430530548Y-98255555D01*
X430311629Y-98413731D01*
X430136656Y-98479305D01*
X429985713Y-98481358D01*
X429649074Y-98332737D01*
X429362832Y-97998190D01*
X429158432Y-97522983D01*
X429088199Y-97189465D01*
X428976860Y-96651496D01*
X428777645Y-95963521D01*
X428561111Y-95330550D01*
X430320003Y-95330550D01*
X430390029Y-95353494D01*
X430407627Y-95348057D01*
X430558403Y-95210441D01*
X430649290Y-95038804D01*
X430682833Y-94865505D01*
X430615157Y-94859037D01*
X430485324Y-95001492D01*
X430390331Y-95157521D01*
X430320003Y-95330550D01*
X428561111Y-95330550D01*
X428510010Y-95181171D01*
X428193413Y-94360075D01*
X427847311Y-93555864D01*
X427726846Y-93297160D01*
X426584877Y-91149253D01*
X425249045Y-89083750D01*
X423741167Y-87125716D01*
X422083058Y-85300215D01*
X420296535Y-83632313D01*
X418403416Y-82147076D01*
X417465671Y-81507968D01*
X416209121Y-80745146D01*
X414848626Y-80012247D01*
X413461500Y-79347504D01*
X412125058Y-78789146D01*
X411524675Y-78570287D01*
X410560981Y-78264678D01*
X409495171Y-77971720D01*
X408389916Y-77705425D01*
X407307890Y-77479807D01*
X406311764Y-77308878D01*
X405464211Y-77206652D01*
X405404442Y-77201841D01*
X404446394Y-77128200D01*
X404462723Y-88713515D01*
X404479052Y-100298830D01*
X404171583Y-100878739D01*
X403851334Y-101400622D01*
X403494618Y-101786458D01*
X403053019Y-102066712D01*
X402478122Y-102271848D01*
X401721510Y-102432331D01*
X401695491Y-102436775D01*
X400794842Y-102597117D01*
X400111090Y-102735660D01*
X399630489Y-102855341D01*
X399431018Y-102920409D01*
X399283039Y-103025793D01*
X398992230Y-103276471D01*
X398579189Y-103653120D01*
X398064509Y-104136414D01*
X397468788Y-104707031D01*
X396812620Y-105345644D01*
X396165414Y-105984412D01*
X393192594Y-108937958D01*
X393112676Y-110011544D01*
X393103196Y-110258440D01*
X393094636Y-110722537D01*
X393087033Y-111389075D01*
X393080421Y-112243296D01*
X393074838Y-113270438D01*
X393070317Y-114455742D01*
X393066896Y-115784448D01*
X393064610Y-117241796D01*
X393063494Y-118813026D01*
X391428744Y-118813026D01*
X391428385Y-118544622D01*
X391425128Y-117114244D01*
X391420738Y-115783080D01*
X391415312Y-114567021D01*
X391408949Y-113481957D01*
X391401745Y-112543776D01*
X391393799Y-111768367D01*
X391385209Y-111171621D01*
X391376071Y-110769426D01*
X391366484Y-110577672D01*
X391362995Y-110563213D01*
X391266248Y-110641094D01*
X391024109Y-110861829D01*
X390657001Y-111206058D01*
X390185342Y-111654423D01*
X389629555Y-112187562D01*
X389010060Y-112786117D01*
X388671560Y-113114812D01*
X387931158Y-113832901D01*
X387336030Y-114403969D01*
X386866852Y-114844436D01*
X386504296Y-115170725D01*
X386229039Y-115399258D01*
X386021754Y-115546457D01*
X385863115Y-115628744D01*
X385733798Y-115662540D01*
X385668829Y-115666410D01*
X385488059Y-115661995D01*
X385339889Y-115634819D01*
X385221212Y-115563984D01*
X385128920Y-115428590D01*
X385059905Y-115207741D01*
X385011058Y-114880538D01*
X384979273Y-114426082D01*
X384961442Y-113823476D01*
X384954455Y-113051821D01*
X384955206Y-112090219D01*
X384960587Y-110917773D01*
X384960656Y-110904511D01*
X384965557Y-109713178D01*
X384964752Y-108727101D01*
X384955245Y-107919593D01*
X384934041Y-107263961D01*
X384898142Y-106733517D01*
X384844555Y-106301569D01*
X384770281Y-105941429D01*
X384672327Y-105626405D01*
X384547696Y-105329808D01*
X384393392Y-105024947D01*
X384276744Y-104811484D01*
X383865420Y-104210971D01*
X383318650Y-103609190D01*
X382707250Y-103074358D01*
X382102035Y-102674692D01*
X382009409Y-102627312D01*
X381188693Y-102342643D01*
X380280542Y-102223412D01*
X379364668Y-102274219D01*
X378692983Y-102435938D01*
X377706243Y-102870188D01*
X376870160Y-103458759D01*
X376170074Y-104216793D01*
X375591327Y-105159429D01*
X375217123Y-106026058D01*
X375083385Y-106435051D01*
X374990212Y-106857026D01*
X374927557Y-107357519D01*
X374885379Y-108002068D01*
X374873926Y-108265464D01*
X374857050Y-108840195D01*
X374853423Y-109340906D01*
X373159301Y-109340906D01*
X373205828Y-108240200D01*
X373289347Y-107276714D01*
X373416286Y-106452728D01*
X373595093Y-105722773D01*
X373834214Y-105041379D01*
X374059501Y-104532163D01*
X374659507Y-103524633D01*
X375424978Y-102635476D01*
X376324393Y-101883606D01*
X377326228Y-101287940D01*
X378398961Y-100867391D01*
X379511070Y-100640875D01*
X380574922Y-100622603D01*
X381778205Y-100825963D01*
X382879515Y-101235986D01*
X383871667Y-101847620D01*
X384747477Y-102655817D01*
X385499759Y-103655527D01*
X385898577Y-104364506D01*
X386089531Y-104762583D01*
X386242518Y-105136095D01*
X386362285Y-105518068D01*
X386453581Y-105941531D01*
X386521153Y-106439513D01*
X386569750Y-107045043D01*
X386604119Y-107791148D01*
X386629008Y-108710857D01*
X386644639Y-109554403D01*
X386661787Y-110389982D01*
X386683782Y-111142605D01*
X386709246Y-111783249D01*
X386736798Y-112282894D01*
X386765059Y-112612516D01*
X386792651Y-112743094D01*
X386796221Y-112743901D01*
X386907377Y-112655160D01*
X387155390Y-112430332D01*
X387511813Y-112096061D01*
X387948199Y-111678991D01*
X388381450Y-111259104D01*
X388864237Y-110790060D01*
X389476133Y-110198315D01*
X390178350Y-109521220D01*
X390932099Y-108796129D01*
X391698594Y-108060396D01*
X392439046Y-107351372D01*
X392476329Y-107315725D01*
X393219745Y-106601025D01*
X393994743Y-105848944D01*
X394761486Y-105098635D01*
X395480137Y-104389250D01*
X396110859Y-103759942D01*
X396613814Y-103249862D01*
X396624173Y-103239215D01*
X397135152Y-102725951D01*
X397620823Y-102260184D01*
X398047439Y-101872614D01*
X398381252Y-101593940D01*
X398582801Y-101457492D01*
X398823260Y-101375163D01*
X399235158Y-101265140D01*
X399761435Y-101139657D01*
X400345029Y-101010947D01*
X400928878Y-100891244D01*
X401455922Y-100792784D01*
X401869099Y-100727799D01*
X402077703Y-100708170D01*
X402320406Y-100604510D01*
X402562291Y-100356529D01*
X402741193Y-100043613D01*
X402797317Y-99789238D01*
X402787596Y-99662997D01*
X402748553Y-99527616D01*
X402665371Y-99365499D01*
X402523232Y-99159049D01*
X402307319Y-98890671D01*
X402002813Y-98542768D01*
X401594898Y-98097744D01*
X401068754Y-97538003D01*
X400409565Y-96845948D01*
X399661565Y-96065497D01*
X398806783Y-95166784D01*
X397903015Y-94201710D01*
X396975107Y-93197870D01*
X396047906Y-92182855D01*
X395146258Y-91184259D01*
X394295010Y-90229675D01*
X393519009Y-89346697D01*
X392843102Y-88562918D01*
X392292135Y-87905930D01*
X392089833Y-87656821D01*
X391544999Y-86947385D01*
X391142912Y-86343086D01*
X390857803Y-85789657D01*
X390663902Y-85232831D01*
X390535441Y-84618344D01*
X390489417Y-84286653D01*
X390470710Y-83822275D01*
X392094489Y-83822275D01*
X392210777Y-84670187D01*
X392462646Y-85404310D01*
X392472071Y-85423351D01*
X392646106Y-85709642D01*
X392932064Y-86110265D01*
X393304884Y-86595956D01*
X393739502Y-87137451D01*
X394210857Y-87705485D01*
X394693887Y-88270794D01*
X395163530Y-88804112D01*
X395594722Y-89276177D01*
X395962402Y-89657722D01*
X396241508Y-89919484D01*
X396406978Y-90032198D01*
X396421033Y-90034446D01*
X396451301Y-89923870D01*
X396481007Y-89613760D01*
X396508487Y-89136543D01*
X396532083Y-88524645D01*
X396550133Y-87810494D01*
X396557238Y-87375051D01*
X396569727Y-86517340D01*
X396583630Y-85859996D01*
X396601897Y-85371424D01*
X396627478Y-85020033D01*
X396663322Y-84774229D01*
X396712380Y-84602420D01*
X396777602Y-84473013D01*
X396836105Y-84388521D01*
X397100211Y-84125560D01*
X397395943Y-83948899D01*
X397399158Y-83947742D01*
X397655966Y-83895337D01*
X397843225Y-83997874D01*
X397938224Y-84105568D01*
X397997829Y-84191382D01*
X398045602Y-84302386D01*
X398082842Y-84463278D01*
X398110852Y-84698758D01*
X398130932Y-85033522D01*
X398144383Y-85492270D01*
X398152506Y-86099699D01*
X398156602Y-86880508D01*
X398157972Y-87859394D01*
X398158048Y-88278965D01*
X398158048Y-92180890D01*
X400390696Y-94522932D01*
X400974031Y-95131916D01*
X401506688Y-95682393D01*
X401967452Y-96152886D01*
X402335108Y-96521918D01*
X402588439Y-96768011D01*
X402706230Y-96869688D01*
X402710331Y-96871171D01*
X402731461Y-96761194D01*
X402751547Y-96446125D01*
X402769886Y-95952833D01*
X402785775Y-95308191D01*
X402798513Y-94539069D01*
X402807397Y-93672338D01*
X402810950Y-93020976D01*
X402815122Y-91518987D01*
X402817189Y-90002734D01*
X402817264Y-88490997D01*
X402815460Y-87002556D01*
X402811891Y-85556193D01*
X402806671Y-84170688D01*
X402799911Y-82864821D01*
X402791727Y-81657372D01*
X402782231Y-80567123D01*
X402771536Y-79612854D01*
X402759756Y-78813345D01*
X402747004Y-78187376D01*
X402733393Y-77753729D01*
X402719038Y-77531184D01*
X402717406Y-77520332D01*
X402649111Y-77126310D01*
X401244447Y-77198820D01*
X399732400Y-77345685D01*
X398297830Y-77620204D01*
X396962017Y-78012319D01*
X395746240Y-78511975D01*
X394671776Y-79109115D01*
X393759904Y-79793684D01*
X393031904Y-80555624D01*
X392546244Y-81309549D01*
X392263510Y-82070581D01*
X392112496Y-82931948D01*
X392094489Y-83822275D01*
X390470710Y-83822275D01*
X390438130Y-83013502D01*
X390603608Y-81820349D01*
X390983473Y-80711148D01*
X391575346Y-79689855D01*
X392376848Y-78760423D01*
X393385601Y-77926806D01*
X394599225Y-77192958D01*
X394825870Y-77078349D01*
X395838243Y-76634235D01*
X396989485Y-76221284D01*
X398186501Y-75870776D01*
X398969920Y-75685988D01*
X399599574Y-75590017D01*
X400411018Y-75521560D01*
X401355764Y-75480210D01*
X402385324Y-75465560D01*
X403451212Y-75477204D01*
G37*
D15*
%TO.C,J29*%
X300193750Y-108743750D02*
G75*
G02*
X298293750Y-108743750I-950000J0D01*
G01*
X298293750Y-108743750D02*
G75*
G02*
X300193750Y-108743750I950000J0D01*
G01*
%TO.C,J23*%
X300193750Y-115887500D02*
G75*
G02*
X298293750Y-115887500I-950000J0D01*
G01*
X298293750Y-115887500D02*
G75*
G02*
X300193750Y-115887500I950000J0D01*
G01*
%TO.C,J21*%
X300193750Y-118268750D02*
G75*
G02*
X298293750Y-118268750I-950000J0D01*
G01*
X298293750Y-118268750D02*
G75*
G02*
X300193750Y-118268750I950000J0D01*
G01*
%TO.C,J11*%
X354168750Y-113506250D02*
G75*
G02*
X352268750Y-113506250I-950000J0D01*
G01*
X352268750Y-113506250D02*
G75*
G02*
X354168750Y-113506250I950000J0D01*
G01*
%TO.C,J14*%
X331307184Y-117008098D02*
G75*
G02*
X329407184Y-117008098I-950000J0D01*
G01*
X329407184Y-117008098D02*
G75*
G02*
X331307184Y-117008098I950000J0D01*
G01*
%TO.C,J10*%
X327181250Y-123825000D02*
G75*
G02*
X325281250Y-123825000I-950000J0D01*
G01*
X325281250Y-123825000D02*
G75*
G02*
X327181250Y-123825000I950000J0D01*
G01*
%TO.C,J30*%
X302575000Y-107950000D02*
G75*
G02*
X300675000Y-107950000I-950000J0D01*
G01*
X300675000Y-107950000D02*
G75*
G02*
X302575000Y-107950000I950000J0D01*
G01*
%TO.C,J32*%
X302575000Y-105568750D02*
G75*
G02*
X300675000Y-105568750I-950000J0D01*
G01*
X300675000Y-105568750D02*
G75*
G02*
X302575000Y-105568750I950000J0D01*
G01*
%TO.C,J33*%
X300193750Y-103981250D02*
G75*
G02*
X298293750Y-103981250I-950000J0D01*
G01*
X298293750Y-103981250D02*
G75*
G02*
X300193750Y-103981250I950000J0D01*
G01*
%TO.C,J28*%
X302575000Y-110331250D02*
G75*
G02*
X300675000Y-110331250I-950000J0D01*
G01*
X300675000Y-110331250D02*
G75*
G02*
X302575000Y-110331250I950000J0D01*
G01*
%TO.C,J25*%
X300193750Y-113506250D02*
G75*
G02*
X298293750Y-113506250I-950000J0D01*
G01*
X298293750Y-113506250D02*
G75*
G02*
X300193750Y-113506250I950000J0D01*
G01*
%TO.C,J16*%
X347818750Y-121443750D02*
G75*
G02*
X345918750Y-121443750I-950000J0D01*
G01*
X345918750Y-121443750D02*
G75*
G02*
X347818750Y-121443750I950000J0D01*
G01*
%TO.C,J20*%
X338293750Y-121443750D02*
G75*
G02*
X336393750Y-121443750I-950000J0D01*
G01*
X336393750Y-121443750D02*
G75*
G02*
X338293750Y-121443750I950000J0D01*
G01*
%TO.C,J26*%
X302575000Y-112712500D02*
G75*
G02*
X300675000Y-112712500I-950000J0D01*
G01*
X300675000Y-112712500D02*
G75*
G02*
X302575000Y-112712500I950000J0D01*
G01*
%TO.C,J19*%
X340387500Y-123031250D02*
G75*
G02*
X338487500Y-123031250I-950000J0D01*
G01*
X338487500Y-123031250D02*
G75*
G02*
X340387500Y-123031250I950000J0D01*
G01*
%TO.C,J24*%
X302575000Y-115093750D02*
G75*
G02*
X300675000Y-115093750I-950000J0D01*
G01*
X300675000Y-115093750D02*
G75*
G02*
X302575000Y-115093750I950000J0D01*
G01*
%TO.C,J17*%
X345437500Y-123031250D02*
G75*
G02*
X343537500Y-123031250I-950000J0D01*
G01*
X343537500Y-123031250D02*
G75*
G02*
X345437500Y-123031250I950000J0D01*
G01*
%TO.C,J4*%
X327181250Y-121443750D02*
G75*
G02*
X325281250Y-121443750I-950000J0D01*
G01*
X325281250Y-121443750D02*
G75*
G02*
X327181250Y-121443750I950000J0D01*
G01*
%TO.C,J6*%
X356550000Y-109537500D02*
G75*
G02*
X354650000Y-109537500I-950000J0D01*
G01*
X354650000Y-109537500D02*
G75*
G02*
X356550000Y-109537500I950000J0D01*
G01*
%TO.C,J15*%
X350200000Y-123031250D02*
G75*
G02*
X348300000Y-123031250I-950000J0D01*
G01*
X348300000Y-123031250D02*
G75*
G02*
X350200000Y-123031250I950000J0D01*
G01*
%TO.C,J27*%
X300193750Y-111125000D02*
G75*
G02*
X298293750Y-111125000I-950000J0D01*
G01*
X298293750Y-111125000D02*
G75*
G02*
X300193750Y-111125000I950000J0D01*
G01*
%TO.C,J18*%
X343056250Y-121443750D02*
G75*
G02*
X341156250Y-121443750I-950000J0D01*
G01*
X341156250Y-121443750D02*
G75*
G02*
X343056250Y-121443750I950000J0D01*
G01*
%TO.C,J22*%
X302575000Y-117475000D02*
G75*
G02*
X300675000Y-117475000I-950000J0D01*
G01*
X300675000Y-117475000D02*
G75*
G02*
X302575000Y-117475000I950000J0D01*
G01*
%TO.C,J13*%
X354168750Y-115887500D02*
G75*
G02*
X352268750Y-115887500I-950000J0D01*
G01*
X352268750Y-115887500D02*
G75*
G02*
X354168750Y-115887500I950000J0D01*
G01*
%TO.C,J3*%
X311350000Y-120650000D02*
G75*
G02*
X309450000Y-120650000I-950000J0D01*
G01*
X309450000Y-120650000D02*
G75*
G02*
X311350000Y-120650000I950000J0D01*
G01*
%TO.C,J12*%
X356550000Y-114300000D02*
G75*
G02*
X354650000Y-114300000I-950000J0D01*
G01*
X354650000Y-114300000D02*
G75*
G02*
X356550000Y-114300000I950000J0D01*
G01*
%TO.C,J8*%
X356550000Y-111918750D02*
G75*
G02*
X354650000Y-111918750I-950000J0D01*
G01*
X354650000Y-111918750D02*
G75*
G02*
X356550000Y-111918750I950000J0D01*
G01*
%TO.C,J5*%
X354168750Y-108743750D02*
G75*
G02*
X352268750Y-108743750I-950000J0D01*
G01*
X352268750Y-108743750D02*
G75*
G02*
X354168750Y-108743750I950000J0D01*
G01*
%TO.C,J7*%
X354168750Y-111125000D02*
G75*
G02*
X352268750Y-111125000I-950000J0D01*
G01*
X352268750Y-111125000D02*
G75*
G02*
X354168750Y-111125000I950000J0D01*
G01*
%TO.C,J9*%
X424018750Y-60325000D02*
G75*
G02*
X422118750Y-60325000I-950000J0D01*
G01*
X422118750Y-60325000D02*
G75*
G02*
X424018750Y-60325000I950000J0D01*
G01*
%TD*%
M02*
