M48
; DRILL file {KiCad 8.0.8} date 2025-02-22T23:30:56+0100
; FORMAT={-:-/ absolute / inch / decimal}
; #@! TF.CreationDate,2025-02-22T23:30:56+01:00
; #@! TF.GenerationSoftware,Kicad,Pcbnew,8.0.8
; #@! TF.FileFunction,NonPlated,1,2,NPTH
FMAT,2
INCH
; #@! TA.AperFunction,NonPlated,NPTH,ComponentDrill
T1C0.0256
; #@! TA.AperFunction,NonPlated,NPTH,ComponentDrill
T2C0.0689
; #@! TA.AperFunction,NonPlated,NPTH,ComponentDrill
T3C0.1570
%
G90
G05
T1
X1.6675Y-1.7156
X1.895Y-1.7156
T2
X0.8312Y-1.9062
X0.8312Y-3.0312
X0.925Y-6.0312
X1.0188Y-3.7812
X1.1125Y-4.5312
X1.2312Y-1.9062
X1.2312Y-3.0312
X1.3Y-5.2812
X1.325Y-6.0312
X1.4187Y-3.7812
X1.5125Y-4.5312
X1.5813Y-3.0312
X1.7Y-5.2812
X1.8625Y-6.0312
X1.9563Y-3.7812
X1.9812Y-3.0312
X2.1437Y-4.5312
X2.2625Y-6.0312
X2.3312Y-1.9062
X2.3312Y-3.0312
X2.3562Y-3.7812
X2.5187Y-5.2812
X2.5437Y-4.5312
X2.7062Y-3.7812
X2.7312Y-1.9062
X2.7312Y-3.0312
X2.8Y-6.0312
X2.8937Y-4.5312
X2.9187Y-5.2812
X3.0812Y-1.9062
X3.0812Y-3.0312
X3.1062Y-3.7812
X3.2Y-6.0312
X3.2687Y-5.2812
X3.2937Y-4.5312
X3.4562Y-3.7812
X3.4812Y-1.9062
X3.4812Y-3.0312
X3.6437Y-4.5312
X3.6687Y-5.2812
X3.8312Y-1.9062
X3.8312Y-3.0312
X3.8562Y-3.7812
X4.0187Y-5.2812
X4.0438Y-4.5312
X4.2062Y-3.7812
X4.2313Y-1.9062
X4.2313Y-3.0312
X4.3937Y-4.5312
X4.4188Y-5.2812
X4.5812Y-1.9062
X4.5812Y-3.0312
X4.6063Y-3.7812
X4.7687Y-5.2812
X4.7938Y-4.5312
X4.9562Y-3.7812
X4.9813Y-1.9062
X4.9813Y-3.0312
X5.1437Y-4.5312
X5.1688Y-5.2812
X5.3312Y-3.0312
X5.3563Y-3.7812
X5.5187Y-5.2812
X5.5438Y-4.5312
X5.6125Y-6.0312
X5.7062Y-1.9062
X5.7062Y-3.7812
X5.7313Y-3.0312
X5.8937Y-4.5312
X5.9188Y-5.2812
X6.0125Y-6.0312
X6.0812Y-3.0312
X6.1063Y-1.9062
X6.1063Y-3.7812
X6.2687Y-5.2812
X6.2938Y-4.5312
X6.4562Y-1.9062
X6.4562Y-3.7812
X6.4813Y-3.0312
X6.6437Y-4.5312
X6.6688Y-5.2812
X6.8312Y-3.0312
X6.8563Y-1.9062
X6.8563Y-3.7812
X7.0187Y-5.2812
X7.0438Y-4.5312
X7.2062Y-1.9062
X7.2062Y-3.7812
X7.2313Y-3.0312
X7.3937Y-4.5312
X7.4188Y-5.2812
X7.5812Y-3.0312
X7.6063Y-1.9062
X7.6063Y-3.7812
X7.7687Y-5.2812
X7.7938Y-4.5312
X7.9562Y-1.9062
X7.9562Y-3.7812
X7.9813Y-3.0312
X8.1437Y-4.5312
X8.1687Y-5.2812
X8.3312Y-3.0312
X8.3562Y-1.9062
X8.3562Y-3.7812
X8.425Y-6.0312
X8.5187Y-5.2812
X8.5437Y-4.5312
X8.7062Y-3.7812
X8.7312Y-3.0312
X8.825Y-6.0312
X8.8937Y-4.5312
X8.9187Y-5.2812
X9.0812Y-1.9062
X9.0812Y-3.0312
X9.1062Y-3.7812
X9.2687Y-5.2812
X9.2937Y-4.5312
X9.3625Y-6.0312
X9.4562Y-3.7812
X9.4812Y-1.9062
X9.4812Y-3.0312
X9.6437Y-4.5312
X9.6687Y-5.2812
X9.7625Y-6.0312
X9.8312Y-1.9062
X9.8312Y-3.0312
X9.8562Y-3.7812
X10.0437Y-4.5312
X10.2062Y-3.7812
X10.2312Y-1.9062
X10.2312Y-3.0312
X10.3Y-6.0312
X10.5812Y-1.9062
X10.6062Y-3.7812
X10.675Y-5.2812
X10.7Y-6.0312
X10.8625Y-4.5312
X10.9562Y-3.0312
X10.9812Y-1.9062
X11.075Y-5.2812
X11.1437Y-3.7812
X11.2375Y-6.0312
X11.2625Y-4.5312
X11.3312Y-1.9062
X11.3562Y-3.0312
X11.5437Y-3.7812
X11.6375Y-6.0312
X11.7312Y-1.9062
X12.2687Y-3.0312
X12.2687Y-3.7812
X12.2687Y-6.0312
X12.6687Y-3.0312
X12.6687Y-3.7812
X12.6687Y-6.0312
X13.0187Y-3.0312
X13.0187Y-3.7812
X13.0187Y-5.2812
X13.0187Y-6.0312
X13.4187Y-3.0312
X13.4187Y-3.7812
X13.4187Y-5.2812
X13.4187Y-6.0312
X13.7687Y-3.0312
X13.7687Y-3.7812
X13.7687Y-6.0312
X14.1687Y-3.0312
X14.1687Y-3.7812
X14.1687Y-6.0312
X14.7062Y-3.0312
X14.7062Y-3.7812
X14.7062Y-4.5312
X14.7062Y-5.2812
X15.0812Y-6.0312
X15.1062Y-3.0312
X15.1062Y-3.7812
X15.1062Y-4.5312
X15.1062Y-5.2812
X15.4562Y-3.0312
X15.4562Y-3.7812
X15.4562Y-4.5312
X15.4562Y-5.2812
X15.4812Y-6.0312
X15.8562Y-3.0312
X15.8562Y-3.7812
X15.8562Y-4.5312
X15.8562Y-5.2812
X16.2063Y-3.0312
X16.2063Y-3.7812
X16.2063Y-4.5312
X16.2063Y-5.2812
X16.2063Y-6.0312
X16.6062Y-3.0312
X16.6062Y-3.7812
X16.6062Y-4.5312
X16.6062Y-5.2812
X16.6062Y-6.0312
X16.9563Y-1.9062
X16.9563Y-3.0312
X16.9563Y-4.1562
X16.9563Y-5.6562
X17.3562Y-1.9062
X17.3562Y-3.0312
X17.3562Y-4.1562
X17.3562Y-5.6562
T3
X1.0312Y-1.9062
X1.0312Y-3.0312
X1.0312Y-5.6063
X1.125Y-6.0312
X1.2188Y-3.7812
X1.3125Y-4.5312
X1.5Y-5.2812
X1.7812Y-3.0312
X1.9688Y-5.6063
X2.0625Y-6.0312
X2.1562Y-3.7812
X2.3438Y-4.5312
X2.5312Y-1.9062
X2.5312Y-3.0312
X2.7188Y-5.2812
X2.9062Y-3.7812
X3.0Y-6.0312
X3.0938Y-4.5312
X3.2812Y-1.9062
X3.2812Y-3.0312
X3.4688Y-5.2812
X3.6562Y-3.7812
X3.8438Y-4.5312
X3.8438Y-5.7062
X4.0312Y-1.9062
X4.0312Y-3.0312
X4.2188Y-5.2812
X4.4062Y-3.7812
X4.5938Y-4.5312
X4.7812Y-1.9062
X4.7812Y-3.0312
X4.9688Y-5.2812
X5.1562Y-3.7812
X5.3438Y-4.5312
X5.5312Y-3.0312
X5.7188Y-5.2812
X5.8125Y-6.0312
X5.9062Y-1.9062
X5.9062Y-3.7812
X6.0938Y-4.5312
X6.2812Y-3.0312
X6.4688Y-5.2812
X6.6562Y-1.9062
X6.6562Y-3.7812
X6.8438Y-4.5312
X7.0312Y-3.0312
X7.2188Y-5.2812
X7.4062Y-1.9062
X7.4062Y-3.7812
X7.5938Y-4.5312
X7.7812Y-3.0312
X7.7812Y-5.7062
X7.9688Y-5.2812
X8.1562Y-1.9062
X8.1562Y-3.7812
X8.3438Y-4.5312
X8.5312Y-3.0312
X8.625Y-6.0312
X8.7188Y-5.2812
X8.9062Y-3.7812
X9.0938Y-4.5312
X9.2812Y-1.9062
X9.2812Y-3.0312
X9.4688Y-5.2812
X9.5625Y-6.0312
X9.6562Y-3.7812
X9.8438Y-4.5312
X10.0312Y-1.9062
X10.0312Y-3.0312
X10.4062Y-3.7812
X10.4062Y-5.6063
X10.5Y-6.0312
X10.5938Y-4.2062
X10.6875Y-3.3562
X10.7812Y-1.9062
X10.875Y-5.2812
X11.0625Y-4.5312
X11.1562Y-3.0312
X11.3438Y-3.7812
X11.3438Y-5.6063
X11.4375Y-6.0312
X11.5312Y-1.9062
X11.5312Y-4.2062
X11.625Y-3.3562
X12.4688Y-3.0312
X12.4688Y-3.7812
X12.4688Y-6.0312
X13.2188Y-3.0312
X13.2188Y-3.7812
X13.2188Y-5.2812
X13.2188Y-6.0312
X13.9688Y-3.0312
X13.9688Y-3.7812
X13.9688Y-6.0312
X14.8125Y-5.7062
X14.9062Y-3.0312
X14.9062Y-3.7812
X14.9062Y-4.5312
X14.9062Y-5.2812
X15.2812Y-6.0312
X15.6562Y-3.0312
X15.6562Y-3.7812
X15.6562Y-4.5312
X15.6562Y-5.2812
X15.75Y-5.7062
X16.4062Y-3.0312
X16.4062Y-3.7812
X16.4062Y-4.5312
X16.4062Y-5.2812
X16.4062Y-6.0312
X16.8313Y-3.6875
X16.8313Y-4.625
X16.8313Y-5.1875
X16.8313Y-6.125
X17.1562Y-1.9062
X17.1562Y-3.0312
X17.1562Y-4.1562
X17.1562Y-5.6562
M30
