%TF.GenerationSoftware,KiCad,Pcbnew,8.0.8*%
%TF.CreationDate,2025-02-22T23:30:56+01:00*%
%TF.ProjectId,fullsized keybored 3v3,66756c6c-7369-47a6-9564-206b6579626f,rev?*%
%TF.SameCoordinates,Original*%
%TF.FileFunction,Paste,Bot*%
%TF.FilePolarity,Positive*%
%FSLAX46Y46*%
G04 Gerber Fmt 4.6, Leading zero omitted, Abs format (unit mm)*
G04 Created by KiCad (PCBNEW 8.0.8) date 2025-02-22 23:30:56*
%MOMM*%
%LPD*%
G01*
G04 APERTURE LIST*
G04 Aperture macros list*
%AMRoundRect*
0 Rectangle with rounded corners*
0 $1 Rounding radius*
0 $2 $3 $4 $5 $6 $7 $8 $9 X,Y pos of 4 corners*
0 Add a 4 corners polygon primitive as box body*
4,1,4,$2,$3,$4,$5,$6,$7,$8,$9,$2,$3,0*
0 Add four circle primitives for the rounded corners*
1,1,$1+$1,$2,$3*
1,1,$1+$1,$4,$5*
1,1,$1+$1,$6,$7*
1,1,$1+$1,$8,$9*
0 Add four rect primitives between the rounded corners*
20,1,$1+$1,$2,$3,$4,$5,0*
20,1,$1+$1,$4,$5,$6,$7,0*
20,1,$1+$1,$6,$7,$8,$9,0*
20,1,$1+$1,$8,$9,$2,$3,0*%
G04 Aperture macros list end*
%ADD10RoundRect,0.250000X0.300000X-0.300000X0.300000X0.300000X-0.300000X0.300000X-0.300000X-0.300000X0*%
%ADD11RoundRect,0.140000X-0.170000X0.140000X-0.170000X-0.140000X0.170000X-0.140000X0.170000X0.140000X0*%
%ADD12RoundRect,0.140000X0.170000X-0.140000X0.170000X0.140000X-0.170000X0.140000X-0.170000X-0.140000X0*%
%ADD13RoundRect,0.250000X1.025000X1.000000X-1.025000X1.000000X-1.025000X-1.000000X1.025000X-1.000000X0*%
%ADD14RoundRect,0.150000X0.150000X-0.512500X0.150000X0.512500X-0.150000X0.512500X-0.150000X-0.512500X0*%
%ADD15R,0.900000X0.300000*%
%ADD16R,0.250000X1.650000*%
%ADD17RoundRect,0.250000X-0.625000X0.375000X-0.625000X-0.375000X0.625000X-0.375000X0.625000X0.375000X0*%
%ADD18RoundRect,0.140000X-0.140000X-0.170000X0.140000X-0.170000X0.140000X0.170000X-0.140000X0.170000X0*%
%ADD19RoundRect,0.150000X0.587500X0.150000X-0.587500X0.150000X-0.587500X-0.150000X0.587500X-0.150000X0*%
%ADD20RoundRect,0.140000X0.140000X0.170000X-0.140000X0.170000X-0.140000X-0.170000X0.140000X-0.170000X0*%
%ADD21R,1.700000X1.000000*%
%ADD22RoundRect,0.135000X-0.185000X0.135000X-0.185000X-0.135000X0.185000X-0.135000X0.185000X0.135000X0*%
%ADD23RoundRect,0.135000X0.185000X-0.135000X0.185000X0.135000X-0.185000X0.135000X-0.185000X-0.135000X0*%
%ADD24RoundRect,0.250000X0.292217X0.292217X-0.292217X0.292217X-0.292217X-0.292217X0.292217X-0.292217X0*%
%ADD25RoundRect,0.050000X0.387500X0.050000X-0.387500X0.050000X-0.387500X-0.050000X0.387500X-0.050000X0*%
%ADD26RoundRect,0.050000X0.050000X0.387500X-0.050000X0.387500X-0.050000X-0.387500X0.050000X-0.387500X0*%
%ADD27RoundRect,0.200000X-0.335876X-0.053033X-0.053033X-0.335876X0.335876X0.053033X0.053033X0.335876X0*%
%ADD28R,1.400000X1.200000*%
%ADD29R,0.600000X1.450000*%
%ADD30R,0.300000X1.450000*%
G04 APERTURE END LIST*
D10*
%TO.C,D4*%
X105676670Y-51187500D03*
X105676670Y-48387500D03*
%TD*%
D11*
%TO.C,C14*%
X317656250Y-122088164D03*
X317656250Y-123048164D03*
%TD*%
D12*
%TO.C,C2*%
X323388496Y-124942500D03*
X323388496Y-123982500D03*
%TD*%
D13*
%TO.C,MX45*%
X199808750Y-93503750D03*
X213258750Y-90963750D03*
%TD*%
%TO.C,MX98*%
X309346250Y-150653750D03*
X322796250Y-148113750D03*
%TD*%
D14*
%TO.C,U2*%
X46193750Y-52431250D03*
X45243750Y-52431250D03*
X44293750Y-52431250D03*
X44293750Y-50156250D03*
X45243750Y-50156250D03*
X46193750Y-50156250D03*
%TD*%
D13*
%TO.C,MX57*%
X25977500Y-112553750D03*
X39427500Y-110013750D03*
%TD*%
%TO.C,MX27*%
X247433750Y-74453750D03*
X260883750Y-71913750D03*
%TD*%
D10*
%TO.C,D56*%
X439051670Y-108337500D03*
X439051670Y-105537500D03*
%TD*%
D13*
%TO.C,MX40*%
X104558750Y-93503750D03*
X118008750Y-90963750D03*
%TD*%
%TO.C,MX60*%
X90271250Y-112553750D03*
X103721250Y-110013750D03*
%TD*%
D10*
%TO.C,D98*%
X319989170Y-155962500D03*
X319989170Y-153162500D03*
%TD*%
D15*
%TO.C,IC1*%
X323818750Y-108631250D03*
X323818750Y-109131250D03*
X323818750Y-109631250D03*
X323818750Y-110131250D03*
X321018750Y-110131250D03*
X321018750Y-109631250D03*
X321018750Y-109131250D03*
X321018750Y-108631250D03*
D16*
X322418750Y-109381250D03*
%TD*%
D13*
%TO.C,MX17*%
X56933750Y-74453750D03*
X70383750Y-71913750D03*
%TD*%
%TO.C,MX84*%
X268865000Y-131603750D03*
X282315000Y-129063750D03*
%TD*%
D10*
%TO.C,D8*%
X191401670Y-51187500D03*
X191401670Y-48387500D03*
%TD*%
D17*
%TO.C,F1*%
X42068750Y-49706250D03*
X42068750Y-52506250D03*
%TD*%
D10*
%TO.C,D58*%
X62814170Y-119175000D03*
X62814170Y-116375000D03*
%TD*%
%TO.C,D85*%
X339039170Y-138225000D03*
X339039170Y-135425000D03*
%TD*%
D13*
%TO.C,MX33*%
X390308750Y-74453750D03*
X403758750Y-71913750D03*
%TD*%
%TO.C,MX7*%
X161708750Y-45878750D03*
X175158750Y-43338750D03*
%TD*%
%TO.C,MX8*%
X180758750Y-45878750D03*
X194208750Y-43338750D03*
%TD*%
D10*
%TO.C,D67*%
X234264170Y-117862500D03*
X234264170Y-115062500D03*
%TD*%
%TO.C,D35*%
X439051670Y-79762500D03*
X439051670Y-76962500D03*
%TD*%
%TO.C,D29*%
X319989170Y-79762500D03*
X319989170Y-76962500D03*
%TD*%
%TO.C,D24*%
X200926670Y-81075000D03*
X200926670Y-78275000D03*
%TD*%
D13*
%TO.C,MX18*%
X75983750Y-74453750D03*
X89433750Y-71913750D03*
%TD*%
D10*
%TO.C,D36*%
X34239170Y-98812500D03*
X34239170Y-96012500D03*
%TD*%
D13*
%TO.C,MX65*%
X185521250Y-112553750D03*
X198971250Y-110013750D03*
%TD*%
%TO.C,MX80*%
X175996250Y-131603750D03*
X189446250Y-129063750D03*
%TD*%
D10*
%TO.C,D22*%
X162826670Y-81075000D03*
X162826670Y-78275000D03*
%TD*%
%TO.C,D69*%
X284270420Y-119175000D03*
X284270420Y-116375000D03*
%TD*%
D18*
%TO.C,C13*%
X325113750Y-116895613D03*
X326073750Y-116895613D03*
%TD*%
D10*
%TO.C,D34*%
X420001670Y-81075000D03*
X420001670Y-78275000D03*
%TD*%
%TO.C,D41*%
X134251670Y-100125000D03*
X134251670Y-97325000D03*
%TD*%
D13*
%TO.C,MX88*%
X409358750Y-131603750D03*
X422808750Y-129063750D03*
%TD*%
%TO.C,MX38*%
X66458750Y-93503750D03*
X79908750Y-90963750D03*
%TD*%
D10*
%TO.C,D92*%
X79482920Y-155962500D03*
X79482920Y-153162500D03*
%TD*%
D13*
%TO.C,MX74*%
X61696250Y-131603750D03*
X75146250Y-129063750D03*
%TD*%
%TO.C,MX66*%
X204571250Y-112553750D03*
X218021250Y-110013750D03*
%TD*%
D10*
%TO.C,D7*%
X172351670Y-52500000D03*
X172351670Y-49700000D03*
%TD*%
D13*
%TO.C,MX71*%
X390308750Y-112553750D03*
X403758750Y-110013750D03*
%TD*%
D18*
%TO.C,C12*%
X324006250Y-112275000D03*
X324966250Y-112275000D03*
%TD*%
D10*
%TO.C,D74*%
X72339170Y-138225000D03*
X72339170Y-135425000D03*
%TD*%
%TO.C,D18*%
X86626670Y-81075000D03*
X86626670Y-78275000D03*
%TD*%
D13*
%TO.C,MX75*%
X80746250Y-131603750D03*
X94196250Y-129063750D03*
%TD*%
D19*
%TO.C,U3*%
X46181250Y-55406250D03*
X46181250Y-57306250D03*
X44306250Y-56356250D03*
%TD*%
D13*
%TO.C,MX39*%
X85508750Y-93503750D03*
X98958750Y-90963750D03*
%TD*%
%TO.C,MX83*%
X233146250Y-131603750D03*
X246596250Y-129063750D03*
%TD*%
%TO.C,MX76*%
X99796250Y-131603750D03*
X113246250Y-129063750D03*
%TD*%
%TO.C,MX78*%
X137896250Y-131603750D03*
X151346250Y-129063750D03*
%TD*%
%TO.C,MX87*%
X390308750Y-131603750D03*
X403758750Y-129063750D03*
%TD*%
%TO.C,MX79*%
X156946250Y-131603750D03*
X170396250Y-129063750D03*
%TD*%
%TO.C,MX95*%
X235527500Y-150653750D03*
X248977500Y-148113750D03*
%TD*%
%TO.C,MX1*%
X18833750Y-45878750D03*
X32283750Y-43338750D03*
%TD*%
D10*
%TO.C,D43*%
X172351670Y-100125000D03*
X172351670Y-97325000D03*
%TD*%
%TO.C,D45*%
X210451670Y-100125000D03*
X210451670Y-97325000D03*
%TD*%
D13*
%TO.C,MX93*%
X140277500Y-150653750D03*
X153727500Y-148113750D03*
%TD*%
D10*
%TO.C,D88*%
X420001670Y-138225000D03*
X420001670Y-135425000D03*
%TD*%
D13*
%TO.C,MX22*%
X152183750Y-74453750D03*
X165633750Y-71913750D03*
%TD*%
%TO.C,MX43*%
X161708750Y-93503750D03*
X175158750Y-90963750D03*
%TD*%
D10*
%TO.C,D19*%
X105676670Y-79762500D03*
X105676670Y-76962500D03*
%TD*%
D13*
%TO.C,MX97*%
X283152500Y-150653750D03*
X296602500Y-148113750D03*
%TD*%
%TO.C,MX62*%
X128371250Y-112553750D03*
X141821250Y-110013750D03*
%TD*%
D10*
%TO.C,D94*%
X222357920Y-157275000D03*
X222357920Y-154475000D03*
%TD*%
D13*
%TO.C,MX73*%
X30740000Y-131603750D03*
X44190000Y-129063750D03*
%TD*%
D12*
%TO.C,C8*%
X314237070Y-110186989D03*
X314237070Y-109226989D03*
%TD*%
D20*
%TO.C,C3*%
X321093496Y-126843750D03*
X320133496Y-126843750D03*
%TD*%
D12*
%TO.C,C16*%
X42662500Y-56836250D03*
X42662500Y-55876250D03*
%TD*%
D13*
%TO.C,MX2*%
X56933750Y-45878750D03*
X70383750Y-43338750D03*
%TD*%
D10*
%TO.C,D89*%
X439051670Y-146437500D03*
X439051670Y-143637500D03*
%TD*%
D13*
%TO.C,MX15*%
X18833750Y-74453750D03*
X32283750Y-71913750D03*
%TD*%
%TO.C,MX94*%
X211715000Y-150653750D03*
X225165000Y-148113750D03*
%TD*%
%TO.C,MX53*%
X371258750Y-93503750D03*
X384708750Y-90963750D03*
%TD*%
D21*
%TO.C,SW1*%
X343718750Y-106675000D03*
X350018750Y-106675000D03*
X343718750Y-102875000D03*
X350018750Y-102875000D03*
%TD*%
D10*
%TO.C,D46*%
X229501670Y-98812500D03*
X229501670Y-96012500D03*
%TD*%
%TO.C,D101*%
X391426670Y-155962500D03*
X391426670Y-153162500D03*
%TD*%
%TO.C,D83*%
X243789170Y-136912500D03*
X243789170Y-134112500D03*
%TD*%
%TO.C,D52*%
X358089170Y-98812500D03*
X358089170Y-96012500D03*
%TD*%
%TO.C,D31*%
X358089170Y-79762500D03*
X358089170Y-76962500D03*
%TD*%
D13*
%TO.C,MX101*%
X380783750Y-150653750D03*
X394233750Y-148113750D03*
%TD*%
D20*
%TO.C,C10*%
X312893750Y-112275000D03*
X311933750Y-112275000D03*
%TD*%
D21*
%TO.C,SWR1*%
X332606250Y-106675000D03*
X338906250Y-106675000D03*
X332606250Y-102875000D03*
X338906250Y-102875000D03*
%TD*%
D10*
%TO.C,D53*%
X381901670Y-100125000D03*
X381901670Y-97325000D03*
%TD*%
%TO.C,D90*%
X31857920Y-155962500D03*
X31857920Y-153162500D03*
%TD*%
D22*
%TO.C,R5*%
X43656250Y-46815000D03*
X43656250Y-47835000D03*
%TD*%
D13*
%TO.C,MX12*%
X266483750Y-45878750D03*
X279933750Y-43338750D03*
%TD*%
%TO.C,MX41*%
X123608750Y-93503750D03*
X137058750Y-90963750D03*
%TD*%
D12*
%TO.C,C5*%
X319243750Y-108753750D03*
X319243750Y-107793750D03*
%TD*%
D13*
%TO.C,MX92*%
X68840000Y-150653750D03*
X82290000Y-148113750D03*
%TD*%
D12*
%TO.C,C11*%
X318213008Y-108718379D03*
X318213008Y-107758379D03*
%TD*%
D13*
%TO.C,MX4*%
X95033750Y-45878750D03*
X108483750Y-43338750D03*
%TD*%
D18*
%TO.C,C1*%
X321145000Y-107551250D03*
X322105000Y-107551250D03*
%TD*%
D10*
%TO.C,D48*%
X267601670Y-98812500D03*
X267601670Y-96012500D03*
%TD*%
D13*
%TO.C,MX63*%
X147421250Y-112553750D03*
X160871250Y-110013750D03*
%TD*%
D10*
%TO.C,D84*%
X279507920Y-136912500D03*
X279507920Y-134112500D03*
%TD*%
D13*
%TO.C,MX34*%
X409358750Y-74453750D03*
X422808750Y-71913750D03*
%TD*%
%TO.C,MX3*%
X75983750Y-45878750D03*
X89433750Y-43338750D03*
%TD*%
D11*
%TO.C,C7*%
X47818750Y-55876250D03*
X47818750Y-56836250D03*
%TD*%
D10*
%TO.C,D21*%
X143776670Y-79762500D03*
X143776670Y-76962500D03*
%TD*%
%TO.C,D37*%
X58051670Y-100125000D03*
X58051670Y-97325000D03*
%TD*%
%TO.C,D76*%
X110439170Y-138225000D03*
X110439170Y-135425000D03*
%TD*%
%TO.C,D50*%
X319989170Y-98812500D03*
X319989170Y-96012500D03*
%TD*%
D13*
%TO.C,MX21*%
X133133750Y-74453750D03*
X146583750Y-71913750D03*
%TD*%
%TO.C,MX96*%
X259340000Y-150653750D03*
X272790000Y-148113750D03*
%TD*%
%TO.C,MX25*%
X209333750Y-74453750D03*
X222783750Y-71913750D03*
%TD*%
D10*
%TO.C,D14*%
X439051670Y-51187500D03*
X439051670Y-48387500D03*
%TD*%
%TO.C,D78*%
X148539170Y-138225000D03*
X148539170Y-135425000D03*
%TD*%
D13*
%TO.C,MX47*%
X237908750Y-93503750D03*
X251358750Y-90963750D03*
%TD*%
D23*
%TO.C,R4*%
X341312500Y-105285000D03*
X341312500Y-104265000D03*
%TD*%
D13*
%TO.C,MX26*%
X228383750Y-74453750D03*
X241833750Y-71913750D03*
%TD*%
%TO.C,MX50*%
X309346250Y-93503750D03*
X322796250Y-90963750D03*
%TD*%
D10*
%TO.C,D75*%
X91389170Y-136912500D03*
X91389170Y-134112500D03*
%TD*%
%TO.C,D64*%
X177114170Y-119175000D03*
X177114170Y-116375000D03*
%TD*%
D13*
%TO.C,MX11*%
X247433750Y-45878750D03*
X260883750Y-43338750D03*
%TD*%
D20*
%TO.C,C9*%
X312893750Y-111281250D03*
X311933750Y-111281250D03*
%TD*%
D13*
%TO.C,MX91*%
X45027500Y-150653750D03*
X58477500Y-148113750D03*
%TD*%
%TO.C,MX67*%
X223621250Y-112553750D03*
X237071250Y-110013750D03*
%TD*%
D10*
%TO.C,D63*%
X158064170Y-117862500D03*
X158064170Y-115062500D03*
%TD*%
D13*
%TO.C,MX30*%
X328396250Y-74453750D03*
X341846250Y-71913750D03*
%TD*%
D10*
%TO.C,D81*%
X205689170Y-136912500D03*
X205689170Y-134112500D03*
%TD*%
%TO.C,D102*%
X420001670Y-157275000D03*
X420001670Y-154475000D03*
%TD*%
%TO.C,D33*%
X400951670Y-79762500D03*
X400951670Y-76962500D03*
%TD*%
D12*
%TO.C,C4*%
X315275000Y-110175000D03*
X315275000Y-109215000D03*
%TD*%
D13*
%TO.C,MX9*%
X199808750Y-45878750D03*
X213258750Y-43338750D03*
%TD*%
D10*
%TO.C,D1*%
X29476670Y-51187500D03*
X29476670Y-48387500D03*
%TD*%
%TO.C,D26*%
X239026670Y-81075000D03*
X239026670Y-78275000D03*
%TD*%
%TO.C,D3*%
X86626670Y-52500000D03*
X86626670Y-49700000D03*
%TD*%
%TO.C,D65*%
X196164170Y-117862500D03*
X196164170Y-115062500D03*
%TD*%
%TO.C,D30*%
X339039170Y-81075000D03*
X339039170Y-78275000D03*
%TD*%
D13*
%TO.C,MX68*%
X242671250Y-112553750D03*
X256121250Y-110013750D03*
%TD*%
D24*
%TO.C,U1*%
X318931250Y-116525000D03*
X318931250Y-115250000D03*
X317656250Y-116525000D03*
X317656250Y-115250000D03*
D25*
X321731250Y-113287500D03*
X321731250Y-113687500D03*
X321731250Y-114087500D03*
X321731250Y-114487500D03*
X321731250Y-114887500D03*
X321731250Y-115287500D03*
X321731250Y-115687500D03*
X321731250Y-116087500D03*
X321731250Y-116487500D03*
X321731250Y-116887500D03*
X321731250Y-117287500D03*
X321731250Y-117687500D03*
X321731250Y-118087500D03*
X321731250Y-118487500D03*
D26*
X320893750Y-119325000D03*
X320493750Y-119325000D03*
X320093750Y-119325000D03*
X319693750Y-119325000D03*
X319293750Y-119325000D03*
X318893750Y-119325000D03*
X318493750Y-119325000D03*
X318093750Y-119325000D03*
X317693750Y-119325000D03*
X317293750Y-119325000D03*
X316893750Y-119325000D03*
X316493750Y-119325000D03*
X316093750Y-119325000D03*
X315693750Y-119325000D03*
D25*
X314856250Y-118487500D03*
X314856250Y-118087500D03*
X314856250Y-117687500D03*
X314856250Y-117287500D03*
X314856250Y-116887500D03*
X314856250Y-116487500D03*
X314856250Y-116087500D03*
X314856250Y-115687500D03*
X314856250Y-115287500D03*
X314856250Y-114887500D03*
X314856250Y-114487500D03*
X314856250Y-114087500D03*
X314856250Y-113687500D03*
X314856250Y-113287500D03*
D26*
X315693750Y-112450000D03*
X316093750Y-112450000D03*
X316493750Y-112450000D03*
X316893750Y-112450000D03*
X317293750Y-112450000D03*
X317693750Y-112450000D03*
X318093750Y-112450000D03*
X318493750Y-112450000D03*
X318893750Y-112450000D03*
X319293750Y-112450000D03*
X319693750Y-112450000D03*
X320093750Y-112450000D03*
X320493750Y-112450000D03*
X320893750Y-112450000D03*
%TD*%
D13*
%TO.C,MX72*%
X409358750Y-112553750D03*
X422808750Y-110013750D03*
%TD*%
D22*
%TO.C,R6*%
X47625000Y-46815000D03*
X47625000Y-47835000D03*
%TD*%
D13*
%TO.C,MX48*%
X256958750Y-93503750D03*
X270408750Y-90963750D03*
%TD*%
%TO.C,MX52*%
X347446250Y-93503750D03*
X360896250Y-90963750D03*
%TD*%
%TO.C,MX20*%
X114083750Y-74453750D03*
X127533750Y-71913750D03*
%TD*%
D10*
%TO.C,D23*%
X181876670Y-79762500D03*
X181876670Y-76962500D03*
%TD*%
%TO.C,D15*%
X29476670Y-79762500D03*
X29476670Y-76962500D03*
%TD*%
%TO.C,D71*%
X400951670Y-117862500D03*
X400951670Y-115062500D03*
%TD*%
%TO.C,D82*%
X224739170Y-138225000D03*
X224739170Y-135425000D03*
%TD*%
%TO.C,D96*%
X269982920Y-157275000D03*
X269982920Y-154475000D03*
%TD*%
%TO.C,D54*%
X400951670Y-98812500D03*
X400951670Y-96012500D03*
%TD*%
D13*
%TO.C,MX32*%
X371258750Y-74453750D03*
X384708750Y-71913750D03*
%TD*%
D10*
%TO.C,D6*%
X153301670Y-51187500D03*
X153301670Y-48387500D03*
%TD*%
D13*
%TO.C,MX51*%
X328396250Y-93503750D03*
X341846250Y-90963750D03*
%TD*%
D11*
%TO.C,C6*%
X316644746Y-122081250D03*
X316644746Y-123041250D03*
%TD*%
D27*
%TO.C,R2*%
X313180951Y-106123555D03*
X314347677Y-107290281D03*
%TD*%
D10*
%TO.C,D44*%
X191401670Y-98812500D03*
X191401670Y-96012500D03*
%TD*%
%TO.C,D59*%
X81864170Y-117862500D03*
X81864170Y-115062500D03*
%TD*%
D13*
%TO.C,MX36*%
X23596250Y-93503750D03*
X37046250Y-90963750D03*
%TD*%
D10*
%TO.C,D39*%
X96151670Y-100125000D03*
X96151670Y-97325000D03*
%TD*%
%TO.C,D28*%
X286651670Y-81075000D03*
X286651670Y-78275000D03*
%TD*%
%TO.C,D73*%
X41382920Y-136912500D03*
X41382920Y-134112500D03*
%TD*%
D23*
%TO.C,R8*%
X317838496Y-124972500D03*
X317838496Y-123952500D03*
%TD*%
D13*
%TO.C,MX102*%
X409358750Y-150653750D03*
X422808750Y-148113750D03*
%TD*%
%TO.C,MX64*%
X166471250Y-112553750D03*
X179921250Y-110013750D03*
%TD*%
%TO.C,MX69*%
X273627500Y-112553750D03*
X287077500Y-110013750D03*
%TD*%
%TO.C,MX35*%
X428408750Y-74453750D03*
X441858750Y-71913750D03*
%TD*%
D10*
%TO.C,D47*%
X248551670Y-100125000D03*
X248551670Y-97325000D03*
%TD*%
%TO.C,D97*%
X293795420Y-155962500D03*
X293795420Y-153162500D03*
%TD*%
%TO.C,D10*%
X239026670Y-51187500D03*
X239026670Y-48387500D03*
%TD*%
D20*
%TO.C,C15*%
X311786250Y-116895613D03*
X310826250Y-116895613D03*
%TD*%
D13*
%TO.C,MX82*%
X214096250Y-131603750D03*
X227546250Y-129063750D03*
%TD*%
D10*
%TO.C,D49*%
X291414170Y-100125000D03*
X291414170Y-97325000D03*
%TD*%
%TO.C,D42*%
X153301670Y-98812500D03*
X153301670Y-96012500D03*
%TD*%
D28*
%TO.C,Y1*%
X319513496Y-123612500D03*
X321713496Y-123612500D03*
X321713496Y-125312500D03*
X319513496Y-125312500D03*
%TD*%
D10*
%TO.C,D13*%
X296176670Y-52500000D03*
X296176670Y-49700000D03*
%TD*%
D13*
%TO.C,MX44*%
X180758750Y-93503750D03*
X194208750Y-90963750D03*
%TD*%
%TO.C,MX89*%
X428408750Y-141128750D03*
X441858750Y-138588750D03*
%TD*%
%TO.C,MX55*%
X409358750Y-93503750D03*
X422808750Y-90963750D03*
%TD*%
D10*
%TO.C,D68*%
X253314170Y-119175000D03*
X253314170Y-116375000D03*
%TD*%
D13*
%TO.C,MX23*%
X171233750Y-74453750D03*
X184683750Y-71913750D03*
%TD*%
%TO.C,MX61*%
X109321250Y-112553750D03*
X122771250Y-110013750D03*
%TD*%
%TO.C,MX58*%
X52171250Y-112553750D03*
X65621250Y-110013750D03*
%TD*%
%TO.C,MX46*%
X218858750Y-93503750D03*
X232308750Y-90963750D03*
%TD*%
D10*
%TO.C,D66*%
X215214170Y-119175000D03*
X215214170Y-116375000D03*
%TD*%
%TO.C,D62*%
X139014170Y-119175000D03*
X139014170Y-116375000D03*
%TD*%
D27*
%TO.C,R1*%
X314315573Y-105012175D03*
X315482299Y-106178901D03*
%TD*%
D13*
%TO.C,MX24*%
X190283750Y-74453750D03*
X203733750Y-71913750D03*
%TD*%
D10*
%TO.C,D77*%
X129489170Y-136912500D03*
X129489170Y-134112500D03*
%TD*%
D13*
%TO.C,MX42*%
X142658750Y-93503750D03*
X156108750Y-90963750D03*
%TD*%
%TO.C,MX54*%
X390308750Y-93503750D03*
X403758750Y-90963750D03*
%TD*%
D10*
%TO.C,D38*%
X77101670Y-98812500D03*
X77101670Y-96012500D03*
%TD*%
%TO.C,D40*%
X115201670Y-98812500D03*
X115201670Y-96012500D03*
%TD*%
%TO.C,D87*%
X400951670Y-136912500D03*
X400951670Y-134112500D03*
%TD*%
D13*
%TO.C,MX28*%
X276008750Y-74453750D03*
X289458750Y-71913750D03*
%TD*%
D10*
%TO.C,D20*%
X124726670Y-81075000D03*
X124726670Y-78275000D03*
%TD*%
%TO.C,D2*%
X67576670Y-51187500D03*
X67576670Y-48387500D03*
%TD*%
%TO.C,D51*%
X339039170Y-100125000D03*
X339039170Y-97325000D03*
%TD*%
%TO.C,D95*%
X246170420Y-155962500D03*
X246170420Y-153162500D03*
%TD*%
D13*
%TO.C,MX49*%
X280771250Y-93503750D03*
X294221250Y-90963750D03*
%TD*%
D10*
%TO.C,D32*%
X381901670Y-81075000D03*
X381901670Y-78275000D03*
%TD*%
%TO.C,D100*%
X358089170Y-155962500D03*
X358089170Y-153162500D03*
%TD*%
D23*
%TO.C,R7*%
X330200000Y-105285000D03*
X330200000Y-104265000D03*
%TD*%
D13*
%TO.C,MX90*%
X21215000Y-150653750D03*
X34665000Y-148113750D03*
%TD*%
%TO.C,MX16*%
X37883750Y-74453750D03*
X51333750Y-71913750D03*
%TD*%
%TO.C,MX70*%
X371258750Y-112553750D03*
X384708750Y-110013750D03*
%TD*%
D12*
%TO.C,C17*%
X48912500Y-56836250D03*
X48912500Y-55876250D03*
%TD*%
D13*
%TO.C,MX29*%
X309346250Y-74453750D03*
X322796250Y-71913750D03*
%TD*%
D29*
%TO.C,J1*%
X41993750Y-45020000D03*
X42793750Y-45020000D03*
D30*
X43993750Y-45020000D03*
X44993750Y-45020000D03*
X45493750Y-45020000D03*
X46493750Y-45020000D03*
D29*
X47693750Y-45020000D03*
X48493750Y-45020000D03*
X48493750Y-45020000D03*
X47693750Y-45020000D03*
D30*
X46993750Y-45020000D03*
X45993750Y-45020000D03*
X44493750Y-45020000D03*
X43493750Y-45020000D03*
D29*
X42793750Y-45020000D03*
X41993750Y-45020000D03*
%TD*%
D10*
%TO.C,D93*%
X150920420Y-157275000D03*
X150920420Y-154475000D03*
%TD*%
%TO.C,D11*%
X258076670Y-52500000D03*
X258076670Y-49700000D03*
%TD*%
D13*
%TO.C,MX13*%
X285533750Y-45878750D03*
X298983750Y-43338750D03*
%TD*%
D10*
%TO.C,D9*%
X210451670Y-52500000D03*
X210451670Y-49700000D03*
%TD*%
%TO.C,D17*%
X67576670Y-79762500D03*
X67576670Y-76962500D03*
%TD*%
%TO.C,D60*%
X100914170Y-119175000D03*
X100914170Y-116375000D03*
%TD*%
%TO.C,D80*%
X186639170Y-138225000D03*
X186639170Y-135425000D03*
%TD*%
D13*
%TO.C,MX56*%
X428408750Y-103028750D03*
X441858750Y-100488750D03*
%TD*%
%TO.C,MX31*%
X347446250Y-74453750D03*
X360896250Y-71913750D03*
%TD*%
D10*
%TO.C,D86*%
X381901670Y-138225000D03*
X381901670Y-135425000D03*
%TD*%
%TO.C,D27*%
X258076670Y-79762500D03*
X258076670Y-76962500D03*
%TD*%
D13*
%TO.C,MX99*%
X328396250Y-150653750D03*
X341846250Y-148113750D03*
%TD*%
D10*
%TO.C,D57*%
X36620420Y-117862500D03*
X36620420Y-115062500D03*
%TD*%
D13*
%TO.C,MX85*%
X328396250Y-131603750D03*
X341846250Y-129063750D03*
%TD*%
%TO.C,MX86*%
X371258750Y-131603750D03*
X384708750Y-129063750D03*
%TD*%
D10*
%TO.C,D55*%
X420001670Y-100125000D03*
X420001670Y-97325000D03*
%TD*%
D13*
%TO.C,MX37*%
X47408750Y-93503750D03*
X60858750Y-90963750D03*
%TD*%
D10*
%TO.C,D61*%
X119964170Y-117862500D03*
X119964170Y-115062500D03*
%TD*%
%TO.C,D79*%
X167589170Y-136912500D03*
X167589170Y-134112500D03*
%TD*%
D13*
%TO.C,MX14*%
X428408750Y-45878750D03*
X441858750Y-43338750D03*
%TD*%
%TO.C,MX6*%
X142658750Y-45878750D03*
X156108750Y-43338750D03*
%TD*%
D10*
%TO.C,D91*%
X55670420Y-157275000D03*
X55670420Y-154475000D03*
%TD*%
%TO.C,D72*%
X420001670Y-119175000D03*
X420001670Y-116375000D03*
%TD*%
%TO.C,D25*%
X219976670Y-79762500D03*
X219976670Y-76962500D03*
%TD*%
%TO.C,D12*%
X277126670Y-51187500D03*
X277126670Y-48387500D03*
%TD*%
%TO.C,D70*%
X381901670Y-119175000D03*
X381901670Y-116375000D03*
%TD*%
%TO.C,D16*%
X48526670Y-81075000D03*
X48526670Y-78275000D03*
%TD*%
D13*
%TO.C,MX81*%
X195046250Y-131603750D03*
X208496250Y-129063750D03*
%TD*%
%TO.C,MX19*%
X95033750Y-74453750D03*
X108483750Y-71913750D03*
%TD*%
%TO.C,MX5*%
X114083750Y-45878750D03*
X127533750Y-43338750D03*
%TD*%
%TO.C,MX10*%
X228383750Y-45878750D03*
X241833750Y-43338750D03*
%TD*%
%TO.C,MX100*%
X347446250Y-150653750D03*
X360896250Y-148113750D03*
%TD*%
D10*
%TO.C,D5*%
X124726670Y-52500000D03*
X124726670Y-49700000D03*
%TD*%
D13*
%TO.C,MX77*%
X118846250Y-131603750D03*
X132296250Y-129063750D03*
%TD*%
%TO.C,MX59*%
X71221250Y-112553750D03*
X84671250Y-110013750D03*
%TD*%
D10*
%TO.C,D99*%
X339039170Y-157275000D03*
X339039170Y-154475000D03*
%TD*%
M02*
