%TF.GenerationSoftware,KiCad,Pcbnew,8.0.8*%
%TF.CreationDate,2025-02-22T23:30:56+01:00*%
%TF.ProjectId,fullsized keybored 3v3,66756c6c-7369-47a6-9564-206b6579626f,rev?*%
%TF.SameCoordinates,Original*%
%TF.FileFunction,Soldermask,Bot*%
%TF.FilePolarity,Negative*%
%FSLAX46Y46*%
G04 Gerber Fmt 4.6, Leading zero omitted, Abs format (unit mm)*
G04 Created by KiCad (PCBNEW 8.0.8) date 2025-02-22 23:30:56*
%MOMM*%
%LPD*%
G01*
G04 APERTURE LIST*
G04 Aperture macros list*
%AMRoundRect*
0 Rectangle with rounded corners*
0 $1 Rounding radius*
0 $2 $3 $4 $5 $6 $7 $8 $9 X,Y pos of 4 corners*
0 Add a 4 corners polygon primitive as box body*
4,1,4,$2,$3,$4,$5,$6,$7,$8,$9,$2,$3,0*
0 Add four circle primitives for the rounded corners*
1,1,$1+$1,$2,$3*
1,1,$1+$1,$4,$5*
1,1,$1+$1,$6,$7*
1,1,$1+$1,$8,$9*
0 Add four rect primitives between the rounded corners*
20,1,$1+$1,$2,$3,$4,$5,0*
20,1,$1+$1,$4,$5,$6,$7,0*
20,1,$1+$1,$6,$7,$8,$9,0*
20,1,$1+$1,$8,$9,$2,$3,0*%
G04 Aperture macros list end*
%ADD10C,1.500000*%
%ADD11C,3.800000*%
%ADD12C,4.000000*%
%ADD13C,3.987800*%
%ADD14RoundRect,0.250000X0.300000X-0.300000X0.300000X0.300000X-0.300000X0.300000X-0.300000X-0.300000X0*%
%ADD15RoundRect,0.140000X-0.170000X0.140000X-0.170000X-0.140000X0.170000X-0.140000X0.170000X0.140000X0*%
%ADD16RoundRect,0.140000X0.170000X-0.140000X0.170000X0.140000X-0.170000X0.140000X-0.170000X-0.140000X0*%
%ADD17C,1.750000*%
%ADD18C,3.300000*%
%ADD19RoundRect,0.250000X1.025000X1.000000X-1.025000X1.000000X-1.025000X-1.000000X1.025000X-1.000000X0*%
%ADD20RoundRect,0.150000X0.150000X-0.512500X0.150000X0.512500X-0.150000X0.512500X-0.150000X-0.512500X0*%
%ADD21R,0.900000X0.300000*%
%ADD22R,0.250000X1.650000*%
%ADD23RoundRect,0.250000X-0.625000X0.375000X-0.625000X-0.375000X0.625000X-0.375000X0.625000X0.375000X0*%
%ADD24RoundRect,0.140000X-0.140000X-0.170000X0.140000X-0.170000X0.140000X0.170000X-0.140000X0.170000X0*%
%ADD25RoundRect,0.150000X0.587500X0.150000X-0.587500X0.150000X-0.587500X-0.150000X0.587500X-0.150000X0*%
%ADD26R,1.700000X1.700000*%
%ADD27O,1.700000X1.700000*%
%ADD28RoundRect,0.140000X0.140000X0.170000X-0.140000X0.170000X-0.140000X-0.170000X0.140000X-0.170000X0*%
%ADD29R,1.700000X1.000000*%
%ADD30RoundRect,0.135000X-0.185000X0.135000X-0.185000X-0.135000X0.185000X-0.135000X0.185000X0.135000X0*%
%ADD31RoundRect,0.135000X0.185000X-0.135000X0.185000X0.135000X-0.185000X0.135000X-0.185000X-0.135000X0*%
%ADD32RoundRect,0.050000X0.387500X0.050000X-0.387500X0.050000X-0.387500X-0.050000X0.387500X-0.050000X0*%
%ADD33RoundRect,0.050000X0.050000X0.387500X-0.050000X0.387500X-0.050000X-0.387500X0.050000X-0.387500X0*%
%ADD34RoundRect,0.144000X1.456000X1.456000X-1.456000X1.456000X-1.456000X-1.456000X1.456000X-1.456000X0*%
%ADD35RoundRect,0.200000X-0.335876X-0.053033X-0.053033X-0.335876X0.335876X0.053033X0.053033X0.335876X0*%
%ADD36R,1.400000X1.200000*%
%ADD37C,0.650000*%
%ADD38R,0.600000X1.450000*%
%ADD39R,0.300000X1.450000*%
%ADD40O,1.000000X1.600000*%
%ADD41O,1.000000X2.100000*%
G04 APERTURE END LIST*
D10*
%TO.C,J31*%
X299243750Y-106362500D03*
%TD*%
%TO.C,J29*%
X299243750Y-108743750D03*
%TD*%
%TO.C,J23*%
X299243750Y-115887500D03*
%TD*%
%TO.C,J21*%
X299243750Y-118268750D03*
%TD*%
%TO.C,J11*%
X353218750Y-113506250D03*
%TD*%
%TO.C,J14*%
X330357184Y-117008098D03*
%TD*%
D11*
%TO.C,H7*%
X283368750Y-145256250D03*
%TD*%
D10*
%TO.C,J10*%
X326231250Y-123825000D03*
%TD*%
%TO.C,J30*%
X301625000Y-107950000D03*
%TD*%
%TO.C,J32*%
X301625000Y-105568750D03*
%TD*%
%TO.C,J33*%
X299243750Y-103981250D03*
%TD*%
%TO.C,J28*%
X301625000Y-110331250D03*
%TD*%
D12*
%TO.C,S7*%
X442753750Y-131762500D03*
D13*
X427513750Y-131762500D03*
D12*
X442753750Y-155575000D03*
D13*
X427513750Y-155575000D03*
%TD*%
D10*
%TO.C,J25*%
X299243750Y-113506250D03*
%TD*%
D11*
%TO.C,H8*%
X426243750Y-145256250D03*
%TD*%
%TO.C,H3*%
X283368750Y-61912500D03*
%TD*%
D12*
%TO.C,S8*%
X442753750Y-93662500D03*
D13*
X427513750Y-93662500D03*
D12*
X442753750Y-117475000D03*
D13*
X427513750Y-117475000D03*
%TD*%
D10*
%TO.C,J16*%
X346868750Y-121443750D03*
%TD*%
D11*
%TO.C,H11*%
X367506250Y-105568750D03*
%TD*%
D10*
%TO.C,J20*%
X337343750Y-121443750D03*
%TD*%
%TO.C,J26*%
X301625000Y-112712500D03*
%TD*%
D11*
%TO.C,H1*%
X40481250Y-61912500D03*
%TD*%
D10*
%TO.C,J19*%
X339437500Y-123031250D03*
%TD*%
%TO.C,J24*%
X301625000Y-115093750D03*
%TD*%
%TO.C,J17*%
X344487500Y-123031250D03*
%TD*%
%TO.C,J4*%
X326231250Y-121443750D03*
%TD*%
D11*
%TO.C,H2*%
X174625000Y-61912500D03*
%TD*%
D12*
%TO.C,S2*%
X26193750Y-127158750D03*
D13*
X26193750Y-142398750D03*
D12*
X50006250Y-127158750D03*
D13*
X50006250Y-142398750D03*
%TD*%
D10*
%TO.C,J6*%
X355600000Y-109537500D03*
%TD*%
D11*
%TO.C,H4*%
X434181250Y-61912500D03*
%TD*%
%TO.C,H5*%
X40481250Y-145256250D03*
%TD*%
%TO.C,H6*%
X174625000Y-145256250D03*
%TD*%
D10*
%TO.C,J15*%
X349250000Y-123031250D03*
%TD*%
%TO.C,J27*%
X299243750Y-111125000D03*
%TD*%
%TO.C,J18*%
X342106250Y-121443750D03*
%TD*%
D12*
%TO.C,S3*%
X264318750Y-127158750D03*
D13*
X264318750Y-142398750D03*
D12*
X288131250Y-127158750D03*
D13*
X288131250Y-142398750D03*
%TD*%
D10*
%TO.C,J22*%
X301625000Y-117475000D03*
%TD*%
%TO.C,J13*%
X353218750Y-115887500D03*
%TD*%
%TO.C,J3*%
X310400000Y-120650000D03*
%TD*%
D12*
%TO.C,S1*%
X197643750Y-160178750D03*
D13*
X197643750Y-144938750D03*
D12*
X97631250Y-160178750D03*
D13*
X97631250Y-144938750D03*
%TD*%
D12*
%TO.C,S5*%
X271462500Y-70008750D03*
D13*
X271462500Y-85248750D03*
D12*
X295275000Y-70008750D03*
D13*
X295275000Y-85248750D03*
%TD*%
D11*
%TO.C,H10*%
X245268750Y-105568750D03*
%TD*%
D10*
%TO.C,J12*%
X355600000Y-114300000D03*
%TD*%
%TO.C,J8*%
X355600000Y-111918750D03*
%TD*%
%TO.C,J5*%
X353218750Y-108743750D03*
%TD*%
D12*
%TO.C,S6*%
X400050000Y-160178750D03*
D13*
X400050000Y-144938750D03*
D12*
X376237500Y-160178750D03*
D13*
X376237500Y-144938750D03*
%TD*%
D10*
%TO.C,J7*%
X353218750Y-111125000D03*
%TD*%
D12*
%TO.C,S4*%
X292893750Y-122078750D03*
D13*
X292893750Y-106838750D03*
D12*
X269081250Y-122078750D03*
D13*
X269081250Y-106838750D03*
%TD*%
D11*
%TO.C,H9*%
X111918750Y-105568750D03*
%TD*%
D10*
%TO.C,J9*%
X423068750Y-60325000D03*
%TD*%
D14*
%TO.C,D4*%
X105676670Y-51187500D03*
X105676670Y-48387500D03*
%TD*%
D15*
%TO.C,C14*%
X317656250Y-122088164D03*
X317656250Y-123048164D03*
%TD*%
D16*
%TO.C,C2*%
X323388496Y-124942500D03*
X323388496Y-123982500D03*
%TD*%
D17*
%TO.C,MX45*%
X212248750Y-96043750D03*
D13*
X207168750Y-96043750D03*
D17*
X202088750Y-96043750D03*
D18*
X203358750Y-93503750D03*
D19*
X199808750Y-93503750D03*
X213258750Y-90963750D03*
D18*
X209708750Y-90963750D03*
%TD*%
D17*
%TO.C,MX98*%
X321786250Y-153193750D03*
D13*
X316706250Y-153193750D03*
D17*
X311626250Y-153193750D03*
D18*
X312896250Y-150653750D03*
D19*
X309346250Y-150653750D03*
X322796250Y-148113750D03*
D18*
X319246250Y-148113750D03*
%TD*%
D20*
%TO.C,U2*%
X46193750Y-52431250D03*
X45243750Y-52431250D03*
X44293750Y-52431250D03*
X44293750Y-50156250D03*
X45243750Y-50156250D03*
X46193750Y-50156250D03*
%TD*%
D17*
%TO.C,MX57*%
X38417500Y-115093750D03*
D13*
X33337500Y-115093750D03*
D17*
X28257500Y-115093750D03*
D18*
X29527500Y-112553750D03*
D19*
X25977500Y-112553750D03*
X39427500Y-110013750D03*
D18*
X35877500Y-110013750D03*
%TD*%
D17*
%TO.C,MX27*%
X259873750Y-76993750D03*
D13*
X254793750Y-76993750D03*
D17*
X249713750Y-76993750D03*
D18*
X250983750Y-74453750D03*
D19*
X247433750Y-74453750D03*
X260883750Y-71913750D03*
D18*
X257333750Y-71913750D03*
%TD*%
D14*
%TO.C,D56*%
X439051670Y-108337500D03*
X439051670Y-105537500D03*
%TD*%
D17*
%TO.C,MX40*%
X116998750Y-96043750D03*
D13*
X111918750Y-96043750D03*
D17*
X106838750Y-96043750D03*
D18*
X108108750Y-93503750D03*
D19*
X104558750Y-93503750D03*
X118008750Y-90963750D03*
D18*
X114458750Y-90963750D03*
%TD*%
D17*
%TO.C,MX60*%
X102711250Y-115093750D03*
D13*
X97631250Y-115093750D03*
D17*
X92551250Y-115093750D03*
D18*
X93821250Y-112553750D03*
D19*
X90271250Y-112553750D03*
X103721250Y-110013750D03*
D18*
X100171250Y-110013750D03*
%TD*%
D14*
%TO.C,D98*%
X319989170Y-155962500D03*
X319989170Y-153162500D03*
%TD*%
D21*
%TO.C,IC1*%
X323818750Y-108631250D03*
X323818750Y-109131250D03*
X323818750Y-109631250D03*
X323818750Y-110131250D03*
X321018750Y-110131250D03*
X321018750Y-109631250D03*
X321018750Y-109131250D03*
X321018750Y-108631250D03*
D22*
X322418750Y-109381250D03*
%TD*%
D17*
%TO.C,MX17*%
X69373750Y-76993750D03*
D13*
X64293750Y-76993750D03*
D17*
X59213750Y-76993750D03*
D18*
X60483750Y-74453750D03*
D19*
X56933750Y-74453750D03*
X70383750Y-71913750D03*
D18*
X66833750Y-71913750D03*
%TD*%
D17*
%TO.C,MX84*%
X281305000Y-134143750D03*
D13*
X276225000Y-134143750D03*
D17*
X271145000Y-134143750D03*
D18*
X272415000Y-131603750D03*
D19*
X268865000Y-131603750D03*
X282315000Y-129063750D03*
D18*
X278765000Y-129063750D03*
%TD*%
D14*
%TO.C,D8*%
X191401670Y-51187500D03*
X191401670Y-48387500D03*
%TD*%
D23*
%TO.C,F1*%
X42068750Y-49706250D03*
X42068750Y-52506250D03*
%TD*%
D14*
%TO.C,D58*%
X62814170Y-119175000D03*
X62814170Y-116375000D03*
%TD*%
%TO.C,D85*%
X339039170Y-138225000D03*
X339039170Y-135425000D03*
%TD*%
D17*
%TO.C,MX33*%
X402748750Y-76993750D03*
D13*
X397668750Y-76993750D03*
D17*
X392588750Y-76993750D03*
D18*
X393858750Y-74453750D03*
D19*
X390308750Y-74453750D03*
X403758750Y-71913750D03*
D18*
X400208750Y-71913750D03*
%TD*%
D17*
%TO.C,MX7*%
X174148750Y-48418750D03*
D13*
X169068750Y-48418750D03*
D17*
X163988750Y-48418750D03*
D18*
X165258750Y-45878750D03*
D19*
X161708750Y-45878750D03*
X175158750Y-43338750D03*
D18*
X171608750Y-43338750D03*
%TD*%
D17*
%TO.C,MX8*%
X193198750Y-48418750D03*
D13*
X188118750Y-48418750D03*
D17*
X183038750Y-48418750D03*
D18*
X184308750Y-45878750D03*
D19*
X180758750Y-45878750D03*
X194208750Y-43338750D03*
D18*
X190658750Y-43338750D03*
%TD*%
D14*
%TO.C,D67*%
X234264170Y-117862500D03*
X234264170Y-115062500D03*
%TD*%
%TO.C,D35*%
X439051670Y-79762500D03*
X439051670Y-76962500D03*
%TD*%
%TO.C,D29*%
X319989170Y-79762500D03*
X319989170Y-76962500D03*
%TD*%
%TO.C,D24*%
X200926670Y-81075000D03*
X200926670Y-78275000D03*
%TD*%
D17*
%TO.C,MX18*%
X88423750Y-76993750D03*
D13*
X83343750Y-76993750D03*
D17*
X78263750Y-76993750D03*
D18*
X79533750Y-74453750D03*
D19*
X75983750Y-74453750D03*
X89433750Y-71913750D03*
D18*
X85883750Y-71913750D03*
%TD*%
D14*
%TO.C,D36*%
X34239170Y-98812500D03*
X34239170Y-96012500D03*
%TD*%
D17*
%TO.C,MX65*%
X197961250Y-115093750D03*
D13*
X192881250Y-115093750D03*
D17*
X187801250Y-115093750D03*
D18*
X189071250Y-112553750D03*
D19*
X185521250Y-112553750D03*
X198971250Y-110013750D03*
D18*
X195421250Y-110013750D03*
%TD*%
D17*
%TO.C,MX80*%
X188436250Y-134143750D03*
D13*
X183356250Y-134143750D03*
D17*
X178276250Y-134143750D03*
D18*
X179546250Y-131603750D03*
D19*
X175996250Y-131603750D03*
X189446250Y-129063750D03*
D18*
X185896250Y-129063750D03*
%TD*%
D14*
%TO.C,D22*%
X162826670Y-81075000D03*
X162826670Y-78275000D03*
%TD*%
%TO.C,D69*%
X284270420Y-119175000D03*
X284270420Y-116375000D03*
%TD*%
D24*
%TO.C,C13*%
X325113750Y-116895613D03*
X326073750Y-116895613D03*
%TD*%
D14*
%TO.C,D34*%
X420001670Y-81075000D03*
X420001670Y-78275000D03*
%TD*%
%TO.C,D41*%
X134251670Y-100125000D03*
X134251670Y-97325000D03*
%TD*%
D17*
%TO.C,MX88*%
X421798750Y-134143750D03*
D13*
X416718750Y-134143750D03*
D17*
X411638750Y-134143750D03*
D18*
X412908750Y-131603750D03*
D19*
X409358750Y-131603750D03*
X422808750Y-129063750D03*
D18*
X419258750Y-129063750D03*
%TD*%
D17*
%TO.C,MX38*%
X78898750Y-96043750D03*
D13*
X73818750Y-96043750D03*
D17*
X68738750Y-96043750D03*
D18*
X70008750Y-93503750D03*
D19*
X66458750Y-93503750D03*
X79908750Y-90963750D03*
D18*
X76358750Y-90963750D03*
%TD*%
D14*
%TO.C,D92*%
X79482920Y-155962500D03*
X79482920Y-153162500D03*
%TD*%
D17*
%TO.C,MX74*%
X74136250Y-134143750D03*
D13*
X69056250Y-134143750D03*
D17*
X63976250Y-134143750D03*
D18*
X65246250Y-131603750D03*
D19*
X61696250Y-131603750D03*
X75146250Y-129063750D03*
D18*
X71596250Y-129063750D03*
%TD*%
D17*
%TO.C,MX66*%
X217011250Y-115093750D03*
D13*
X211931250Y-115093750D03*
D17*
X206851250Y-115093750D03*
D18*
X208121250Y-112553750D03*
D19*
X204571250Y-112553750D03*
X218021250Y-110013750D03*
D18*
X214471250Y-110013750D03*
%TD*%
D14*
%TO.C,D7*%
X172351670Y-52500000D03*
X172351670Y-49700000D03*
%TD*%
D17*
%TO.C,MX71*%
X402748750Y-115093750D03*
D13*
X397668750Y-115093750D03*
D17*
X392588750Y-115093750D03*
D18*
X393858750Y-112553750D03*
D19*
X390308750Y-112553750D03*
X403758750Y-110013750D03*
D18*
X400208750Y-110013750D03*
%TD*%
D24*
%TO.C,C12*%
X324006250Y-112275000D03*
X324966250Y-112275000D03*
%TD*%
D14*
%TO.C,D74*%
X72339170Y-138225000D03*
X72339170Y-135425000D03*
%TD*%
%TO.C,D18*%
X86626670Y-81075000D03*
X86626670Y-78275000D03*
%TD*%
D17*
%TO.C,MX75*%
X93186250Y-134143750D03*
D13*
X88106250Y-134143750D03*
D17*
X83026250Y-134143750D03*
D18*
X84296250Y-131603750D03*
D19*
X80746250Y-131603750D03*
X94196250Y-129063750D03*
D18*
X90646250Y-129063750D03*
%TD*%
D25*
%TO.C,U3*%
X46181250Y-55406250D03*
X46181250Y-57306250D03*
X44306250Y-56356250D03*
%TD*%
D17*
%TO.C,MX39*%
X97948750Y-96043750D03*
D13*
X92868750Y-96043750D03*
D17*
X87788750Y-96043750D03*
D18*
X89058750Y-93503750D03*
D19*
X85508750Y-93503750D03*
X98958750Y-90963750D03*
D18*
X95408750Y-90963750D03*
%TD*%
D17*
%TO.C,MX83*%
X245586250Y-134143750D03*
D13*
X240506250Y-134143750D03*
D17*
X235426250Y-134143750D03*
D18*
X236696250Y-131603750D03*
D19*
X233146250Y-131603750D03*
X246596250Y-129063750D03*
D18*
X243046250Y-129063750D03*
%TD*%
D17*
%TO.C,MX76*%
X112236250Y-134143750D03*
D13*
X107156250Y-134143750D03*
D17*
X102076250Y-134143750D03*
D18*
X103346250Y-131603750D03*
D19*
X99796250Y-131603750D03*
X113246250Y-129063750D03*
D18*
X109696250Y-129063750D03*
%TD*%
D17*
%TO.C,MX78*%
X150336250Y-134143750D03*
D13*
X145256250Y-134143750D03*
D17*
X140176250Y-134143750D03*
D18*
X141446250Y-131603750D03*
D19*
X137896250Y-131603750D03*
X151346250Y-129063750D03*
D18*
X147796250Y-129063750D03*
%TD*%
D17*
%TO.C,MX87*%
X402748750Y-134143750D03*
D13*
X397668750Y-134143750D03*
D17*
X392588750Y-134143750D03*
D18*
X393858750Y-131603750D03*
D19*
X390308750Y-131603750D03*
X403758750Y-129063750D03*
D18*
X400208750Y-129063750D03*
%TD*%
D17*
%TO.C,MX79*%
X169386250Y-134143750D03*
D13*
X164306250Y-134143750D03*
D17*
X159226250Y-134143750D03*
D18*
X160496250Y-131603750D03*
D19*
X156946250Y-131603750D03*
X170396250Y-129063750D03*
D18*
X166846250Y-129063750D03*
%TD*%
D17*
%TO.C,MX95*%
X247967500Y-153193750D03*
D13*
X242887500Y-153193750D03*
D17*
X237807500Y-153193750D03*
D18*
X239077500Y-150653750D03*
D19*
X235527500Y-150653750D03*
X248977500Y-148113750D03*
D18*
X245427500Y-148113750D03*
%TD*%
D26*
%TO.C,J2*%
X423068750Y-55562500D03*
D27*
X423068750Y-53022500D03*
X423068750Y-50482500D03*
X423068750Y-47942500D03*
X423068750Y-45402500D03*
X423068750Y-42862500D03*
%TD*%
D17*
%TO.C,MX1*%
X31273750Y-48418750D03*
D13*
X26193750Y-48418750D03*
D17*
X21113750Y-48418750D03*
D18*
X22383750Y-45878750D03*
D19*
X18833750Y-45878750D03*
X32283750Y-43338750D03*
D18*
X28733750Y-43338750D03*
%TD*%
D14*
%TO.C,D43*%
X172351670Y-100125000D03*
X172351670Y-97325000D03*
%TD*%
%TO.C,D45*%
X210451670Y-100125000D03*
X210451670Y-97325000D03*
%TD*%
D17*
%TO.C,MX93*%
X152717500Y-153193750D03*
D13*
X147637500Y-153193750D03*
D17*
X142557500Y-153193750D03*
D18*
X143827500Y-150653750D03*
D19*
X140277500Y-150653750D03*
X153727500Y-148113750D03*
D18*
X150177500Y-148113750D03*
%TD*%
D14*
%TO.C,D88*%
X420001670Y-138225000D03*
X420001670Y-135425000D03*
%TD*%
D17*
%TO.C,MX22*%
X164623750Y-76993750D03*
D13*
X159543750Y-76993750D03*
D17*
X154463750Y-76993750D03*
D18*
X155733750Y-74453750D03*
D19*
X152183750Y-74453750D03*
X165633750Y-71913750D03*
D18*
X162083750Y-71913750D03*
%TD*%
D17*
%TO.C,MX43*%
X174148750Y-96043750D03*
D13*
X169068750Y-96043750D03*
D17*
X163988750Y-96043750D03*
D18*
X165258750Y-93503750D03*
D19*
X161708750Y-93503750D03*
X175158750Y-90963750D03*
D18*
X171608750Y-90963750D03*
%TD*%
D14*
%TO.C,D19*%
X105676670Y-79762500D03*
X105676670Y-76962500D03*
%TD*%
D17*
%TO.C,MX97*%
X295592500Y-153193750D03*
D13*
X290512500Y-153193750D03*
D17*
X285432500Y-153193750D03*
D18*
X286702500Y-150653750D03*
D19*
X283152500Y-150653750D03*
X296602500Y-148113750D03*
D18*
X293052500Y-148113750D03*
%TD*%
D17*
%TO.C,MX62*%
X140811250Y-115093750D03*
D13*
X135731250Y-115093750D03*
D17*
X130651250Y-115093750D03*
D18*
X131921250Y-112553750D03*
D19*
X128371250Y-112553750D03*
X141821250Y-110013750D03*
D18*
X138271250Y-110013750D03*
%TD*%
D14*
%TO.C,D94*%
X222357920Y-157275000D03*
X222357920Y-154475000D03*
%TD*%
D17*
%TO.C,MX73*%
X43180000Y-134143750D03*
D13*
X38100000Y-134143750D03*
D17*
X33020000Y-134143750D03*
D18*
X34290000Y-131603750D03*
D19*
X30740000Y-131603750D03*
X44190000Y-129063750D03*
D18*
X40640000Y-129063750D03*
%TD*%
D16*
%TO.C,C8*%
X314237070Y-110186989D03*
X314237070Y-109226989D03*
%TD*%
D28*
%TO.C,C3*%
X321093496Y-126843750D03*
X320133496Y-126843750D03*
%TD*%
D16*
%TO.C,C16*%
X42662500Y-56836250D03*
X42662500Y-55876250D03*
%TD*%
D17*
%TO.C,MX2*%
X69373750Y-48418750D03*
D13*
X64293750Y-48418750D03*
D17*
X59213750Y-48418750D03*
D18*
X60483750Y-45878750D03*
D19*
X56933750Y-45878750D03*
X70383750Y-43338750D03*
D18*
X66833750Y-43338750D03*
%TD*%
D14*
%TO.C,D89*%
X439051670Y-146437500D03*
X439051670Y-143637500D03*
%TD*%
D17*
%TO.C,MX15*%
X31273750Y-76993750D03*
D13*
X26193750Y-76993750D03*
D17*
X21113750Y-76993750D03*
D18*
X22383750Y-74453750D03*
D19*
X18833750Y-74453750D03*
X32283750Y-71913750D03*
D18*
X28733750Y-71913750D03*
%TD*%
D17*
%TO.C,MX94*%
X224155000Y-153193750D03*
D13*
X219075000Y-153193750D03*
D17*
X213995000Y-153193750D03*
D18*
X215265000Y-150653750D03*
D19*
X211715000Y-150653750D03*
X225165000Y-148113750D03*
D18*
X221615000Y-148113750D03*
%TD*%
D17*
%TO.C,MX53*%
X383698750Y-96043750D03*
D13*
X378618750Y-96043750D03*
D17*
X373538750Y-96043750D03*
D18*
X374808750Y-93503750D03*
D19*
X371258750Y-93503750D03*
X384708750Y-90963750D03*
D18*
X381158750Y-90963750D03*
%TD*%
D29*
%TO.C,SW1*%
X343718750Y-106675000D03*
X350018750Y-106675000D03*
X343718750Y-102875000D03*
X350018750Y-102875000D03*
%TD*%
D14*
%TO.C,D46*%
X229501670Y-98812500D03*
X229501670Y-96012500D03*
%TD*%
%TO.C,D101*%
X391426670Y-155962500D03*
X391426670Y-153162500D03*
%TD*%
%TO.C,D83*%
X243789170Y-136912500D03*
X243789170Y-134112500D03*
%TD*%
%TO.C,D52*%
X358089170Y-98812500D03*
X358089170Y-96012500D03*
%TD*%
%TO.C,D31*%
X358089170Y-79762500D03*
X358089170Y-76962500D03*
%TD*%
D17*
%TO.C,MX101*%
X393223750Y-153193750D03*
D13*
X388143750Y-153193750D03*
D17*
X383063750Y-153193750D03*
D18*
X384333750Y-150653750D03*
D19*
X380783750Y-150653750D03*
X394233750Y-148113750D03*
D18*
X390683750Y-148113750D03*
%TD*%
D28*
%TO.C,C10*%
X312893750Y-112275000D03*
X311933750Y-112275000D03*
%TD*%
D29*
%TO.C,SWR1*%
X332606250Y-106675000D03*
X338906250Y-106675000D03*
X332606250Y-102875000D03*
X338906250Y-102875000D03*
%TD*%
D14*
%TO.C,D53*%
X381901670Y-100125000D03*
X381901670Y-97325000D03*
%TD*%
%TO.C,D90*%
X31857920Y-155962500D03*
X31857920Y-153162500D03*
%TD*%
D30*
%TO.C,R5*%
X43656250Y-46815000D03*
X43656250Y-47835000D03*
%TD*%
D17*
%TO.C,MX12*%
X278923750Y-48418750D03*
D13*
X273843750Y-48418750D03*
D17*
X268763750Y-48418750D03*
D18*
X270033750Y-45878750D03*
D19*
X266483750Y-45878750D03*
X279933750Y-43338750D03*
D18*
X276383750Y-43338750D03*
%TD*%
D17*
%TO.C,MX41*%
X136048750Y-96043750D03*
D13*
X130968750Y-96043750D03*
D17*
X125888750Y-96043750D03*
D18*
X127158750Y-93503750D03*
D19*
X123608750Y-93503750D03*
X137058750Y-90963750D03*
D18*
X133508750Y-90963750D03*
%TD*%
D16*
%TO.C,C5*%
X319243750Y-108753750D03*
X319243750Y-107793750D03*
%TD*%
D17*
%TO.C,MX92*%
X81280000Y-153193750D03*
D13*
X76200000Y-153193750D03*
D17*
X71120000Y-153193750D03*
D18*
X72390000Y-150653750D03*
D19*
X68840000Y-150653750D03*
X82290000Y-148113750D03*
D18*
X78740000Y-148113750D03*
%TD*%
D16*
%TO.C,C11*%
X318213008Y-108718379D03*
X318213008Y-107758379D03*
%TD*%
D17*
%TO.C,MX4*%
X107473750Y-48418750D03*
D13*
X102393750Y-48418750D03*
D17*
X97313750Y-48418750D03*
D18*
X98583750Y-45878750D03*
D19*
X95033750Y-45878750D03*
X108483750Y-43338750D03*
D18*
X104933750Y-43338750D03*
%TD*%
D24*
%TO.C,C1*%
X321145000Y-107551250D03*
X322105000Y-107551250D03*
%TD*%
D14*
%TO.C,D48*%
X267601670Y-98812500D03*
X267601670Y-96012500D03*
%TD*%
D17*
%TO.C,MX63*%
X159861250Y-115093750D03*
D13*
X154781250Y-115093750D03*
D17*
X149701250Y-115093750D03*
D18*
X150971250Y-112553750D03*
D19*
X147421250Y-112553750D03*
X160871250Y-110013750D03*
D18*
X157321250Y-110013750D03*
%TD*%
D14*
%TO.C,D84*%
X279507920Y-136912500D03*
X279507920Y-134112500D03*
%TD*%
D17*
%TO.C,MX34*%
X421798750Y-76993750D03*
D13*
X416718750Y-76993750D03*
D17*
X411638750Y-76993750D03*
D18*
X412908750Y-74453750D03*
D19*
X409358750Y-74453750D03*
X422808750Y-71913750D03*
D18*
X419258750Y-71913750D03*
%TD*%
D17*
%TO.C,MX3*%
X88423750Y-48418750D03*
D13*
X83343750Y-48418750D03*
D17*
X78263750Y-48418750D03*
D18*
X79533750Y-45878750D03*
D19*
X75983750Y-45878750D03*
X89433750Y-43338750D03*
D18*
X85883750Y-43338750D03*
%TD*%
D15*
%TO.C,C7*%
X47818750Y-55876250D03*
X47818750Y-56836250D03*
%TD*%
D14*
%TO.C,D21*%
X143776670Y-79762500D03*
X143776670Y-76962500D03*
%TD*%
%TO.C,D37*%
X58051670Y-100125000D03*
X58051670Y-97325000D03*
%TD*%
%TO.C,D76*%
X110439170Y-138225000D03*
X110439170Y-135425000D03*
%TD*%
%TO.C,D50*%
X319989170Y-98812500D03*
X319989170Y-96012500D03*
%TD*%
D17*
%TO.C,MX21*%
X145573750Y-76993750D03*
D13*
X140493750Y-76993750D03*
D17*
X135413750Y-76993750D03*
D18*
X136683750Y-74453750D03*
D19*
X133133750Y-74453750D03*
X146583750Y-71913750D03*
D18*
X143033750Y-71913750D03*
%TD*%
D17*
%TO.C,MX96*%
X271780000Y-153193750D03*
D13*
X266700000Y-153193750D03*
D17*
X261620000Y-153193750D03*
D18*
X262890000Y-150653750D03*
D19*
X259340000Y-150653750D03*
X272790000Y-148113750D03*
D18*
X269240000Y-148113750D03*
%TD*%
D17*
%TO.C,MX25*%
X221773750Y-76993750D03*
D13*
X216693750Y-76993750D03*
D17*
X211613750Y-76993750D03*
D18*
X212883750Y-74453750D03*
D19*
X209333750Y-74453750D03*
X222783750Y-71913750D03*
D18*
X219233750Y-71913750D03*
%TD*%
D14*
%TO.C,D14*%
X439051670Y-51187500D03*
X439051670Y-48387500D03*
%TD*%
%TO.C,D78*%
X148539170Y-138225000D03*
X148539170Y-135425000D03*
%TD*%
D17*
%TO.C,MX47*%
X250348750Y-96043750D03*
D13*
X245268750Y-96043750D03*
D17*
X240188750Y-96043750D03*
D18*
X241458750Y-93503750D03*
D19*
X237908750Y-93503750D03*
X251358750Y-90963750D03*
D18*
X247808750Y-90963750D03*
%TD*%
D31*
%TO.C,R4*%
X341312500Y-105285000D03*
X341312500Y-104265000D03*
%TD*%
D17*
%TO.C,MX26*%
X240823750Y-76993750D03*
D13*
X235743750Y-76993750D03*
D17*
X230663750Y-76993750D03*
D18*
X231933750Y-74453750D03*
D19*
X228383750Y-74453750D03*
X241833750Y-71913750D03*
D18*
X238283750Y-71913750D03*
%TD*%
D17*
%TO.C,MX50*%
X321786250Y-96043750D03*
D13*
X316706250Y-96043750D03*
D17*
X311626250Y-96043750D03*
D18*
X312896250Y-93503750D03*
D19*
X309346250Y-93503750D03*
X322796250Y-90963750D03*
D18*
X319246250Y-90963750D03*
%TD*%
D14*
%TO.C,D75*%
X91389170Y-136912500D03*
X91389170Y-134112500D03*
%TD*%
%TO.C,D64*%
X177114170Y-119175000D03*
X177114170Y-116375000D03*
%TD*%
D17*
%TO.C,MX11*%
X259873750Y-48418750D03*
D13*
X254793750Y-48418750D03*
D17*
X249713750Y-48418750D03*
D18*
X250983750Y-45878750D03*
D19*
X247433750Y-45878750D03*
X260883750Y-43338750D03*
D18*
X257333750Y-43338750D03*
%TD*%
D28*
%TO.C,C9*%
X312893750Y-111281250D03*
X311933750Y-111281250D03*
%TD*%
D17*
%TO.C,MX91*%
X57467500Y-153193750D03*
D13*
X52387500Y-153193750D03*
D17*
X47307500Y-153193750D03*
D18*
X48577500Y-150653750D03*
D19*
X45027500Y-150653750D03*
X58477500Y-148113750D03*
D18*
X54927500Y-148113750D03*
%TD*%
D17*
%TO.C,MX67*%
X236061250Y-115093750D03*
D13*
X230981250Y-115093750D03*
D17*
X225901250Y-115093750D03*
D18*
X227171250Y-112553750D03*
D19*
X223621250Y-112553750D03*
X237071250Y-110013750D03*
D18*
X233521250Y-110013750D03*
%TD*%
D14*
%TO.C,D63*%
X158064170Y-117862500D03*
X158064170Y-115062500D03*
%TD*%
D17*
%TO.C,MX30*%
X340836250Y-76993750D03*
D13*
X335756250Y-76993750D03*
D17*
X330676250Y-76993750D03*
D18*
X331946250Y-74453750D03*
D19*
X328396250Y-74453750D03*
X341846250Y-71913750D03*
D18*
X338296250Y-71913750D03*
%TD*%
D14*
%TO.C,D81*%
X205689170Y-136912500D03*
X205689170Y-134112500D03*
%TD*%
%TO.C,D102*%
X420001670Y-157275000D03*
X420001670Y-154475000D03*
%TD*%
%TO.C,D33*%
X400951670Y-79762500D03*
X400951670Y-76962500D03*
%TD*%
D16*
%TO.C,C4*%
X315275000Y-110175000D03*
X315275000Y-109215000D03*
%TD*%
D17*
%TO.C,MX9*%
X212248750Y-48418750D03*
D13*
X207168750Y-48418750D03*
D17*
X202088750Y-48418750D03*
D18*
X203358750Y-45878750D03*
D19*
X199808750Y-45878750D03*
X213258750Y-43338750D03*
D18*
X209708750Y-43338750D03*
%TD*%
D14*
%TO.C,D1*%
X29476670Y-51187500D03*
X29476670Y-48387500D03*
%TD*%
%TO.C,D26*%
X239026670Y-81075000D03*
X239026670Y-78275000D03*
%TD*%
%TO.C,D3*%
X86626670Y-52500000D03*
X86626670Y-49700000D03*
%TD*%
%TO.C,D65*%
X196164170Y-117862500D03*
X196164170Y-115062500D03*
%TD*%
%TO.C,D30*%
X339039170Y-81075000D03*
X339039170Y-78275000D03*
%TD*%
D17*
%TO.C,MX68*%
X255111250Y-115093750D03*
D13*
X250031250Y-115093750D03*
D17*
X244951250Y-115093750D03*
D18*
X246221250Y-112553750D03*
D19*
X242671250Y-112553750D03*
X256121250Y-110013750D03*
D18*
X252571250Y-110013750D03*
%TD*%
D32*
%TO.C,U1*%
X321731250Y-113287500D03*
X321731250Y-113687500D03*
X321731250Y-114087500D03*
X321731250Y-114487500D03*
X321731250Y-114887500D03*
X321731250Y-115287500D03*
X321731250Y-115687500D03*
X321731250Y-116087500D03*
X321731250Y-116487500D03*
X321731250Y-116887500D03*
X321731250Y-117287500D03*
X321731250Y-117687500D03*
X321731250Y-118087500D03*
X321731250Y-118487500D03*
D33*
X320893750Y-119325000D03*
X320493750Y-119325000D03*
X320093750Y-119325000D03*
X319693750Y-119325000D03*
X319293750Y-119325000D03*
X318893750Y-119325000D03*
X318493750Y-119325000D03*
X318093750Y-119325000D03*
X317693750Y-119325000D03*
X317293750Y-119325000D03*
X316893750Y-119325000D03*
X316493750Y-119325000D03*
X316093750Y-119325000D03*
X315693750Y-119325000D03*
D32*
X314856250Y-118487500D03*
X314856250Y-118087500D03*
X314856250Y-117687500D03*
X314856250Y-117287500D03*
X314856250Y-116887500D03*
X314856250Y-116487500D03*
X314856250Y-116087500D03*
X314856250Y-115687500D03*
X314856250Y-115287500D03*
X314856250Y-114887500D03*
X314856250Y-114487500D03*
X314856250Y-114087500D03*
X314856250Y-113687500D03*
X314856250Y-113287500D03*
D33*
X315693750Y-112450000D03*
X316093750Y-112450000D03*
X316493750Y-112450000D03*
X316893750Y-112450000D03*
X317293750Y-112450000D03*
X317693750Y-112450000D03*
X318093750Y-112450000D03*
X318493750Y-112450000D03*
X318893750Y-112450000D03*
X319293750Y-112450000D03*
X319693750Y-112450000D03*
X320093750Y-112450000D03*
X320493750Y-112450000D03*
X320893750Y-112450000D03*
D34*
X318293750Y-115887500D03*
%TD*%
D17*
%TO.C,MX72*%
X421798750Y-115093750D03*
D13*
X416718750Y-115093750D03*
D17*
X411638750Y-115093750D03*
D18*
X412908750Y-112553750D03*
D19*
X409358750Y-112553750D03*
X422808750Y-110013750D03*
D18*
X419258750Y-110013750D03*
%TD*%
D30*
%TO.C,R6*%
X47625000Y-46815000D03*
X47625000Y-47835000D03*
%TD*%
D17*
%TO.C,MX48*%
X269398750Y-96043750D03*
D13*
X264318750Y-96043750D03*
D17*
X259238750Y-96043750D03*
D18*
X260508750Y-93503750D03*
D19*
X256958750Y-93503750D03*
X270408750Y-90963750D03*
D18*
X266858750Y-90963750D03*
%TD*%
D17*
%TO.C,MX52*%
X359886250Y-96043750D03*
D13*
X354806250Y-96043750D03*
D17*
X349726250Y-96043750D03*
D18*
X350996250Y-93503750D03*
D19*
X347446250Y-93503750D03*
X360896250Y-90963750D03*
D18*
X357346250Y-90963750D03*
%TD*%
D17*
%TO.C,MX20*%
X126523750Y-76993750D03*
D13*
X121443750Y-76993750D03*
D17*
X116363750Y-76993750D03*
D18*
X117633750Y-74453750D03*
D19*
X114083750Y-74453750D03*
X127533750Y-71913750D03*
D18*
X123983750Y-71913750D03*
%TD*%
D14*
%TO.C,D23*%
X181876670Y-79762500D03*
X181876670Y-76962500D03*
%TD*%
%TO.C,D15*%
X29476670Y-79762500D03*
X29476670Y-76962500D03*
%TD*%
%TO.C,D71*%
X400951670Y-117862500D03*
X400951670Y-115062500D03*
%TD*%
%TO.C,D82*%
X224739170Y-138225000D03*
X224739170Y-135425000D03*
%TD*%
%TO.C,D96*%
X269982920Y-157275000D03*
X269982920Y-154475000D03*
%TD*%
%TO.C,D54*%
X400951670Y-98812500D03*
X400951670Y-96012500D03*
%TD*%
D17*
%TO.C,MX32*%
X383698750Y-76993750D03*
D13*
X378618750Y-76993750D03*
D17*
X373538750Y-76993750D03*
D18*
X374808750Y-74453750D03*
D19*
X371258750Y-74453750D03*
X384708750Y-71913750D03*
D18*
X381158750Y-71913750D03*
%TD*%
D14*
%TO.C,D6*%
X153301670Y-51187500D03*
X153301670Y-48387500D03*
%TD*%
D17*
%TO.C,MX51*%
X340836250Y-96043750D03*
D13*
X335756250Y-96043750D03*
D17*
X330676250Y-96043750D03*
D18*
X331946250Y-93503750D03*
D19*
X328396250Y-93503750D03*
X341846250Y-90963750D03*
D18*
X338296250Y-90963750D03*
%TD*%
D15*
%TO.C,C6*%
X316644746Y-122081250D03*
X316644746Y-123041250D03*
%TD*%
D35*
%TO.C,R2*%
X313180951Y-106123555D03*
X314347677Y-107290281D03*
%TD*%
D14*
%TO.C,D44*%
X191401670Y-98812500D03*
X191401670Y-96012500D03*
%TD*%
%TO.C,D59*%
X81864170Y-117862500D03*
X81864170Y-115062500D03*
%TD*%
D17*
%TO.C,MX36*%
X36036250Y-96043750D03*
D13*
X30956250Y-96043750D03*
D17*
X25876250Y-96043750D03*
D18*
X27146250Y-93503750D03*
D19*
X23596250Y-93503750D03*
X37046250Y-90963750D03*
D18*
X33496250Y-90963750D03*
%TD*%
D14*
%TO.C,D39*%
X96151670Y-100125000D03*
X96151670Y-97325000D03*
%TD*%
%TO.C,D28*%
X286651670Y-81075000D03*
X286651670Y-78275000D03*
%TD*%
%TO.C,D73*%
X41382920Y-136912500D03*
X41382920Y-134112500D03*
%TD*%
D31*
%TO.C,R8*%
X317838496Y-124972500D03*
X317838496Y-123952500D03*
%TD*%
D17*
%TO.C,MX102*%
X421798750Y-153193750D03*
D13*
X416718750Y-153193750D03*
D17*
X411638750Y-153193750D03*
D18*
X412908750Y-150653750D03*
D19*
X409358750Y-150653750D03*
X422808750Y-148113750D03*
D18*
X419258750Y-148113750D03*
%TD*%
D17*
%TO.C,MX64*%
X178911250Y-115093750D03*
D13*
X173831250Y-115093750D03*
D17*
X168751250Y-115093750D03*
D18*
X170021250Y-112553750D03*
D19*
X166471250Y-112553750D03*
X179921250Y-110013750D03*
D18*
X176371250Y-110013750D03*
%TD*%
D17*
%TO.C,MX69*%
X286067500Y-115093750D03*
D13*
X280987500Y-115093750D03*
D17*
X275907500Y-115093750D03*
D18*
X277177500Y-112553750D03*
D19*
X273627500Y-112553750D03*
X287077500Y-110013750D03*
D18*
X283527500Y-110013750D03*
%TD*%
D17*
%TO.C,MX35*%
X440848750Y-76993750D03*
D13*
X435768750Y-76993750D03*
D17*
X430688750Y-76993750D03*
D18*
X431958750Y-74453750D03*
D19*
X428408750Y-74453750D03*
X441858750Y-71913750D03*
D18*
X438308750Y-71913750D03*
%TD*%
D14*
%TO.C,D47*%
X248551670Y-100125000D03*
X248551670Y-97325000D03*
%TD*%
%TO.C,D97*%
X293795420Y-155962500D03*
X293795420Y-153162500D03*
%TD*%
%TO.C,D10*%
X239026670Y-51187500D03*
X239026670Y-48387500D03*
%TD*%
D28*
%TO.C,C15*%
X311786250Y-116895613D03*
X310826250Y-116895613D03*
%TD*%
D17*
%TO.C,MX82*%
X226536250Y-134143750D03*
D13*
X221456250Y-134143750D03*
D17*
X216376250Y-134143750D03*
D18*
X217646250Y-131603750D03*
D19*
X214096250Y-131603750D03*
X227546250Y-129063750D03*
D18*
X223996250Y-129063750D03*
%TD*%
D14*
%TO.C,D49*%
X291414170Y-100125000D03*
X291414170Y-97325000D03*
%TD*%
%TO.C,D42*%
X153301670Y-98812500D03*
X153301670Y-96012500D03*
%TD*%
D36*
%TO.C,Y1*%
X319513496Y-123612500D03*
X321713496Y-123612500D03*
X321713496Y-125312500D03*
X319513496Y-125312500D03*
%TD*%
D14*
%TO.C,D13*%
X296176670Y-52500000D03*
X296176670Y-49700000D03*
%TD*%
D17*
%TO.C,MX44*%
X193198750Y-96043750D03*
D13*
X188118750Y-96043750D03*
D17*
X183038750Y-96043750D03*
D18*
X184308750Y-93503750D03*
D19*
X180758750Y-93503750D03*
X194208750Y-90963750D03*
D18*
X190658750Y-90963750D03*
%TD*%
D17*
%TO.C,MX89*%
X440848750Y-143668750D03*
D13*
X435768750Y-143668750D03*
D17*
X430688750Y-143668750D03*
D18*
X431958750Y-141128750D03*
D19*
X428408750Y-141128750D03*
X441858750Y-138588750D03*
D18*
X438308750Y-138588750D03*
%TD*%
D17*
%TO.C,MX55*%
X421798750Y-96043750D03*
D13*
X416718750Y-96043750D03*
D17*
X411638750Y-96043750D03*
D18*
X412908750Y-93503750D03*
D19*
X409358750Y-93503750D03*
X422808750Y-90963750D03*
D18*
X419258750Y-90963750D03*
%TD*%
D14*
%TO.C,D68*%
X253314170Y-119175000D03*
X253314170Y-116375000D03*
%TD*%
D17*
%TO.C,MX23*%
X183673750Y-76993750D03*
D13*
X178593750Y-76993750D03*
D17*
X173513750Y-76993750D03*
D18*
X174783750Y-74453750D03*
D19*
X171233750Y-74453750D03*
X184683750Y-71913750D03*
D18*
X181133750Y-71913750D03*
%TD*%
D17*
%TO.C,MX61*%
X121761250Y-115093750D03*
D13*
X116681250Y-115093750D03*
D17*
X111601250Y-115093750D03*
D18*
X112871250Y-112553750D03*
D19*
X109321250Y-112553750D03*
X122771250Y-110013750D03*
D18*
X119221250Y-110013750D03*
%TD*%
D17*
%TO.C,MX58*%
X64611250Y-115093750D03*
D13*
X59531250Y-115093750D03*
D17*
X54451250Y-115093750D03*
D18*
X55721250Y-112553750D03*
D19*
X52171250Y-112553750D03*
X65621250Y-110013750D03*
D18*
X62071250Y-110013750D03*
%TD*%
D17*
%TO.C,MX46*%
X231298750Y-96043750D03*
D13*
X226218750Y-96043750D03*
D17*
X221138750Y-96043750D03*
D18*
X222408750Y-93503750D03*
D19*
X218858750Y-93503750D03*
X232308750Y-90963750D03*
D18*
X228758750Y-90963750D03*
%TD*%
D26*
%TO.C,SWD1*%
X312896250Y-123825000D03*
D27*
X310356250Y-123825000D03*
X307816250Y-123825000D03*
%TD*%
D14*
%TO.C,D66*%
X215214170Y-119175000D03*
X215214170Y-116375000D03*
%TD*%
%TO.C,D62*%
X139014170Y-119175000D03*
X139014170Y-116375000D03*
%TD*%
D35*
%TO.C,R1*%
X314315573Y-105012175D03*
X315482299Y-106178901D03*
%TD*%
D17*
%TO.C,MX24*%
X202723750Y-76993750D03*
D13*
X197643750Y-76993750D03*
D17*
X192563750Y-76993750D03*
D18*
X193833750Y-74453750D03*
D19*
X190283750Y-74453750D03*
X203733750Y-71913750D03*
D18*
X200183750Y-71913750D03*
%TD*%
D14*
%TO.C,D77*%
X129489170Y-136912500D03*
X129489170Y-134112500D03*
%TD*%
D17*
%TO.C,MX42*%
X155098750Y-96043750D03*
D13*
X150018750Y-96043750D03*
D17*
X144938750Y-96043750D03*
D18*
X146208750Y-93503750D03*
D19*
X142658750Y-93503750D03*
X156108750Y-90963750D03*
D18*
X152558750Y-90963750D03*
%TD*%
D17*
%TO.C,MX54*%
X402748750Y-96043750D03*
D13*
X397668750Y-96043750D03*
D17*
X392588750Y-96043750D03*
D18*
X393858750Y-93503750D03*
D19*
X390308750Y-93503750D03*
X403758750Y-90963750D03*
D18*
X400208750Y-90963750D03*
%TD*%
D14*
%TO.C,D38*%
X77101670Y-98812500D03*
X77101670Y-96012500D03*
%TD*%
%TO.C,D40*%
X115201670Y-98812500D03*
X115201670Y-96012500D03*
%TD*%
%TO.C,D87*%
X400951670Y-136912500D03*
X400951670Y-134112500D03*
%TD*%
D17*
%TO.C,MX28*%
X288448750Y-76993750D03*
D13*
X283368750Y-76993750D03*
D17*
X278288750Y-76993750D03*
D18*
X279558750Y-74453750D03*
D19*
X276008750Y-74453750D03*
X289458750Y-71913750D03*
D18*
X285908750Y-71913750D03*
%TD*%
D14*
%TO.C,D20*%
X124726670Y-81075000D03*
X124726670Y-78275000D03*
%TD*%
%TO.C,D2*%
X67576670Y-51187500D03*
X67576670Y-48387500D03*
%TD*%
%TO.C,D51*%
X339039170Y-100125000D03*
X339039170Y-97325000D03*
%TD*%
%TO.C,D95*%
X246170420Y-155962500D03*
X246170420Y-153162500D03*
%TD*%
D17*
%TO.C,MX49*%
X293211250Y-96043750D03*
D13*
X288131250Y-96043750D03*
D17*
X283051250Y-96043750D03*
D18*
X284321250Y-93503750D03*
D19*
X280771250Y-93503750D03*
X294221250Y-90963750D03*
D18*
X290671250Y-90963750D03*
%TD*%
D14*
%TO.C,D32*%
X381901670Y-81075000D03*
X381901670Y-78275000D03*
%TD*%
%TO.C,D100*%
X358089170Y-155962500D03*
X358089170Y-153162500D03*
%TD*%
D31*
%TO.C,R7*%
X330200000Y-105285000D03*
X330200000Y-104265000D03*
%TD*%
D17*
%TO.C,MX90*%
X33655000Y-153193750D03*
D13*
X28575000Y-153193750D03*
D17*
X23495000Y-153193750D03*
D18*
X24765000Y-150653750D03*
D19*
X21215000Y-150653750D03*
X34665000Y-148113750D03*
D18*
X31115000Y-148113750D03*
%TD*%
D17*
%TO.C,MX16*%
X50323750Y-76993750D03*
D13*
X45243750Y-76993750D03*
D17*
X40163750Y-76993750D03*
D18*
X41433750Y-74453750D03*
D19*
X37883750Y-74453750D03*
X51333750Y-71913750D03*
D18*
X47783750Y-71913750D03*
%TD*%
D17*
%TO.C,MX70*%
X383698750Y-115093750D03*
D13*
X378618750Y-115093750D03*
D17*
X373538750Y-115093750D03*
D18*
X374808750Y-112553750D03*
D19*
X371258750Y-112553750D03*
X384708750Y-110013750D03*
D18*
X381158750Y-110013750D03*
%TD*%
D16*
%TO.C,C17*%
X48912500Y-56836250D03*
X48912500Y-55876250D03*
%TD*%
D17*
%TO.C,MX29*%
X321786250Y-76993750D03*
D13*
X316706250Y-76993750D03*
D17*
X311626250Y-76993750D03*
D18*
X312896250Y-74453750D03*
D19*
X309346250Y-74453750D03*
X322796250Y-71913750D03*
D18*
X319246250Y-71913750D03*
%TD*%
D37*
%TO.C,J1*%
X42353750Y-43575000D03*
X48133750Y-43575000D03*
D38*
X41993750Y-45020000D03*
X42793750Y-45020000D03*
D39*
X43993750Y-45020000D03*
X44993750Y-45020000D03*
X45493750Y-45020000D03*
X46493750Y-45020000D03*
D38*
X47693750Y-45020000D03*
X48493750Y-45020000D03*
X48493750Y-45020000D03*
X47693750Y-45020000D03*
D39*
X46993750Y-45020000D03*
X45993750Y-45020000D03*
X44493750Y-45020000D03*
X43493750Y-45020000D03*
D38*
X42793750Y-45020000D03*
X41993750Y-45020000D03*
D40*
X40923750Y-39925000D03*
D41*
X40923750Y-44105000D03*
D40*
X49563750Y-39925000D03*
D41*
X49563750Y-44105000D03*
%TD*%
D14*
%TO.C,D93*%
X150920420Y-157275000D03*
X150920420Y-154475000D03*
%TD*%
%TO.C,D11*%
X258076670Y-52500000D03*
X258076670Y-49700000D03*
%TD*%
D17*
%TO.C,MX13*%
X297973750Y-48418750D03*
D13*
X292893750Y-48418750D03*
D17*
X287813750Y-48418750D03*
D18*
X289083750Y-45878750D03*
D19*
X285533750Y-45878750D03*
X298983750Y-43338750D03*
D18*
X295433750Y-43338750D03*
%TD*%
D14*
%TO.C,D9*%
X210451670Y-52500000D03*
X210451670Y-49700000D03*
%TD*%
%TO.C,D17*%
X67576670Y-79762500D03*
X67576670Y-76962500D03*
%TD*%
%TO.C,D60*%
X100914170Y-119175000D03*
X100914170Y-116375000D03*
%TD*%
%TO.C,D80*%
X186639170Y-138225000D03*
X186639170Y-135425000D03*
%TD*%
D17*
%TO.C,MX56*%
X440848750Y-105568750D03*
D13*
X435768750Y-105568750D03*
D17*
X430688750Y-105568750D03*
D18*
X431958750Y-103028750D03*
D19*
X428408750Y-103028750D03*
X441858750Y-100488750D03*
D18*
X438308750Y-100488750D03*
%TD*%
D17*
%TO.C,MX31*%
X359886250Y-76993750D03*
D13*
X354806250Y-76993750D03*
D17*
X349726250Y-76993750D03*
D18*
X350996250Y-74453750D03*
D19*
X347446250Y-74453750D03*
X360896250Y-71913750D03*
D18*
X357346250Y-71913750D03*
%TD*%
D14*
%TO.C,D86*%
X381901670Y-138225000D03*
X381901670Y-135425000D03*
%TD*%
%TO.C,D27*%
X258076670Y-79762500D03*
X258076670Y-76962500D03*
%TD*%
D17*
%TO.C,MX99*%
X340836250Y-153193750D03*
D13*
X335756250Y-153193750D03*
D17*
X330676250Y-153193750D03*
D18*
X331946250Y-150653750D03*
D19*
X328396250Y-150653750D03*
X341846250Y-148113750D03*
D18*
X338296250Y-148113750D03*
%TD*%
D14*
%TO.C,D57*%
X36620420Y-117862500D03*
X36620420Y-115062500D03*
%TD*%
D17*
%TO.C,MX85*%
X340836250Y-134143750D03*
D13*
X335756250Y-134143750D03*
D17*
X330676250Y-134143750D03*
D18*
X331946250Y-131603750D03*
D19*
X328396250Y-131603750D03*
X341846250Y-129063750D03*
D18*
X338296250Y-129063750D03*
%TD*%
D17*
%TO.C,MX86*%
X383698750Y-134143750D03*
D13*
X378618750Y-134143750D03*
D17*
X373538750Y-134143750D03*
D18*
X374808750Y-131603750D03*
D19*
X371258750Y-131603750D03*
X384708750Y-129063750D03*
D18*
X381158750Y-129063750D03*
%TD*%
D14*
%TO.C,D55*%
X420001670Y-100125000D03*
X420001670Y-97325000D03*
%TD*%
D17*
%TO.C,MX37*%
X59848750Y-96043750D03*
D13*
X54768750Y-96043750D03*
D17*
X49688750Y-96043750D03*
D18*
X50958750Y-93503750D03*
D19*
X47408750Y-93503750D03*
X60858750Y-90963750D03*
D18*
X57308750Y-90963750D03*
%TD*%
D14*
%TO.C,D61*%
X119964170Y-117862500D03*
X119964170Y-115062500D03*
%TD*%
%TO.C,D79*%
X167589170Y-136912500D03*
X167589170Y-134112500D03*
%TD*%
D17*
%TO.C,MX14*%
X440848750Y-48418750D03*
D13*
X435768750Y-48418750D03*
D17*
X430688750Y-48418750D03*
D18*
X431958750Y-45878750D03*
D19*
X428408750Y-45878750D03*
X441858750Y-43338750D03*
D18*
X438308750Y-43338750D03*
%TD*%
D17*
%TO.C,MX6*%
X155098750Y-48418750D03*
D13*
X150018750Y-48418750D03*
D17*
X144938750Y-48418750D03*
D18*
X146208750Y-45878750D03*
D19*
X142658750Y-45878750D03*
X156108750Y-43338750D03*
D18*
X152558750Y-43338750D03*
%TD*%
D14*
%TO.C,D91*%
X55670420Y-157275000D03*
X55670420Y-154475000D03*
%TD*%
%TO.C,D72*%
X420001670Y-119175000D03*
X420001670Y-116375000D03*
%TD*%
%TO.C,D25*%
X219976670Y-79762500D03*
X219976670Y-76962500D03*
%TD*%
%TO.C,D12*%
X277126670Y-51187500D03*
X277126670Y-48387500D03*
%TD*%
%TO.C,D70*%
X381901670Y-119175000D03*
X381901670Y-116375000D03*
%TD*%
%TO.C,D16*%
X48526670Y-81075000D03*
X48526670Y-78275000D03*
%TD*%
D17*
%TO.C,MX81*%
X207486250Y-134143750D03*
D13*
X202406250Y-134143750D03*
D17*
X197326250Y-134143750D03*
D18*
X198596250Y-131603750D03*
D19*
X195046250Y-131603750D03*
X208496250Y-129063750D03*
D18*
X204946250Y-129063750D03*
%TD*%
D17*
%TO.C,MX19*%
X107473750Y-76993750D03*
D13*
X102393750Y-76993750D03*
D17*
X97313750Y-76993750D03*
D18*
X98583750Y-74453750D03*
D19*
X95033750Y-74453750D03*
X108483750Y-71913750D03*
D18*
X104933750Y-71913750D03*
%TD*%
D17*
%TO.C,MX5*%
X126523750Y-48418750D03*
D13*
X121443750Y-48418750D03*
D17*
X116363750Y-48418750D03*
D18*
X117633750Y-45878750D03*
D19*
X114083750Y-45878750D03*
X127533750Y-43338750D03*
D18*
X123983750Y-43338750D03*
%TD*%
D17*
%TO.C,MX10*%
X240823750Y-48418750D03*
D13*
X235743750Y-48418750D03*
D17*
X230663750Y-48418750D03*
D18*
X231933750Y-45878750D03*
D19*
X228383750Y-45878750D03*
X241833750Y-43338750D03*
D18*
X238283750Y-43338750D03*
%TD*%
D17*
%TO.C,MX100*%
X359886250Y-153193750D03*
D13*
X354806250Y-153193750D03*
D17*
X349726250Y-153193750D03*
D18*
X350996250Y-150653750D03*
D19*
X347446250Y-150653750D03*
X360896250Y-148113750D03*
D18*
X357346250Y-148113750D03*
%TD*%
D14*
%TO.C,D5*%
X124726670Y-52500000D03*
X124726670Y-49700000D03*
%TD*%
D17*
%TO.C,MX77*%
X131286250Y-134143750D03*
D13*
X126206250Y-134143750D03*
D17*
X121126250Y-134143750D03*
D18*
X122396250Y-131603750D03*
D19*
X118846250Y-131603750D03*
X132296250Y-129063750D03*
D18*
X128746250Y-129063750D03*
%TD*%
D17*
%TO.C,MX59*%
X83661250Y-115093750D03*
D13*
X78581250Y-115093750D03*
D17*
X73501250Y-115093750D03*
D18*
X74771250Y-112553750D03*
D19*
X71221250Y-112553750D03*
X84671250Y-110013750D03*
D18*
X81121250Y-110013750D03*
%TD*%
D14*
%TO.C,D99*%
X339039170Y-157275000D03*
X339039170Y-154475000D03*
%TD*%
M02*
