M48
; DRILL file {KiCad 8.0.8} date 2025-02-22T23:30:56+0100
; FORMAT={-:-/ absolute / inch / decimal}
; #@! TF.CreationDate,2025-02-22T23:30:56+01:00
; #@! TF.GenerationSoftware,Kicad,Pcbnew,8.0.8
; #@! TF.FileFunction,Plated,1,2,PTH
FMAT,2
INCH
; #@! TA.AperFunction,Plated,PTH,ViaDrill
T1C0.0118
; #@! TA.AperFunction,Plated,PTH,ComponentDrill
T2C0.0138
; #@! TA.AperFunction,Plated,PTH,ComponentDrill
T3C0.0236
; #@! TA.AperFunction,Plated,PTH,ComponentDrill
T4C0.0276
; #@! TA.AperFunction,Plated,PTH,ComponentDrill
T5C0.0394
; #@! TA.AperFunction,Plated,PTH,ComponentDrill
T6C0.0866
; #@! TA.AperFunction,Plated,PTH,ComponentDrill
T7C0.1181
; #@! TA.AperFunction,Plated,PTH,ComponentDrill
T8C0.1200
%
G90
G05
T1
X1.6664Y-2.0153
X1.6794Y-2.271
X1.7187Y-1.9375
X1.75Y-2.1562
X1.7812Y-1.625
X1.8501Y-2.0625
X1.8628Y-2.0153
X1.875Y-1.9375
X1.875Y-2.1562
X1.8827Y-2.2684
X1.9251Y-2.2684
X2.0625Y-2.25
X2.2188Y-2.25
X2.5312Y-2.25
X2.6875Y-2.25
X2.875Y-2.25
X3.0312Y-2.25
X3.1875Y-2.25
X3.3438Y-2.25
X3.5Y-2.25
X3.6562Y-2.25
X3.8438Y-2.25
X4.0Y-2.25
X4.1562Y-2.25
X4.3125Y-2.25
X4.4688Y-2.25
X4.8125Y-2.25
X4.9688Y-2.25
X5.125Y-2.25
X5.2812Y-2.25
X5.4375Y-2.25
X5.5938Y-2.25
X5.9375Y-2.25
X6.0938Y-2.25
X6.25Y-2.25
X6.4062Y-2.25
X6.5625Y-2.25
X6.75Y-2.25
X6.9062Y-2.25
X7.0625Y-2.25
X7.2188Y-2.25
X7.375Y-2.25
X7.5312Y-2.25
X7.7188Y-2.25
X7.875Y-2.25
X8.1875Y-2.25
X8.3438Y-2.25
X8.5Y-2.25
X8.6875Y-2.25
X8.8438Y-2.25
X9.0Y-2.25
X9.3125Y-2.25
X9.4688Y-2.25
X9.6562Y-2.25
X9.9688Y-2.25
X10.125Y-2.25
X10.2812Y-2.25
X10.4375Y-2.25
X10.7812Y-2.25
X10.9375Y-2.25
X11.0938Y-2.25
X11.25Y-2.25
X11.4688Y-2.25
X11.6562Y-2.25
X11.7188Y-2.0153
X11.719Y-2.067
X11.7449Y-2.3179
X11.75Y-2.2812
X11.75Y-3.1403
X11.75Y-3.1919
X11.7517Y-3.8901
X11.7517Y-3.942
X11.8125Y-2.4375
X11.8125Y-2.5938
X11.8125Y-2.7812
X11.8125Y-2.9375
X11.8125Y-3.0938
X11.8125Y-3.25
X11.8125Y-3.4062
X11.8125Y-3.5625
X11.8125Y-3.7188
X11.8448Y-4.0193
X11.8861Y-3.1405
X11.8861Y-3.1921
X11.8861Y-3.8905
X11.8861Y-3.9424
X11.9261Y-4.0523
X12.0547Y-4.0521
X12.1824Y-4.0523
X12.2047Y-4.6022
X12.2188Y-4.9375
X12.2433Y-4.3813
X12.2437Y-4.4203
X12.3323Y-4.3008
X12.3883Y-4.7871
X12.4479Y-4.3
X12.4665Y-4.8791
X12.4688Y-4.1562
X12.4749Y-4.4749
X12.4978Y-4.7759
X12.5059Y-4.6452
X12.522Y-4.3061
X12.528Y-4.2062
X12.5535Y-4.3066
X12.5688Y-4.2077
X12.6109Y-4.2343
X12.6791Y-4.9935
X12.7162Y-4.2343
X12.7318Y-4.9519
X12.8299Y-4.4207
X12.8722Y-4.6022
X13.0738Y-4.586
X13.5938Y-4.9259
X13.5938Y-4.9688
X13.5938Y-5.3903
X13.5938Y-5.4419
X13.5938Y-6.1403
X13.5938Y-6.1919
X16.625Y-2.625
X16.6562Y-2.2812
X16.7188Y-2.625
X16.8125Y-2.625
X16.9062Y-2.625
T2
X12.4811Y-4.5123
X12.4811Y-4.5625
X12.4811Y-4.6127
X12.5312Y-4.5123
X12.5312Y-4.5625
X12.5312Y-4.6127
X12.5814Y-4.5123
X12.5814Y-4.5625
X12.5814Y-4.6127
T4
X11.7812Y-4.0938
X11.7812Y-4.1875
X11.7812Y-4.2812
X11.7812Y-4.375
X11.7812Y-4.4688
X11.7812Y-4.5625
X11.7812Y-4.6562
X11.875Y-4.1562
X11.875Y-4.25
X11.875Y-4.3438
X11.875Y-4.4375
X11.875Y-4.5312
X11.875Y-4.625
X12.2205Y-4.75
X12.8438Y-4.7812
X12.8438Y-4.875
X13.0062Y-4.6066
X13.2812Y-4.7812
X13.3637Y-4.8438
X13.4688Y-4.7812
X13.5625Y-4.8438
X13.6562Y-4.7812
X13.75Y-4.8438
X13.9062Y-4.2812
X13.9062Y-4.375
X13.9062Y-4.4688
X13.9062Y-4.5625
X14.0Y-4.3125
X14.0Y-4.4062
X14.0Y-4.5
X16.6562Y-2.375
T5
X12.1188Y-4.875
X12.2188Y-4.875
X12.3187Y-4.875
X16.6562Y-1.6875
X16.6562Y-1.7875
X16.6562Y-1.8875
X16.6562Y-1.9875
X16.6562Y-2.0875
X16.6562Y-2.1875
T6
X1.5938Y-2.4375
X1.5938Y-5.7188
X4.4062Y-4.1562
X6.875Y-2.4375
X6.875Y-5.7188
X9.6562Y-4.1562
X11.1562Y-2.4375
X11.1562Y-5.7188
X14.4688Y-4.1562
X16.7812Y-5.7188
X17.0938Y-2.4375
T7
X0.8812Y-1.8062
X0.8812Y-2.9312
X0.975Y-5.9312
X1.0687Y-3.6812
X1.1312Y-1.7063
X1.1312Y-2.8312
X1.1625Y-4.4312
X1.225Y-5.8312
X1.3187Y-3.5812
X1.35Y-5.1812
X1.4125Y-4.3312
X1.6Y-5.0812
X1.6312Y-2.9312
X1.8812Y-2.8312
X1.9125Y-5.9312
X2.0063Y-3.6812
X2.1625Y-5.8312
X2.1938Y-4.4312
X2.2563Y-3.5812
X2.3813Y-1.8062
X2.3813Y-2.9312
X2.4438Y-4.3312
X2.5688Y-5.1812
X2.6313Y-1.7063
X2.6313Y-2.8312
X2.7563Y-3.6812
X2.8188Y-5.0812
X2.85Y-5.9312
X2.9438Y-4.4312
X3.0063Y-3.5812
X3.1Y-5.8312
X3.1313Y-1.8062
X3.1313Y-2.9312
X3.1938Y-4.3312
X3.3188Y-5.1812
X3.3813Y-1.7063
X3.3813Y-2.8312
X3.5063Y-3.6812
X3.5688Y-5.0812
X3.6938Y-4.4312
X3.7563Y-3.5812
X3.8813Y-1.8062
X3.8813Y-2.9312
X3.9438Y-4.3312
X4.0687Y-5.1812
X4.1312Y-1.7063
X4.1312Y-2.8312
X4.2562Y-3.6812
X4.3187Y-5.0812
X4.4437Y-4.4312
X4.5062Y-3.5812
X4.6312Y-1.8062
X4.6312Y-2.9312
X4.6937Y-4.3312
X4.8187Y-5.1812
X4.8812Y-1.7063
X4.8812Y-2.8312
X5.0062Y-3.6812
X5.0687Y-5.0812
X5.1937Y-4.4312
X5.2562Y-3.5812
X5.3812Y-2.9312
X5.4437Y-4.3312
X5.5687Y-5.1812
X5.6312Y-2.8312
X5.6625Y-5.9312
X5.7562Y-1.8062
X5.7562Y-3.6812
X5.8187Y-5.0812
X5.9125Y-5.8312
X5.9437Y-4.4312
X6.0062Y-1.7063
X6.0062Y-3.5812
X6.1312Y-2.9312
X6.1937Y-4.3312
X6.3187Y-5.1812
X6.3812Y-2.8312
X6.5062Y-1.8062
X6.5062Y-3.6812
X6.5687Y-5.0812
X6.6937Y-4.4312
X6.7562Y-1.7063
X6.7562Y-3.5812
X6.8812Y-2.9312
X6.9437Y-4.3312
X7.0687Y-5.1812
X7.1312Y-2.8312
X7.2562Y-1.8062
X7.2562Y-3.6812
X7.3187Y-5.0812
X7.4437Y-4.4312
X7.5062Y-1.7063
X7.5062Y-3.5812
X7.6312Y-2.9312
X7.6937Y-4.3312
X7.8187Y-5.1812
X7.8812Y-2.8312
X8.0062Y-1.8062
X8.0062Y-3.6812
X8.0687Y-5.0812
X8.1937Y-4.4312
X8.2562Y-1.7063
X8.2562Y-3.5812
X8.3812Y-2.9312
X8.4437Y-4.3312
X8.475Y-5.9312
X8.5687Y-5.1812
X8.6312Y-2.8312
X8.725Y-5.8312
X8.7562Y-3.6812
X8.8187Y-5.0812
X8.9437Y-4.4312
X9.0062Y-3.5812
X9.1312Y-1.8062
X9.1312Y-2.9312
X9.1937Y-4.3312
X9.3187Y-5.1812
X9.3812Y-1.7063
X9.3812Y-2.8312
X9.4125Y-5.9312
X9.5062Y-3.6812
X9.5687Y-5.0812
X9.6625Y-5.8312
X9.6937Y-4.4312
X9.7562Y-3.5812
X9.8812Y-1.8062
X9.8812Y-2.9312
X9.9437Y-4.3312
X10.1312Y-1.7063
X10.1312Y-2.8312
X10.2562Y-3.6812
X10.35Y-5.9312
X10.5062Y-3.5812
X10.6Y-5.8312
X10.6312Y-1.8062
X10.725Y-5.1812
X10.8812Y-1.7063
X10.9125Y-4.4312
X10.975Y-5.0812
X11.0062Y-2.9312
X11.1625Y-4.3312
X11.1937Y-3.6812
X11.2562Y-2.8312
X11.2875Y-5.9312
X11.3812Y-1.8062
X11.4437Y-3.5812
X11.5375Y-5.8312
X11.6312Y-1.7063
X12.3187Y-2.9312
X12.3187Y-3.6812
X12.3187Y-5.9312
X12.5687Y-2.8312
X12.5687Y-3.5812
X12.5687Y-5.8312
X13.0687Y-2.9312
X13.0687Y-3.6812
X13.0687Y-5.1812
X13.0687Y-5.9312
X13.3187Y-2.8312
X13.3187Y-3.5812
X13.3187Y-5.0812
X13.3187Y-5.8312
X13.8187Y-2.9312
X13.8187Y-3.6812
X13.8187Y-5.9312
X14.0687Y-2.8312
X14.0687Y-3.5812
X14.0687Y-5.8312
X14.7562Y-2.9312
X14.7562Y-3.6812
X14.7562Y-4.4312
X14.7562Y-5.1812
X15.0062Y-2.8312
X15.0062Y-3.5812
X15.0062Y-4.3312
X15.0062Y-5.0812
X15.1312Y-5.9312
X15.3812Y-5.8312
X15.5062Y-2.9312
X15.5062Y-3.6812
X15.5062Y-4.4312
X15.5062Y-5.1812
X15.7562Y-2.8312
X15.7562Y-3.5812
X15.7562Y-4.3312
X15.7562Y-5.0812
X16.2562Y-2.9312
X16.2562Y-3.6812
X16.2562Y-4.4312
X16.2562Y-5.1812
X16.2562Y-5.9312
X16.5062Y-2.8312
X16.5062Y-3.5812
X16.5062Y-4.3312
X16.5062Y-5.0812
X16.5062Y-5.8312
X17.0062Y-1.8062
X17.0062Y-2.9312
X17.0062Y-4.0562
X17.0062Y-5.5562
X17.2562Y-1.7063
X17.2562Y-2.8312
X17.2562Y-3.9562
X17.2562Y-5.4562
T8
X1.0312Y-5.0062
X1.9688Y-5.0062
X3.8438Y-6.3062
X7.7812Y-6.3062
X10.4062Y-5.0062
X10.5938Y-4.8062
X10.6875Y-2.7563
X11.3438Y-5.0062
X11.5312Y-4.8062
X11.625Y-2.7563
X14.8125Y-6.3062
X15.75Y-6.3062
X17.4312Y-3.6875
X17.4312Y-4.625
X17.4312Y-5.1875
X17.4312Y-6.125
T3
G00X1.6112Y-1.56
M15
G01X1.6112Y-1.5837
M16
G05
G00X1.6112Y-1.7148
M15
G01X1.6112Y-1.7581
M16
G05
G00X1.9513Y-1.56
M15
G01X1.9513Y-1.5837
M16
G05
G00X1.9513Y-1.7148
M15
G01X1.9513Y-1.7581
M16
G05
M30
