%TF.GenerationSoftware,KiCad,Pcbnew,8.0.8*%
%TF.CreationDate,2025-02-22T23:30:56+01:00*%
%TF.ProjectId,fullsized keybored 3v3,66756c6c-7369-47a6-9564-206b6579626f,rev?*%
%TF.SameCoordinates,Original*%
%TF.FileFunction,Other,Comment*%
%FSLAX46Y46*%
G04 Gerber Fmt 4.6, Leading zero omitted, Abs format (unit mm)*
G04 Created by KiCad (PCBNEW 8.0.8) date 2025-02-22 23:30:56*
%MOMM*%
%LPD*%
G01*
G04 APERTURE LIST*
%ADD10C,0.150000*%
G04 APERTURE END LIST*
D10*
X428095569Y-146454464D02*
X427095569Y-146454464D01*
X427095569Y-146454464D02*
X427809854Y-146121131D01*
X427809854Y-146121131D02*
X427095569Y-145787798D01*
X427095569Y-145787798D02*
X428095569Y-145787798D01*
X427095569Y-145406845D02*
X428095569Y-144740179D01*
X427095569Y-144740179D02*
X428095569Y-145406845D01*
X428190807Y-144597322D02*
X428190807Y-143835417D01*
X428047950Y-143644940D02*
X428095569Y-143549702D01*
X428095569Y-143549702D02*
X428095569Y-143359226D01*
X428095569Y-143359226D02*
X428047950Y-143263988D01*
X428047950Y-143263988D02*
X427952711Y-143216369D01*
X427952711Y-143216369D02*
X427905092Y-143216369D01*
X427905092Y-143216369D02*
X427809854Y-143263988D01*
X427809854Y-143263988D02*
X427762235Y-143359226D01*
X427762235Y-143359226D02*
X427762235Y-143502083D01*
X427762235Y-143502083D02*
X427714616Y-143597321D01*
X427714616Y-143597321D02*
X427619378Y-143644940D01*
X427619378Y-143644940D02*
X427571759Y-143644940D01*
X427571759Y-143644940D02*
X427476521Y-143597321D01*
X427476521Y-143597321D02*
X427428902Y-143502083D01*
X427428902Y-143502083D02*
X427428902Y-143359226D01*
X427428902Y-143359226D02*
X427476521Y-143263988D01*
X427428902Y-142930654D02*
X427428902Y-142549702D01*
X427095569Y-142787797D02*
X427952711Y-142787797D01*
X427952711Y-142787797D02*
X428047950Y-142740178D01*
X428047950Y-142740178D02*
X428095569Y-142644940D01*
X428095569Y-142644940D02*
X428095569Y-142549702D01*
X428095569Y-141787797D02*
X427571759Y-141787797D01*
X427571759Y-141787797D02*
X427476521Y-141835416D01*
X427476521Y-141835416D02*
X427428902Y-141930654D01*
X427428902Y-141930654D02*
X427428902Y-142121130D01*
X427428902Y-142121130D02*
X427476521Y-142216368D01*
X428047950Y-141787797D02*
X428095569Y-141883035D01*
X428095569Y-141883035D02*
X428095569Y-142121130D01*
X428095569Y-142121130D02*
X428047950Y-142216368D01*
X428047950Y-142216368D02*
X427952711Y-142263987D01*
X427952711Y-142263987D02*
X427857473Y-142263987D01*
X427857473Y-142263987D02*
X427762235Y-142216368D01*
X427762235Y-142216368D02*
X427714616Y-142121130D01*
X427714616Y-142121130D02*
X427714616Y-141883035D01*
X427714616Y-141883035D02*
X427666997Y-141787797D01*
X428095569Y-141311606D02*
X427095569Y-141311606D01*
X427476521Y-141311606D02*
X427428902Y-141216368D01*
X427428902Y-141216368D02*
X427428902Y-141025892D01*
X427428902Y-141025892D02*
X427476521Y-140930654D01*
X427476521Y-140930654D02*
X427524140Y-140883035D01*
X427524140Y-140883035D02*
X427619378Y-140835416D01*
X427619378Y-140835416D02*
X427905092Y-140835416D01*
X427905092Y-140835416D02*
X428000330Y-140883035D01*
X428000330Y-140883035D02*
X428047950Y-140930654D01*
X428047950Y-140930654D02*
X428095569Y-141025892D01*
X428095569Y-141025892D02*
X428095569Y-141216368D01*
X428095569Y-141216368D02*
X428047950Y-141311606D01*
X428095569Y-108354464D02*
X427095569Y-108354464D01*
X427095569Y-108354464D02*
X427809854Y-108021131D01*
X427809854Y-108021131D02*
X427095569Y-107687798D01*
X427095569Y-107687798D02*
X428095569Y-107687798D01*
X427095569Y-107306845D02*
X428095569Y-106640179D01*
X427095569Y-106640179D02*
X428095569Y-107306845D01*
X428190807Y-106497322D02*
X428190807Y-105735417D01*
X428047950Y-105544940D02*
X428095569Y-105449702D01*
X428095569Y-105449702D02*
X428095569Y-105259226D01*
X428095569Y-105259226D02*
X428047950Y-105163988D01*
X428047950Y-105163988D02*
X427952711Y-105116369D01*
X427952711Y-105116369D02*
X427905092Y-105116369D01*
X427905092Y-105116369D02*
X427809854Y-105163988D01*
X427809854Y-105163988D02*
X427762235Y-105259226D01*
X427762235Y-105259226D02*
X427762235Y-105402083D01*
X427762235Y-105402083D02*
X427714616Y-105497321D01*
X427714616Y-105497321D02*
X427619378Y-105544940D01*
X427619378Y-105544940D02*
X427571759Y-105544940D01*
X427571759Y-105544940D02*
X427476521Y-105497321D01*
X427476521Y-105497321D02*
X427428902Y-105402083D01*
X427428902Y-105402083D02*
X427428902Y-105259226D01*
X427428902Y-105259226D02*
X427476521Y-105163988D01*
X427428902Y-104830654D02*
X427428902Y-104449702D01*
X427095569Y-104687797D02*
X427952711Y-104687797D01*
X427952711Y-104687797D02*
X428047950Y-104640178D01*
X428047950Y-104640178D02*
X428095569Y-104544940D01*
X428095569Y-104544940D02*
X428095569Y-104449702D01*
X428095569Y-103687797D02*
X427571759Y-103687797D01*
X427571759Y-103687797D02*
X427476521Y-103735416D01*
X427476521Y-103735416D02*
X427428902Y-103830654D01*
X427428902Y-103830654D02*
X427428902Y-104021130D01*
X427428902Y-104021130D02*
X427476521Y-104116368D01*
X428047950Y-103687797D02*
X428095569Y-103783035D01*
X428095569Y-103783035D02*
X428095569Y-104021130D01*
X428095569Y-104021130D02*
X428047950Y-104116368D01*
X428047950Y-104116368D02*
X427952711Y-104163987D01*
X427952711Y-104163987D02*
X427857473Y-104163987D01*
X427857473Y-104163987D02*
X427762235Y-104116368D01*
X427762235Y-104116368D02*
X427714616Y-104021130D01*
X427714616Y-104021130D02*
X427714616Y-103783035D01*
X427714616Y-103783035D02*
X427666997Y-103687797D01*
X428095569Y-103211606D02*
X427095569Y-103211606D01*
X427476521Y-103211606D02*
X427428902Y-103116368D01*
X427428902Y-103116368D02*
X427428902Y-102925892D01*
X427428902Y-102925892D02*
X427476521Y-102830654D01*
X427476521Y-102830654D02*
X427524140Y-102783035D01*
X427524140Y-102783035D02*
X427619378Y-102735416D01*
X427619378Y-102735416D02*
X427905092Y-102735416D01*
X427905092Y-102735416D02*
X428000330Y-102783035D01*
X428000330Y-102783035D02*
X428047950Y-102830654D01*
X428047950Y-102830654D02*
X428095569Y-102925892D01*
X428095569Y-102925892D02*
X428095569Y-103116368D01*
X428095569Y-103116368D02*
X428047950Y-103211606D01*
X35314285Y-142726569D02*
X35314285Y-141726569D01*
X35314285Y-141726569D02*
X35647618Y-142440854D01*
X35647618Y-142440854D02*
X35980951Y-141726569D01*
X35980951Y-141726569D02*
X35980951Y-142726569D01*
X36361904Y-141726569D02*
X37028570Y-142726569D01*
X37028570Y-141726569D02*
X36361904Y-142726569D01*
X37171428Y-142821807D02*
X37933332Y-142821807D01*
X38123809Y-142678950D02*
X38219047Y-142726569D01*
X38219047Y-142726569D02*
X38409523Y-142726569D01*
X38409523Y-142726569D02*
X38504761Y-142678950D01*
X38504761Y-142678950D02*
X38552380Y-142583711D01*
X38552380Y-142583711D02*
X38552380Y-142536092D01*
X38552380Y-142536092D02*
X38504761Y-142440854D01*
X38504761Y-142440854D02*
X38409523Y-142393235D01*
X38409523Y-142393235D02*
X38266666Y-142393235D01*
X38266666Y-142393235D02*
X38171428Y-142345616D01*
X38171428Y-142345616D02*
X38123809Y-142250378D01*
X38123809Y-142250378D02*
X38123809Y-142202759D01*
X38123809Y-142202759D02*
X38171428Y-142107521D01*
X38171428Y-142107521D02*
X38266666Y-142059902D01*
X38266666Y-142059902D02*
X38409523Y-142059902D01*
X38409523Y-142059902D02*
X38504761Y-142107521D01*
X38838095Y-142059902D02*
X39219047Y-142059902D01*
X38980952Y-141726569D02*
X38980952Y-142583711D01*
X38980952Y-142583711D02*
X39028571Y-142678950D01*
X39028571Y-142678950D02*
X39123809Y-142726569D01*
X39123809Y-142726569D02*
X39219047Y-142726569D01*
X39980952Y-142726569D02*
X39980952Y-142202759D01*
X39980952Y-142202759D02*
X39933333Y-142107521D01*
X39933333Y-142107521D02*
X39838095Y-142059902D01*
X39838095Y-142059902D02*
X39647619Y-142059902D01*
X39647619Y-142059902D02*
X39552381Y-142107521D01*
X39980952Y-142678950D02*
X39885714Y-142726569D01*
X39885714Y-142726569D02*
X39647619Y-142726569D01*
X39647619Y-142726569D02*
X39552381Y-142678950D01*
X39552381Y-142678950D02*
X39504762Y-142583711D01*
X39504762Y-142583711D02*
X39504762Y-142488473D01*
X39504762Y-142488473D02*
X39552381Y-142393235D01*
X39552381Y-142393235D02*
X39647619Y-142345616D01*
X39647619Y-142345616D02*
X39885714Y-142345616D01*
X39885714Y-142345616D02*
X39980952Y-142297997D01*
X40457143Y-142726569D02*
X40457143Y-141726569D01*
X40457143Y-142107521D02*
X40552381Y-142059902D01*
X40552381Y-142059902D02*
X40742857Y-142059902D01*
X40742857Y-142059902D02*
X40838095Y-142107521D01*
X40838095Y-142107521D02*
X40885714Y-142155140D01*
X40885714Y-142155140D02*
X40933333Y-142250378D01*
X40933333Y-142250378D02*
X40933333Y-142536092D01*
X40933333Y-142536092D02*
X40885714Y-142631330D01*
X40885714Y-142631330D02*
X40838095Y-142678950D01*
X40838095Y-142678950D02*
X40742857Y-142726569D01*
X40742857Y-142726569D02*
X40552381Y-142726569D01*
X40552381Y-142726569D02*
X40457143Y-142678950D01*
X273439285Y-142726569D02*
X273439285Y-141726569D01*
X273439285Y-141726569D02*
X273772618Y-142440854D01*
X273772618Y-142440854D02*
X274105951Y-141726569D01*
X274105951Y-141726569D02*
X274105951Y-142726569D01*
X274486904Y-141726569D02*
X275153570Y-142726569D01*
X275153570Y-141726569D02*
X274486904Y-142726569D01*
X275296428Y-142821807D02*
X276058332Y-142821807D01*
X276248809Y-142678950D02*
X276344047Y-142726569D01*
X276344047Y-142726569D02*
X276534523Y-142726569D01*
X276534523Y-142726569D02*
X276629761Y-142678950D01*
X276629761Y-142678950D02*
X276677380Y-142583711D01*
X276677380Y-142583711D02*
X276677380Y-142536092D01*
X276677380Y-142536092D02*
X276629761Y-142440854D01*
X276629761Y-142440854D02*
X276534523Y-142393235D01*
X276534523Y-142393235D02*
X276391666Y-142393235D01*
X276391666Y-142393235D02*
X276296428Y-142345616D01*
X276296428Y-142345616D02*
X276248809Y-142250378D01*
X276248809Y-142250378D02*
X276248809Y-142202759D01*
X276248809Y-142202759D02*
X276296428Y-142107521D01*
X276296428Y-142107521D02*
X276391666Y-142059902D01*
X276391666Y-142059902D02*
X276534523Y-142059902D01*
X276534523Y-142059902D02*
X276629761Y-142107521D01*
X276963095Y-142059902D02*
X277344047Y-142059902D01*
X277105952Y-141726569D02*
X277105952Y-142583711D01*
X277105952Y-142583711D02*
X277153571Y-142678950D01*
X277153571Y-142678950D02*
X277248809Y-142726569D01*
X277248809Y-142726569D02*
X277344047Y-142726569D01*
X278105952Y-142726569D02*
X278105952Y-142202759D01*
X278105952Y-142202759D02*
X278058333Y-142107521D01*
X278058333Y-142107521D02*
X277963095Y-142059902D01*
X277963095Y-142059902D02*
X277772619Y-142059902D01*
X277772619Y-142059902D02*
X277677381Y-142107521D01*
X278105952Y-142678950D02*
X278010714Y-142726569D01*
X278010714Y-142726569D02*
X277772619Y-142726569D01*
X277772619Y-142726569D02*
X277677381Y-142678950D01*
X277677381Y-142678950D02*
X277629762Y-142583711D01*
X277629762Y-142583711D02*
X277629762Y-142488473D01*
X277629762Y-142488473D02*
X277677381Y-142393235D01*
X277677381Y-142393235D02*
X277772619Y-142345616D01*
X277772619Y-142345616D02*
X278010714Y-142345616D01*
X278010714Y-142345616D02*
X278105952Y-142297997D01*
X278582143Y-142726569D02*
X278582143Y-141726569D01*
X278582143Y-142107521D02*
X278677381Y-142059902D01*
X278677381Y-142059902D02*
X278867857Y-142059902D01*
X278867857Y-142059902D02*
X278963095Y-142107521D01*
X278963095Y-142107521D02*
X279010714Y-142155140D01*
X279010714Y-142155140D02*
X279058333Y-142250378D01*
X279058333Y-142250378D02*
X279058333Y-142536092D01*
X279058333Y-142536092D02*
X279010714Y-142631330D01*
X279010714Y-142631330D02*
X278963095Y-142678950D01*
X278963095Y-142678950D02*
X278867857Y-142726569D01*
X278867857Y-142726569D02*
X278677381Y-142726569D01*
X278677381Y-142726569D02*
X278582143Y-142678950D01*
X144851785Y-145520569D02*
X144851785Y-144520569D01*
X144851785Y-144520569D02*
X145185118Y-145234854D01*
X145185118Y-145234854D02*
X145518451Y-144520569D01*
X145518451Y-144520569D02*
X145518451Y-145520569D01*
X145899404Y-144520569D02*
X146566070Y-145520569D01*
X146566070Y-144520569D02*
X145899404Y-145520569D01*
X146708928Y-145615807D02*
X147470832Y-145615807D01*
X147661309Y-145472950D02*
X147756547Y-145520569D01*
X147756547Y-145520569D02*
X147947023Y-145520569D01*
X147947023Y-145520569D02*
X148042261Y-145472950D01*
X148042261Y-145472950D02*
X148089880Y-145377711D01*
X148089880Y-145377711D02*
X148089880Y-145330092D01*
X148089880Y-145330092D02*
X148042261Y-145234854D01*
X148042261Y-145234854D02*
X147947023Y-145187235D01*
X147947023Y-145187235D02*
X147804166Y-145187235D01*
X147804166Y-145187235D02*
X147708928Y-145139616D01*
X147708928Y-145139616D02*
X147661309Y-145044378D01*
X147661309Y-145044378D02*
X147661309Y-144996759D01*
X147661309Y-144996759D02*
X147708928Y-144901521D01*
X147708928Y-144901521D02*
X147804166Y-144853902D01*
X147804166Y-144853902D02*
X147947023Y-144853902D01*
X147947023Y-144853902D02*
X148042261Y-144901521D01*
X148375595Y-144853902D02*
X148756547Y-144853902D01*
X148518452Y-144520569D02*
X148518452Y-145377711D01*
X148518452Y-145377711D02*
X148566071Y-145472950D01*
X148566071Y-145472950D02*
X148661309Y-145520569D01*
X148661309Y-145520569D02*
X148756547Y-145520569D01*
X149518452Y-145520569D02*
X149518452Y-144996759D01*
X149518452Y-144996759D02*
X149470833Y-144901521D01*
X149470833Y-144901521D02*
X149375595Y-144853902D01*
X149375595Y-144853902D02*
X149185119Y-144853902D01*
X149185119Y-144853902D02*
X149089881Y-144901521D01*
X149518452Y-145472950D02*
X149423214Y-145520569D01*
X149423214Y-145520569D02*
X149185119Y-145520569D01*
X149185119Y-145520569D02*
X149089881Y-145472950D01*
X149089881Y-145472950D02*
X149042262Y-145377711D01*
X149042262Y-145377711D02*
X149042262Y-145282473D01*
X149042262Y-145282473D02*
X149089881Y-145187235D01*
X149089881Y-145187235D02*
X149185119Y-145139616D01*
X149185119Y-145139616D02*
X149423214Y-145139616D01*
X149423214Y-145139616D02*
X149518452Y-145091997D01*
X149994643Y-145520569D02*
X149994643Y-144520569D01*
X149994643Y-144901521D02*
X150089881Y-144853902D01*
X150089881Y-144853902D02*
X150280357Y-144853902D01*
X150280357Y-144853902D02*
X150375595Y-144901521D01*
X150375595Y-144901521D02*
X150423214Y-144949140D01*
X150423214Y-144949140D02*
X150470833Y-145044378D01*
X150470833Y-145044378D02*
X150470833Y-145330092D01*
X150470833Y-145330092D02*
X150423214Y-145425330D01*
X150423214Y-145425330D02*
X150375595Y-145472950D01*
X150375595Y-145472950D02*
X150280357Y-145520569D01*
X150280357Y-145520569D02*
X150089881Y-145520569D01*
X150089881Y-145520569D02*
X149994643Y-145472950D01*
X280583035Y-85576569D02*
X280583035Y-84576569D01*
X280583035Y-84576569D02*
X280916368Y-85290854D01*
X280916368Y-85290854D02*
X281249701Y-84576569D01*
X281249701Y-84576569D02*
X281249701Y-85576569D01*
X281630654Y-84576569D02*
X282297320Y-85576569D01*
X282297320Y-84576569D02*
X281630654Y-85576569D01*
X282440178Y-85671807D02*
X283202082Y-85671807D01*
X283392559Y-85528950D02*
X283487797Y-85576569D01*
X283487797Y-85576569D02*
X283678273Y-85576569D01*
X283678273Y-85576569D02*
X283773511Y-85528950D01*
X283773511Y-85528950D02*
X283821130Y-85433711D01*
X283821130Y-85433711D02*
X283821130Y-85386092D01*
X283821130Y-85386092D02*
X283773511Y-85290854D01*
X283773511Y-85290854D02*
X283678273Y-85243235D01*
X283678273Y-85243235D02*
X283535416Y-85243235D01*
X283535416Y-85243235D02*
X283440178Y-85195616D01*
X283440178Y-85195616D02*
X283392559Y-85100378D01*
X283392559Y-85100378D02*
X283392559Y-85052759D01*
X283392559Y-85052759D02*
X283440178Y-84957521D01*
X283440178Y-84957521D02*
X283535416Y-84909902D01*
X283535416Y-84909902D02*
X283678273Y-84909902D01*
X283678273Y-84909902D02*
X283773511Y-84957521D01*
X284106845Y-84909902D02*
X284487797Y-84909902D01*
X284249702Y-84576569D02*
X284249702Y-85433711D01*
X284249702Y-85433711D02*
X284297321Y-85528950D01*
X284297321Y-85528950D02*
X284392559Y-85576569D01*
X284392559Y-85576569D02*
X284487797Y-85576569D01*
X285249702Y-85576569D02*
X285249702Y-85052759D01*
X285249702Y-85052759D02*
X285202083Y-84957521D01*
X285202083Y-84957521D02*
X285106845Y-84909902D01*
X285106845Y-84909902D02*
X284916369Y-84909902D01*
X284916369Y-84909902D02*
X284821131Y-84957521D01*
X285249702Y-85528950D02*
X285154464Y-85576569D01*
X285154464Y-85576569D02*
X284916369Y-85576569D01*
X284916369Y-85576569D02*
X284821131Y-85528950D01*
X284821131Y-85528950D02*
X284773512Y-85433711D01*
X284773512Y-85433711D02*
X284773512Y-85338473D01*
X284773512Y-85338473D02*
X284821131Y-85243235D01*
X284821131Y-85243235D02*
X284916369Y-85195616D01*
X284916369Y-85195616D02*
X285154464Y-85195616D01*
X285154464Y-85195616D02*
X285249702Y-85147997D01*
X285725893Y-85576569D02*
X285725893Y-84576569D01*
X285725893Y-84957521D02*
X285821131Y-84909902D01*
X285821131Y-84909902D02*
X286011607Y-84909902D01*
X286011607Y-84909902D02*
X286106845Y-84957521D01*
X286106845Y-84957521D02*
X286154464Y-85005140D01*
X286154464Y-85005140D02*
X286202083Y-85100378D01*
X286202083Y-85100378D02*
X286202083Y-85386092D01*
X286202083Y-85386092D02*
X286154464Y-85481330D01*
X286154464Y-85481330D02*
X286106845Y-85528950D01*
X286106845Y-85528950D02*
X286011607Y-85576569D01*
X286011607Y-85576569D02*
X285821131Y-85576569D01*
X285821131Y-85576569D02*
X285725893Y-85528950D01*
X385358035Y-145520569D02*
X385358035Y-144520569D01*
X385358035Y-144520569D02*
X385691368Y-145234854D01*
X385691368Y-145234854D02*
X386024701Y-144520569D01*
X386024701Y-144520569D02*
X386024701Y-145520569D01*
X386405654Y-144520569D02*
X387072320Y-145520569D01*
X387072320Y-144520569D02*
X386405654Y-145520569D01*
X387215178Y-145615807D02*
X387977082Y-145615807D01*
X388167559Y-145472950D02*
X388262797Y-145520569D01*
X388262797Y-145520569D02*
X388453273Y-145520569D01*
X388453273Y-145520569D02*
X388548511Y-145472950D01*
X388548511Y-145472950D02*
X388596130Y-145377711D01*
X388596130Y-145377711D02*
X388596130Y-145330092D01*
X388596130Y-145330092D02*
X388548511Y-145234854D01*
X388548511Y-145234854D02*
X388453273Y-145187235D01*
X388453273Y-145187235D02*
X388310416Y-145187235D01*
X388310416Y-145187235D02*
X388215178Y-145139616D01*
X388215178Y-145139616D02*
X388167559Y-145044378D01*
X388167559Y-145044378D02*
X388167559Y-144996759D01*
X388167559Y-144996759D02*
X388215178Y-144901521D01*
X388215178Y-144901521D02*
X388310416Y-144853902D01*
X388310416Y-144853902D02*
X388453273Y-144853902D01*
X388453273Y-144853902D02*
X388548511Y-144901521D01*
X388881845Y-144853902D02*
X389262797Y-144853902D01*
X389024702Y-144520569D02*
X389024702Y-145377711D01*
X389024702Y-145377711D02*
X389072321Y-145472950D01*
X389072321Y-145472950D02*
X389167559Y-145520569D01*
X389167559Y-145520569D02*
X389262797Y-145520569D01*
X390024702Y-145520569D02*
X390024702Y-144996759D01*
X390024702Y-144996759D02*
X389977083Y-144901521D01*
X389977083Y-144901521D02*
X389881845Y-144853902D01*
X389881845Y-144853902D02*
X389691369Y-144853902D01*
X389691369Y-144853902D02*
X389596131Y-144901521D01*
X390024702Y-145472950D02*
X389929464Y-145520569D01*
X389929464Y-145520569D02*
X389691369Y-145520569D01*
X389691369Y-145520569D02*
X389596131Y-145472950D01*
X389596131Y-145472950D02*
X389548512Y-145377711D01*
X389548512Y-145377711D02*
X389548512Y-145282473D01*
X389548512Y-145282473D02*
X389596131Y-145187235D01*
X389596131Y-145187235D02*
X389691369Y-145139616D01*
X389691369Y-145139616D02*
X389929464Y-145139616D01*
X389929464Y-145139616D02*
X390024702Y-145091997D01*
X390500893Y-145520569D02*
X390500893Y-144520569D01*
X390500893Y-144901521D02*
X390596131Y-144853902D01*
X390596131Y-144853902D02*
X390786607Y-144853902D01*
X390786607Y-144853902D02*
X390881845Y-144901521D01*
X390881845Y-144901521D02*
X390929464Y-144949140D01*
X390929464Y-144949140D02*
X390977083Y-145044378D01*
X390977083Y-145044378D02*
X390977083Y-145330092D01*
X390977083Y-145330092D02*
X390929464Y-145425330D01*
X390929464Y-145425330D02*
X390881845Y-145472950D01*
X390881845Y-145472950D02*
X390786607Y-145520569D01*
X390786607Y-145520569D02*
X390596131Y-145520569D01*
X390596131Y-145520569D02*
X390500893Y-145472950D01*
X278201785Y-107420569D02*
X278201785Y-106420569D01*
X278201785Y-106420569D02*
X278535118Y-107134854D01*
X278535118Y-107134854D02*
X278868451Y-106420569D01*
X278868451Y-106420569D02*
X278868451Y-107420569D01*
X279249404Y-106420569D02*
X279916070Y-107420569D01*
X279916070Y-106420569D02*
X279249404Y-107420569D01*
X280058928Y-107515807D02*
X280820832Y-107515807D01*
X281011309Y-107372950D02*
X281106547Y-107420569D01*
X281106547Y-107420569D02*
X281297023Y-107420569D01*
X281297023Y-107420569D02*
X281392261Y-107372950D01*
X281392261Y-107372950D02*
X281439880Y-107277711D01*
X281439880Y-107277711D02*
X281439880Y-107230092D01*
X281439880Y-107230092D02*
X281392261Y-107134854D01*
X281392261Y-107134854D02*
X281297023Y-107087235D01*
X281297023Y-107087235D02*
X281154166Y-107087235D01*
X281154166Y-107087235D02*
X281058928Y-107039616D01*
X281058928Y-107039616D02*
X281011309Y-106944378D01*
X281011309Y-106944378D02*
X281011309Y-106896759D01*
X281011309Y-106896759D02*
X281058928Y-106801521D01*
X281058928Y-106801521D02*
X281154166Y-106753902D01*
X281154166Y-106753902D02*
X281297023Y-106753902D01*
X281297023Y-106753902D02*
X281392261Y-106801521D01*
X281725595Y-106753902D02*
X282106547Y-106753902D01*
X281868452Y-106420569D02*
X281868452Y-107277711D01*
X281868452Y-107277711D02*
X281916071Y-107372950D01*
X281916071Y-107372950D02*
X282011309Y-107420569D01*
X282011309Y-107420569D02*
X282106547Y-107420569D01*
X282868452Y-107420569D02*
X282868452Y-106896759D01*
X282868452Y-106896759D02*
X282820833Y-106801521D01*
X282820833Y-106801521D02*
X282725595Y-106753902D01*
X282725595Y-106753902D02*
X282535119Y-106753902D01*
X282535119Y-106753902D02*
X282439881Y-106801521D01*
X282868452Y-107372950D02*
X282773214Y-107420569D01*
X282773214Y-107420569D02*
X282535119Y-107420569D01*
X282535119Y-107420569D02*
X282439881Y-107372950D01*
X282439881Y-107372950D02*
X282392262Y-107277711D01*
X282392262Y-107277711D02*
X282392262Y-107182473D01*
X282392262Y-107182473D02*
X282439881Y-107087235D01*
X282439881Y-107087235D02*
X282535119Y-107039616D01*
X282535119Y-107039616D02*
X282773214Y-107039616D01*
X282773214Y-107039616D02*
X282868452Y-106991997D01*
X283344643Y-107420569D02*
X283344643Y-106420569D01*
X283344643Y-106801521D02*
X283439881Y-106753902D01*
X283439881Y-106753902D02*
X283630357Y-106753902D01*
X283630357Y-106753902D02*
X283725595Y-106801521D01*
X283725595Y-106801521D02*
X283773214Y-106849140D01*
X283773214Y-106849140D02*
X283820833Y-106944378D01*
X283820833Y-106944378D02*
X283820833Y-107230092D01*
X283820833Y-107230092D02*
X283773214Y-107325330D01*
X283773214Y-107325330D02*
X283725595Y-107372950D01*
X283725595Y-107372950D02*
X283630357Y-107420569D01*
X283630357Y-107420569D02*
X283439881Y-107420569D01*
X283439881Y-107420569D02*
X283344643Y-107372950D01*
%TO.C,H7*%
X285268750Y-145256250D02*
G75*
G02*
X281468750Y-145256250I-1900000J0D01*
G01*
X281468750Y-145256250D02*
G75*
G02*
X285268750Y-145256250I1900000J0D01*
G01*
%TO.C,H8*%
X428143750Y-145256250D02*
G75*
G02*
X424343750Y-145256250I-1900000J0D01*
G01*
X424343750Y-145256250D02*
G75*
G02*
X428143750Y-145256250I1900000J0D01*
G01*
%TO.C,H3*%
X285268750Y-61912500D02*
G75*
G02*
X281468750Y-61912500I-1900000J0D01*
G01*
X281468750Y-61912500D02*
G75*
G02*
X285268750Y-61912500I1900000J0D01*
G01*
%TO.C,H11*%
X369406250Y-105568750D02*
G75*
G02*
X365606250Y-105568750I-1900000J0D01*
G01*
X365606250Y-105568750D02*
G75*
G02*
X369406250Y-105568750I1900000J0D01*
G01*
%TO.C,H1*%
X42381250Y-61912500D02*
G75*
G02*
X38581250Y-61912500I-1900000J0D01*
G01*
X38581250Y-61912500D02*
G75*
G02*
X42381250Y-61912500I1900000J0D01*
G01*
%TO.C,H2*%
X176525000Y-61912500D02*
G75*
G02*
X172725000Y-61912500I-1900000J0D01*
G01*
X172725000Y-61912500D02*
G75*
G02*
X176525000Y-61912500I1900000J0D01*
G01*
%TO.C,H4*%
X436081250Y-61912500D02*
G75*
G02*
X432281250Y-61912500I-1900000J0D01*
G01*
X432281250Y-61912500D02*
G75*
G02*
X436081250Y-61912500I1900000J0D01*
G01*
%TO.C,H5*%
X42381250Y-145256250D02*
G75*
G02*
X38581250Y-145256250I-1900000J0D01*
G01*
X38581250Y-145256250D02*
G75*
G02*
X42381250Y-145256250I1900000J0D01*
G01*
%TO.C,H6*%
X176525000Y-145256250D02*
G75*
G02*
X172725000Y-145256250I-1900000J0D01*
G01*
X172725000Y-145256250D02*
G75*
G02*
X176525000Y-145256250I1900000J0D01*
G01*
%TO.C,H10*%
X247168750Y-105568750D02*
G75*
G02*
X243368750Y-105568750I-1900000J0D01*
G01*
X243368750Y-105568750D02*
G75*
G02*
X247168750Y-105568750I1900000J0D01*
G01*
%TO.C,H9*%
X113818750Y-105568750D02*
G75*
G02*
X110018750Y-105568750I-1900000J0D01*
G01*
X110018750Y-105568750D02*
G75*
G02*
X113818750Y-105568750I1900000J0D01*
G01*
%TD*%
M02*
